<svg width="375" height="812" viewBox="0 0 375 812" fill="none" xmlns="http://www.w3.org/2000/svg">
<g clip-path="url(#clip0_22_2868)">
<rect width="375" height="812" fill="#E2EBF1"/>
<path fill-rule="evenodd" clip-rule="evenodd" d="M303.66 384.941C298.086 385.544 292.903 380.123 292.903 378.736C292.903 377.35 301.397 373.364 302.629 370.663C303.862 367.961 303.405 363.529 300.683 361.426C297.961 359.323 296.108 361.787 296.753 363.189C297.399 364.592 298.885 368.45 297.58 369.433C296.275 370.416 287.845 370.971 287.283 368.752C286.721 366.534 285.035 362.096 285.597 359.045C286.159 355.995 288.407 352.944 289.531 349.616C290.655 346.288 288.407 338.522 286.159 336.858C283.911 335.194 281.102 332.309 281.102 330.701C281.102 329.093 276.606 327.706 276.044 330.202C275.482 332.698 279.978 334.64 279.978 334.64C279.978 334.64 283.065 339.374 281.102 340.741C279.138 342.108 276.606 347.397 273.234 347.397C269.862 347.397 267.614 343.792 268.176 342.405C268.738 341.018 269.862 330.757 265.366 327.706C260.87 324.655 259.747 322.714 260.308 319.941C260.87 317.167 261.994 310.511 260.87 309.124C259.747 307.738 254.689 304.687 254.127 306.628C253.565 308.57 258.061 315.226 255.813 316.335C253.565 317.445 253.003 320.773 253.003 322.991C253.003 325.21 257.499 329.925 257.499 332.698C257.499 335.472 255.251 341.526 253.565 342.104C251.879 342.682 251.094 347.375 251.204 349.05C251.317 350.725 253.708 357.006 253.636 358.303C253.565 359.6 250.184 365.338 246.817 367.46C243.449 369.584 233.896 367.274 232.772 364.823C231.648 362.373 229.4 358.161 232.772 355.275C236.144 352.389 236.705 347.952 235.02 346.01C233.334 344.069 228.838 339.909 228.838 339.909C228.838 339.909 225.466 340.186 227.152 343.514C228.838 346.842 230.731 349.266 229.503 350.134C228.276 351.003 217.598 353.499 215.35 351.557C213.102 349.616 211.979 344.069 213.664 341.296C215.35 338.522 215.912 332.586 210.855 330.701C205.797 328.815 201.863 323.823 201.301 326.042C200.739 328.261 211.417 334.692 208.045 339.103C204.673 343.514 204.882 347.953 204.777 349.755C204.673 351.557 214.226 358.768 210.855 360.155C207.483 361.541 198.851 358.491 196.985 356.549C195.119 354.608 195.119 355.44 195.119 351.557C195.119 347.674 190.623 342.96 188.937 342.405C187.252 341.85 185.004 339.077 185.004 337.69C185.004 336.304 178.822 334.085 180.508 338.522C182.194 342.96 188.376 346.842 187.814 349.061C187.252 351.28 190.061 357.659 185.566 358.213C181.07 358.768 174.329 363.09 169.271 361.426C164.213 359.761 181.961 374.211 195.119 388.489L210.855 400.168C210.855 400.168 220.926 399.479 248.991 405.735C277.056 411.992 309.235 384.338 303.66 384.941Z" fill="#CAE3FF"/>
<path d="M-466 397.467C-466 397.467 -408.034 360.66 -367.632 406.035C-297.518 484.779 -248.69 450.073 -222.805 403.174C-196.921 356.275 -154.374 353.199 -73.9874 395.519C-40.6063 413.093 -133.966 325.898 -3.93713 384.827C55.4307 411.732 132.01 297.167 178.625 361.203C225.241 425.24 293.713 398.721 305.561 372.238C329.802 318.055 300.847 251.149 440.96 267.403C581.072 283.657 560.239 457.178 658.693 382.067C757.147 306.956 748.809 169.621 835.331 177.132C921.853 184.643 849.81 556.031 849.81 556.031L-454.417 622.075L-466 397.467Z" fill="#D1E5FC"/>
<path d="M384.614 464.839C384.614 464.839 395.06 457.792 397.449 440.796C397.297 440.422 390.976 436.72 387.65 422.72C384.325 408.72 385.937 400.822 380.788 392.503C375.64 384.184 384.094 379.625 382.762 364.626C380.298 354.645 377.193 355.727 370.831 350.016C364.468 344.305 366.4 314.588 345.024 316.402C334.805 318.067 342.824 346.867 347.756 357.616C352.689 368.366 351.187 376.628 349.951 383.895C348.715 391.162 358.611 401.717 353.392 413.236C348.173 424.756 355.464 438.183 357.861 442.753C360.258 447.323 364.44 462.004 368.459 462.569C372.479 463.134 384.614 464.839 384.614 464.839Z" fill="url(#paint0_linear_22_2868)"/>
<path d="M375.786 458.602C375.786 458.602 370.558 429.405 370.826 413.796C371.213 391.193 365.742 378.198 362.462 365.282C354.978 335.814 353.139 325.151 353.139 325.151" stroke="white" stroke-linecap="round"/>
<path fill-rule="evenodd" clip-rule="evenodd" d="M24.2732 445.383C24.2732 445.383 23.9266 406.774 25.5343 390.098C27.142 373.422 23.7581 364.189 28.3383 363.05C32.9185 361.911 38.6967 360.386 45.1586 364.603C51.6206 368.819 30.6528 446.629 30.6528 446.629" fill="url(#paint1_linear_22_2868)"/>
<mask id="mask0_22_2868" style="mask-type:luminance" maskUnits="userSpaceOnUse" x="24" y="361" width="23" height="86">
<path fill-rule="evenodd" clip-rule="evenodd" d="M24.2732 445.383C24.2732 445.383 23.9266 406.774 25.5343 390.098C27.142 373.422 23.7581 364.189 28.3383 363.05C32.9185 361.911 38.6967 360.386 45.1586 364.603C51.6206 368.819 30.6528 446.629 30.6528 446.629" fill="white"/>
</mask>
<g mask="url(#mask0_22_2868)">
<path d="M24.7693 377.518C24.7693 377.518 41.1676 386.234 48.8375 377.425" stroke="#642B73" stroke-width="3"/>
<path d="M22.7634 389.434C22.7634 389.434 39.1617 398.149 46.8316 389.34" stroke="#642B73" stroke-width="3"/>
<path d="M20.7574 401.349C20.7574 401.349 37.1558 410.065 44.8256 401.255" stroke="#642B73" stroke-width="3"/>
</g>
<ellipse cx="36.4749" cy="365.823" rx="9.5" ry="5" transform="rotate(3 36.4749 365.823)" fill="#642B73" stroke="url(#paint2_linear_22_2868)" stroke-width="2"/>
<path fill-rule="evenodd" clip-rule="evenodd" d="M41.0592 428.675C41.0592 428.675 57.2374 393.747 58.0988 392.313C58.9602 390.88 41.3157 375.387 37.7602 385.966C34.2047 396.545 31.8925 429.996 34.9687 431.844C38.0448 433.692 41.0592 428.675 41.0592 428.675Z" fill="url(#paint3_linear_22_2868)"/>
<ellipse cx="9.5" cy="5.5" rx="9.5" ry="5.5" transform="matrix(-0.857167 -0.515038 -0.515038 0.857167 59.5107 388.259)" fill="#642B73" stroke="url(#paint4_linear_22_2868)" stroke-width="2"/>
<path fill-rule="evenodd" clip-rule="evenodd" d="M23.9987 448.498C23.9987 448.498 41.8184 414.246 51.0669 400.276C60.3153 386.307 61.6621 376.566 66.2407 377.711C70.8194 378.856 76.6371 380.222 80.3632 386.979C84.0892 393.735 29.0461 452.594 29.0461 452.594" fill="url(#paint5_linear_22_2868)"/>
<mask id="mask1_22_2868" style="mask-type:luminance" maskUnits="userSpaceOnUse" x="23" y="377" width="58" height="76">
<path fill-rule="evenodd" clip-rule="evenodd" d="M23.9987 448.498C23.9987 448.498 41.8184 414.246 51.0669 400.276C60.3153 386.307 61.6621 376.566 66.2407 377.711C70.8194 378.856 76.6371 380.222 80.3632 386.979C84.0892 393.735 29.0461 452.594 29.0461 452.594" fill="white"/>
</mask>
<g mask="url(#mask1_22_2868)">
<path d="M57.3289 386.787C57.3289 386.787 61.9765 399.022 76.5643 398.621" stroke="#642B73" stroke-width="3"/>
<path d="M51.6427 395.217C51.6427 395.217 56.2904 407.452 70.8782 407.05" stroke="#642B73" stroke-width="3"/>
</g>
<ellipse cx="72.1228" cy="383.98" rx="9.5" ry="5" transform="rotate(31 72.1228 383.98)" fill="#642B73" stroke="url(#paint6_linear_22_2868)" stroke-width="2"/>
<path fill-rule="evenodd" clip-rule="evenodd" d="M35.018 427.322C35.018 427.322 65.4118 403.701 66.6149 402.539C67.818 401.377 86.8834 415.085 77.3753 420.929C67.8672 426.773 35.7936 436.551 33.3007 433.969C30.8077 431.388 35.018 427.322 35.018 427.322Z" fill="url(#paint7_linear_22_2868)"/>
<mask id="mask2_22_2868" style="mask-type:luminance" maskUnits="userSpaceOnUse" x="32" y="402" width="49" height="33">
<path fill-rule="evenodd" clip-rule="evenodd" d="M35.018 427.322C35.018 427.322 65.4118 403.701 66.6149 402.539C67.818 401.377 86.8834 415.085 77.3753 420.929C67.8672 426.773 35.7936 436.551 33.3007 433.969C30.8077 431.388 35.018 427.322 35.018 427.322Z" fill="white"/>
</mask>
<g mask="url(#mask2_22_2868)">
<path d="M57.8204 407.531C57.8204 407.531 56.8868 420.78 69.5866 430.972" stroke="#642B73" stroke-width="3"/>
</g>
<ellipse cx="72.8909" cy="410.906" rx="9.5" ry="5.5" transform="rotate(46 72.8909 410.906)" fill="#642B73" stroke="url(#paint8_linear_22_2868)" stroke-width="2"/>
<path fill-rule="evenodd" clip-rule="evenodd" d="M26.5275 455.105C26.5275 455.105 47.8864 455.677 63.4737 440.807C79.061 425.937 75.2736 426.938 69.7829 418.201C67.624 414.765 63.3851 413.009 60.5841 414.292C54.9559 416.87 48.1703 427.403 42.6653 434.449C34.4205 445.002 24.9707 452.062 24.7596 453.724C24.5486 455.385 26.5275 455.105 26.5275 455.105Z" fill="url(#paint9_linear_22_2868)"/>
<mask id="mask3_22_2868" style="mask-type:luminance" maskUnits="userSpaceOnUse" x="24" y="413" width="51" height="43">
<path fill-rule="evenodd" clip-rule="evenodd" d="M26.5275 455.105C26.5275 455.105 47.8864 455.677 63.4737 440.807C79.061 425.937 75.2736 426.938 69.7829 418.201C67.624 414.765 63.3851 413.009 60.5841 414.292C54.9559 416.87 48.1703 427.403 42.6653 434.449C34.4205 445.002 24.9707 452.062 24.7596 453.724C24.5486 455.385 26.5275 455.105 26.5275 455.105Z" fill="white"/>
</mask>
<g mask="url(#mask3_22_2868)">
<path d="M51.5799 420.032C51.5799 420.032 49.9042 437.734 65.8631 440.733" stroke="#642B73" stroke-width="3"/>
<path d="M45.1447 429.214C45.1447 429.214 43.3082 446.39 58.6356 449.094" stroke="#642B73" stroke-width="3"/>
</g>
<ellipse cx="9.5" cy="6.5" rx="9.5" ry="6.5" transform="matrix(-0.788011 -0.615662 -0.615662 0.788011 77.4158 423.442)" fill="#642B73" stroke="url(#paint10_linear_22_2868)" stroke-width="2"/>
<path fill-rule="evenodd" clip-rule="evenodd" d="M29.7314 446.729C29.7314 446.729 35.8508 408.725 35.9384 407.055C36.0259 405.384 59.3176 402.407 56.3495 413.165C53.3815 423.924 36.5927 452.949 33.0089 452.761C29.4251 452.573 29.7314 446.729 29.7314 446.729Z" fill="url(#paint11_linear_22_2868)"/>
<mask id="mask4_22_2868" style="mask-type:luminance" maskUnits="userSpaceOnUse" x="29" y="405" width="28" height="48">
<path fill-rule="evenodd" clip-rule="evenodd" d="M29.7314 446.729C29.7314 446.729 35.8508 408.725 35.9384 407.055C36.0259 405.384 59.3176 402.407 56.3495 413.165C53.3815 423.924 36.5927 452.949 33.0089 452.761C29.4251 452.573 29.7314 446.729 29.7314 446.729Z" fill="white"/>
</mask>
<g mask="url(#mask4_22_2868)">
<path d="M32.8958 418.179C32.8958 418.179 46.871 426.301 55.2456 420.795" stroke="#642B73" stroke-width="3"/>
<path d="M32.1371 427.939C32.1371 427.939 44.8825 435.895 51.8532 430.778" stroke="#642B73" stroke-width="3"/>
<path d="M27.3741 436.789C27.3741 436.789 40.1196 444.745 47.0902 439.628" stroke="#642B73" stroke-width="3"/>
</g>
<ellipse cx="46.2342" cy="408.893" rx="9.5" ry="5.5" transform="rotate(3 46.2342 408.893)" fill="#642B73" stroke="url(#paint12_linear_22_2868)" stroke-width="2"/>
<ellipse cx="5.01718" cy="318.218" rx="9.98288" ry="4.59035" fill="#D1E5FC"/>
<ellipse cx="26.1772" cy="302.615" rx="9.98288" ry="4.59035" fill="#D1E5FC"/>
<path fill-rule="evenodd" clip-rule="evenodd" d="M16.9982 302.832C17.1321 302.972 17.1273 303.194 16.9874 303.327L13.5597 306.607C13.5012 306.663 13.4041 306.622 13.4041 306.541V299.309C13.4041 299.226 13.5051 299.186 13.5625 299.246L16.9982 302.832Z" fill="#D1E5FC"/>
<ellipse cx="40.8972" cy="323.725" rx="9.98288" ry="4.59035" fill="#D1E5FC"/>
<path fill-rule="evenodd" clip-rule="evenodd" d="M31.7182 323.942C31.8521 324.081 31.8472 324.303 31.7074 324.437L28.2796 327.717C28.2211 327.773 28.124 327.731 28.124 327.65V320.419C28.124 320.336 28.2251 320.295 28.2825 320.355L31.7182 323.942Z" fill="#D1E5FC"/>
<ellipse cx="-3.26285" cy="338.41" rx="9.98288" ry="4.59035" fill="#D1E5FC"/>
<ellipse cx="68.4972" cy="302.615" rx="9.98288" ry="4.59035" fill="#D1E5FC"/>
<path fill-rule="evenodd" clip-rule="evenodd" d="M59.3182 302.832C59.452 302.972 59.4472 303.194 59.3074 303.327L55.8796 306.607C55.8211 306.663 55.724 306.622 55.724 306.541V299.309C55.724 299.226 55.8251 299.186 55.8824 299.246L59.3182 302.832Z" fill="#D1E5FC"/>
<ellipse cx="49.1772" cy="281.505" rx="9.98288" ry="4.59035" fill="#D1E5FC"/>
<path fill-rule="evenodd" clip-rule="evenodd" d="M39.9982 281.722C40.1321 281.862 40.1273 282.084 39.9874 282.218L36.5597 285.498C36.5012 285.554 36.4041 285.512 36.4041 285.431V278.2C36.4041 278.117 36.5051 278.076 36.5625 278.136L39.9982 281.722Z" fill="#D1E5FC"/>
<ellipse cx="74.0172" cy="328.314" rx="9.98288" ry="4.59035" fill="#D1E5FC"/>
<path fill-rule="evenodd" clip-rule="evenodd" d="M64.8382 328.531C64.9721 328.67 64.9672 328.892 64.8274 329.026L61.3996 332.306C61.3411 332.362 61.244 332.321 61.244 332.24V325.008C61.244 324.925 61.3451 324.884 61.4025 324.944L64.8382 328.531Z" fill="#D1E5FC"/>
<path fill-rule="evenodd" clip-rule="evenodd" d="M6.52736 357.812C6.153 361.003 5.77864 364.194 5.405 367.385C5.23276 368.852 5.04784 370.36 4.33406 371.652C2.39919 375.16 -2.32905 375.639 -5.9179 377.418C-11.5662 380.216 -14.664 387.33 -12.867 393.37C-12.2459 395.457 -11.1067 397.484 -11.2773 399.654C-11.4834 402.288 -13.5768 404.386 -15.8039 405.807C-18.0309 407.227 -20.5424 408.252 -22.4723 410.055C-25.3381 412.73 -26.513 416.717 -27.4162 420.531C-28.9352 426.951 -29.954 434.004 -26.9993 439.903C-24.7869 444.318 -20.5784 447.474 -16.0287 449.396C-11.4789 451.317 -6.55358 452.138 -1.68069 452.945C1.78716 453.519 5.2543 454.093 8.72071 454.667C12.8482 455.35 17.0699 456.034 21.193 455.323C26.3319 454.435 31.0604 451.27 33.7253 446.788C36.3893 442.307 36.8988 436.577 34.9448 431.743C33.8967 429.149 32.207 426.864 31.0314 424.326C29.8544 421.788 29.2254 418.763 30.4029 416.225C31.0444 414.841 32.1589 413.741 33.0493 412.502C36.7397 407.366 35.9906 399.544 31.3924 395.2C30.1906 394.064 28.7699 393.149 27.7347 391.858C25.38 388.921 25.5192 384.671 26.6197 381.071C27.7195 377.472 29.6418 374.15 30.5614 370.501C32.5625 362.553 28.8856 353.956 22.4512 349.128C14.1449 342.897 7.62381 348.458 6.52736 357.812Z" fill="url(#paint13_linear_22_2868)"/>
<path d="M16.7393 355.288C16.5771 361.232 17.0722 367.233 16.2529 373.12C12.9325 396.975 -6.24074 419.484 -1.44726 444.485" stroke="white"/>
<path fill-rule="evenodd" clip-rule="evenodd" d="M-98.3474 499.505C-73.1971 489.462 -49.8939 473.843 -24.9313 463.17C93.4623 412.541 225.892 479.477 350.262 455.889C449.327 437.106 536.102 362.163 635.481 345.813C687.34 337.279 816.373 323.383 868.7 321.11C921.029 318.84 859.907 635.004 859.513 818.805C769.299 807.896 402.693 818.805 309 818.805C-65.6013 818.805 -28.84 818.805 -379.33 818.805C-386.628 818.805 -374.521 721.57 -379.33 715.426C-384.01 709.448 -384.397 700.524 -384.41 692.4C-384.539 613.966 -384.892 643.714 -384.41 569C-384.01 507 -384.01 479.477 -384.41 454.063C-384.657 438.353 -377.702 455.708 -343.177 470.541C-264.579 504.306 -177.576 531.152 -98.3474 499.505Z" fill="url(#paint14_linear_22_2868)"/>
<path fill-rule="evenodd" clip-rule="evenodd" d="M333.701 501.84C335.496 500.928 337.448 499.321 337.039 497.367C336.713 495.812 334.916 494.924 333.317 495.043C331.719 495.161 328.781 495.895 328.781 495.895C328.781 495.895 331.543 494.416 331.933 492.72C332.334 490.982 330.098 489.583 328.354 490.023C326.611 490.463 324.184 492.455 324.184 492.455C324.184 492.455 325.667 488.549 325.23 486.197C325.067 485.319 322.218 483.181 321.067 485.436C320.038 487.454 319.53 491.168 319.53 491.168C319.53 491.168 317.657 487.425 316.127 485.19C315.644 484.484 313.954 483.932 313.094 483.98C312.014 484.041 311.51 485.348 311.462 486.419C311.335 489.219 314.597 492.893 314.597 492.893C314.597 492.893 308.558 488.297 306.467 489.484C305.814 489.855 305.488 490.731 305.592 491.541C305.951 494.309 310.065 497.214 310.065 497.214C310.065 497.214 307.776 496.95 306.635 496.147C305.492 495.344 303.446 495.237 303.097 496.582C302.936 497.203 303.25 497.838 303.591 498.382C303.591 498.382 307.289 506.499 320.044 505.259C324.755 504.801 329.486 503.982 333.701 501.84Z" fill="url(#paint15_linear_22_2868)"/>
<path fill-rule="evenodd" clip-rule="evenodd" d="M76.797 496.344C79.622 494.799 81.805 491.962 81.396 489.03C81.029 486.411 78.783 484.359 76.66 482.519C74.08 480.282 71.428 478 68.144 476.685C62.835 474.56 56.388 475.329 51.439 478.062C50.9114 478.353 50.3776 478.72 49.845 479.143C43.1604 484.452 43.7394 496.862 52.059 498.773C57.018 499.913 62.249 499.439 67.32 498.805C70.603 498.394 73.971 497.889 76.797 496.344Z" fill="#20406A"/>
<path fill-rule="evenodd" clip-rule="evenodd" d="M198.078 488.244C196.893 487.806 195.662 487.983 194.615 488.565L194.141 488.694C192.816 489.056 192.149 490.152 192.012 491.432C191.914 492.349 192.428 493.075 193.001 493.73C193.579 494.878 194.655 495.714 195.936 496.011C198.073 496.506 200.291 495.378 200.891 493.198C201.511 490.944 200.135 489.004 198.078 488.244Z" fill="#20406A"/>
<path fill-rule="evenodd" clip-rule="evenodd" d="M105.963 487.882C107.148 488.32 108.379 488.143 109.426 487.561L109.9 487.432C111.225 487.07 111.892 485.974 112.029 484.694C112.127 483.777 111.613 483.051 111.04 482.396C110.462 481.248 109.386 480.412 108.105 480.115C105.968 479.62 103.75 480.748 103.15 482.928C102.53 485.182 103.906 487.122 105.963 487.882Z" fill="#20406A"/>
<path fill-rule="evenodd" clip-rule="evenodd" d="M35.9628 532.882C37.1478 533.32 38.3788 533.143 39.4258 532.561L39.8998 532.432C41.2248 532.07 41.8918 530.974 42.0288 529.694C42.1268 528.777 41.6128 528.051 41.0398 527.396C40.4618 526.248 39.3858 525.412 38.1048 525.115C35.9678 524.62 33.7498 525.748 33.1498 527.928C32.5298 530.182 33.9058 532.122 35.9628 532.882Z" fill="#20406A"/>
<ellipse cx="3.82353" cy="3.81481" rx="3.82353" ry="3.81481" transform="matrix(-1 0 0 1 155.427 124.037)" fill="#D3E7FF"/>
<ellipse cx="3.82353" cy="3.81481" rx="3.82353" ry="3.81481" transform="matrix(-1 0 0 1 183.147 70.6296)" fill="#D3E7FF"/>
<ellipse cx="3.82353" cy="3.81481" rx="3.82353" ry="3.81481" transform="matrix(-1 0 0 1 207.044 114.5)" fill="#D3E7FF"/>
<ellipse cx="1.91176" cy="1.90741" rx="1.91176" ry="1.90741" transform="matrix(-1 0 0 1 177.412 63)" fill="#D3E7FF"/>
<ellipse cx="1.91176" cy="1.90741" rx="1.91176" ry="1.90741" transform="matrix(-1 0 0 1 182.191 83.0278)" fill="#D3E7FF"/>
<ellipse cx="1.91176" cy="1.90741" rx="1.91176" ry="1.90741" transform="matrix(-1 0 0 1 142.044 130.713)" fill="#D3E7FF"/>
<ellipse cx="1.91176" cy="1.90741" rx="1.91176" ry="1.90741" transform="matrix(-1 0 0 1 208 142.157)" fill="#D3E7FF"/>
<ellipse cx="1.91176" cy="1.90741" rx="1.91176" ry="1.90741" transform="matrix(-1 0 0 1 174.544 83.9814)" fill="#D3E7FF"/>
<ellipse cx="1.91176" cy="1.90741" rx="1.91176" ry="1.90741" transform="matrix(-1 0 0 1 180.279 89.7037)" fill="#D3E7FF"/>
<ellipse cx="1.91176" cy="1.90741" rx="1.91176" ry="1.90741" transform="matrix(-1 0 0 1 145.868 119.269)" fill="#D3E7FF"/>
<ellipse cx="1.91176" cy="1.90741" rx="1.91176" ry="1.90741" transform="matrix(-1 0 0 1 199.823 147)" fill="#D3E7FF"/>
<ellipse cx="1.91176" cy="1.90741" rx="1.91176" ry="1.90741" transform="matrix(-1 0 0 1 203.221 131.667)" fill="#D3E7FF"/>
<ellipse cx="1.91176" cy="1.90741" rx="1.91176" ry="1.90741" transform="matrix(-1 0 0 1 135.353 123.083)" fill="#D3E7FF"/>
<path fill-rule="evenodd" clip-rule="evenodd" d="M135.664 102.666L135.514 106.687C135.514 106.687 135.352 109.531 139.36 109.885C143.369 110.239 149.945 109.606 151.016 108.719C152.088 107.831 135.664 102.666 135.664 102.666Z" fill="url(#paint16_linear_22_2868)"/>
<path fill-rule="evenodd" clip-rule="evenodd" d="M135.664 92.2184L135.514 88.1968C135.514 88.1968 135.352 85.353 139.36 84.999C143.369 84.645 149.945 85.2782 151.016 86.1657C152.088 87.0533 135.664 92.2184 135.664 92.2184Z" fill="url(#paint17_linear_22_2868)"/>
<path fill-rule="evenodd" clip-rule="evenodd" d="M131.075 96.8017C131.075 96.8017 136.056 91.917 137.825 89.7072C139.593 87.4974 145.903 85.5601 152.535 86.1413C159.167 86.7225 160.475 87.541 163.42 89.7072C166.366 91.8734 165.554 91.4498 170.64 94.1258C175.727 96.8017 174.574 99.6266 173.982 100.317C173.391 101.007 168.308 105.401 158.487 107.781C148.667 110.161 141.293 111.116 135.223 103.959C132.937 101.369 131.561 100.765 130.889 99.0524C130.218 97.3394 131.075 96.8017 131.075 96.8017Z" fill="url(#paint18_linear_22_2868)"/>
<mask id="mask5_22_2868" style="mask-type:luminance" maskUnits="userSpaceOnUse" x="130" y="86" width="45" height="24">
<path fill-rule="evenodd" clip-rule="evenodd" d="M131.075 96.8017C131.075 96.8017 136.056 91.917 137.825 89.7072C139.593 87.4974 145.903 85.5601 152.535 86.1413C159.167 86.7225 160.475 87.541 163.42 89.7072C166.366 91.8734 165.554 91.4498 170.64 94.1258C175.727 96.8017 174.574 99.6266 173.982 100.317C173.391 101.007 168.308 105.401 158.487 107.781C148.667 110.161 141.293 111.116 135.223 103.959C132.937 101.369 131.561 100.765 130.889 99.0524C130.218 97.3394 131.075 96.8017 131.075 96.8017Z" fill="white"/>
</mask>
<g mask="url(#mask5_22_2868)">
<path d="M131.285 95.3117C131.285 95.3117 145.842 96.3873 161.111 86.2703" stroke="#2CACFF" stroke-width="3.42993"/>
<path d="M132.419 103.323C132.419 103.323 162.139 99.3462 169.416 90.9172" stroke="#2C9CFF" stroke-width="3.42993"/>
<path d="M139.221 108.976C139.221 108.976 162.769 106.145 175.5 95.6025" stroke="#2089EF" stroke-width="3.42993"/>
</g>
<ellipse cx="161.895" cy="91.9926" rx="1.13372" ry="1.14444" fill="#1A8DE1"/>
<path fill-rule="evenodd" clip-rule="evenodd" d="M133.338 94.9314C133.338 94.9314 130.078 86.3617 128.719 85.375C127.36 84.3883 126.751 83.5648 126.751 88.6058C126.751 93.6468 126.751 109.351 126.751 109.351C126.751 109.351 126.699 113.733 128.719 111.129C130.74 108.524 133.338 102.556 133.338 101.614C133.338 100.671 133.338 94.9314 133.338 94.9314Z" fill="url(#paint19_linear_22_2868)"/>
<path fill-rule="evenodd" clip-rule="evenodd" d="M154.781 156.073L154.632 160.095C154.632 160.095 154.47 162.939 158.478 163.293C162.487 163.647 169.062 163.014 170.134 162.126C171.206 161.238 154.781 156.073 154.781 156.073Z" fill="url(#paint20_linear_22_2868)"/>
<path fill-rule="evenodd" clip-rule="evenodd" d="M154.781 145.626L154.632 141.604C154.632 141.604 154.47 138.76 158.478 138.406C162.487 138.052 169.062 138.686 170.134 139.573C171.206 140.461 154.781 145.626 154.781 145.626Z" fill="url(#paint21_linear_22_2868)"/>
<path fill-rule="evenodd" clip-rule="evenodd" d="M150.192 150.209C150.192 150.209 155.174 145.324 156.942 143.115C158.711 140.905 165.02 138.968 171.653 139.549C178.285 140.13 179.593 140.948 182.538 143.115C185.483 145.281 184.672 144.857 189.758 147.533C194.844 150.209 193.692 153.034 193.1 153.724C192.508 154.415 187.426 158.809 177.605 161.189C167.784 163.569 160.411 164.523 154.341 157.366C152.055 154.776 150.679 154.173 150.007 152.46C149.336 150.747 150.192 150.209 150.192 150.209Z" fill="url(#paint22_linear_22_2868)"/>
<mask id="mask6_22_2868" style="mask-type:luminance" maskUnits="userSpaceOnUse" x="149" y="139" width="45" height="24">
<path fill-rule="evenodd" clip-rule="evenodd" d="M150.192 150.209C150.192 150.209 155.174 145.324 156.942 143.115C158.711 140.905 165.02 138.968 171.653 139.549C178.285 140.13 179.593 140.948 182.538 143.115C185.483 145.281 184.672 144.857 189.758 147.533C194.844 150.209 193.692 153.034 193.1 153.724C192.508 154.415 187.426 158.809 177.605 161.189C167.784 163.569 160.411 164.523 154.341 157.366C152.055 154.776 150.679 154.173 150.007 152.46C149.336 150.747 150.192 150.209 150.192 150.209Z" fill="white"/>
</mask>
<g mask="url(#mask6_22_2868)">
<path d="M150.403 148.719C150.403 148.719 164.96 149.795 180.229 139.678" stroke="#2CACFF" stroke-width="3.42993"/>
<path d="M151.536 156.73C151.536 156.73 181.256 152.754 188.534 144.325" stroke="#2C9CFF" stroke-width="3.42993"/>
<path d="M158.339 162.383C158.339 162.383 181.887 159.552 194.618 149.01" stroke="#2089EF" stroke-width="3.42993"/>
</g>
<ellipse cx="181.013" cy="145.4" rx="1.13372" ry="1.14444" fill="#1A8DE1"/>
<path fill-rule="evenodd" clip-rule="evenodd" d="M152.456 148.339C152.456 148.339 149.196 139.769 147.837 138.782C146.478 137.796 145.869 136.972 145.869 142.013C145.869 147.054 145.869 162.759 145.869 162.759C145.869 162.759 145.817 167.141 147.837 164.536C149.857 161.932 152.456 155.964 152.456 155.021C152.456 154.078 152.456 148.339 152.456 148.339Z" fill="url(#paint23_linear_22_2868)"/>
<path fill-rule="evenodd" clip-rule="evenodd" d="M88.8362 142.644L88.6543 147.469C88.6543 147.469 88.4572 150.882 93.3303 151.307C98.2034 151.732 106.198 150.972 107.5 149.907C108.803 148.842 88.8362 142.644 88.8362 142.644Z" fill="url(#paint24_linear_22_2868)"/>
<path fill-rule="evenodd" clip-rule="evenodd" d="M88.8362 130.107L88.6543 125.281C88.6543 125.281 88.4572 121.868 93.3303 121.443C98.2034 121.019 106.198 121.778 107.5 122.843C108.803 123.909 88.8362 130.107 88.8362 130.107Z" fill="url(#paint25_linear_22_2868)"/>
<path fill-rule="evenodd" clip-rule="evenodd" d="M83.2574 135.607C83.2574 135.607 89.3133 129.745 91.4632 127.093C93.6131 124.441 101.284 122.117 109.346 122.814C117.409 123.512 118.999 124.494 122.58 127.093C126.16 129.693 125.173 129.184 131.357 132.395C137.54 135.607 136.139 138.996 135.42 139.825C134.7 140.653 128.522 145.926 116.583 148.782C104.644 151.638 95.6797 152.784 88.3008 144.195C85.5219 141.087 83.8484 140.363 83.0321 138.308C82.2158 136.252 83.2574 135.607 83.2574 135.607Z" fill="url(#paint26_linear_22_2868)"/>
<mask id="mask7_22_2868" style="mask-type:luminance" maskUnits="userSpaceOnUse" x="82" y="122" width="55" height="29">
<path fill-rule="evenodd" clip-rule="evenodd" d="M83.2574 135.607C83.2574 135.607 89.3133 129.745 91.4632 127.093C93.6131 124.441 101.284 122.117 109.346 122.814C117.409 123.512 118.999 124.494 122.58 127.093C126.16 129.693 125.173 129.184 131.357 132.395C137.54 135.607 136.139 138.996 135.42 139.825C134.7 140.653 128.522 145.926 116.583 148.782C104.644 151.638 95.6797 152.784 88.3008 144.195C85.5219 141.087 83.8484 140.363 83.0321 138.308C82.2158 136.252 83.2574 135.607 83.2574 135.607Z" fill="white"/>
</mask>
<g mask="url(#mask7_22_2868)">
<path d="M83.5129 133.819C83.5129 133.819 101.21 135.109 119.772 122.969" stroke="#F52A2A" stroke-width="4.11592"/>
<path d="M84.8912 143.432C84.8912 143.432 121.022 138.66 129.868 128.545" stroke="#EE0979" stroke-width="4.11592"/>
<path d="M93.1608 150.216C93.1608 150.216 121.788 146.818 137.265 134.168" stroke="#DB076F" stroke-width="4.11592"/>
</g>
<ellipse cx="120.726" cy="129.836" rx="1.37825" ry="1.37333" fill="#EE0909"/>
<path fill-rule="evenodd" clip-rule="evenodd" d="M86.0091 133.362C86.0091 133.362 82.0463 123.079 80.3941 121.895C78.7419 120.71 78.0016 119.722 78.0016 125.772C78.0016 131.821 78.0016 150.666 78.0016 150.666C78.0016 150.666 77.938 155.925 80.3941 152.799C82.8502 149.674 86.0091 142.512 86.0091 141.381C86.0091 140.25 86.0091 133.362 86.0091 133.362Z" fill="url(#paint27_linear_22_2868)"/>
<circle cx="370" cy="172" r="2" fill="#D3E7FF"/>
<circle cx="360" cy="179" r="2" fill="#D3E7FF"/>
<circle cx="354" cy="223" r="2" fill="#D3E7FF"/>
<circle cx="365" cy="161" r="2" fill="#D3E7FF"/>
<path fill-rule="evenodd" clip-rule="evenodd" d="M321.091 187.688L321.355 193.454C321.355 193.454 321.467 197.538 326.829 197.538C332.19 197.538 340.846 195.803 342.166 194.4C343.486 192.996 321.091 187.688 321.091 187.688Z" fill="url(#paint28_linear_22_2868)"/>
<path fill-rule="evenodd" clip-rule="evenodd" d="M321.355 179.476C321.355 179.476 321.355 172.452 321.355 171.095C321.355 169.738 321.355 167 324.63 167C327.904 167 339.543 167.531 345.034 172.208C350.525 176.885 326.896 177.727 326.896 177.727L321.355 179.476Z" fill="url(#paint29_linear_22_2868)"/>
<path fill-rule="evenodd" clip-rule="evenodd" d="M317.815 182.202C317.815 182.202 322.208 177.934 323.768 176.003C325.328 174.072 330.894 169.267 336.744 169.775C342.594 170.283 343.747 170.998 346.345 172.891C348.943 174.784 348.227 177.526 352.713 179.864C357.2 182.202 356.183 184.67 355.661 185.274C355.139 185.877 350.656 192.768 341.994 194.848C333.332 196.927 326.828 194.71 321.474 188.456C319.458 186.193 318.243 185.666 317.651 184.169C317.059 182.672 317.815 182.202 317.815 182.202Z" fill="url(#paint30_linear_22_2868)"/>
<mask id="mask8_22_2868" style="mask-type:luminance" maskUnits="userSpaceOnUse" x="317" y="169" width="40" height="27">
<path fill-rule="evenodd" clip-rule="evenodd" d="M317.815 182.202C317.815 182.202 322.208 177.934 323.768 176.003C325.328 174.072 330.894 169.267 336.744 169.775C342.594 170.283 343.747 170.998 346.345 172.891C348.943 174.784 348.227 177.526 352.713 179.864C357.2 182.202 356.183 184.67 355.661 185.274C355.139 185.877 350.656 192.768 341.994 194.848C333.332 196.927 326.828 194.71 321.474 188.456C319.458 186.193 318.243 185.666 317.651 184.169C317.059 182.672 317.815 182.202 317.815 182.202Z" fill="white"/>
</mask>
<g mask="url(#mask8_22_2868)">
<path opacity="0.7" d="M328.5 194.5C328.5 194.5 334.186 187.447 333.712 182.672C333.239 177.897 332.126 172.828 328.5 168.1" stroke="url(#paint31_linear_22_2868)" stroke-width="3"/>
<path opacity="0.8" d="M321 194.5C321 194.5 326.686 187.447 326.212 182.672C325.739 177.897 324.626 172.828 321 168.1" stroke="url(#paint32_linear_22_2868)" stroke-width="3"/>
<path opacity="0.5" d="M334 198C334 198 341.854 187.447 341.38 182.672C340.907 177.897 339.794 172.828 336.168 168.1" stroke="url(#paint33_linear_22_2868)" stroke-width="3"/>
<path opacity="0.3" d="M341 198C341 198 348.854 187.447 348.38 182.672C347.907 177.897 346.794 172.828 343.168 168.1" stroke="url(#paint34_linear_22_2868)" stroke-width="3"/>
</g>
<circle cx="347" cy="180" r="1" fill="#C26D20"/>
<path fill-rule="evenodd" clip-rule="evenodd" d="M319.811 181.365C319.811 181.365 316.936 177.717 315.737 177.236C314.538 176.754 314.001 176.353 314.001 178.811C314.001 181.268 314.001 188.925 314.001 188.925C314.001 188.925 313.955 191.062 315.737 189.792C317.519 188.522 319.811 186.406 319.811 185.946C319.811 185.487 319.811 181.365 319.811 181.365Z" fill="url(#paint35_linear_22_2868)"/>
<path fill-rule="evenodd" clip-rule="evenodd" d="M326.442 236.016L326.645 240.48C326.645 240.48 326.731 243.642 330.845 243.642C334.96 243.642 341.603 242.299 342.616 241.213C343.629 240.126 326.442 236.016 326.442 236.016Z" fill="url(#paint36_linear_22_2868)"/>
<path fill-rule="evenodd" clip-rule="evenodd" d="M326.645 229.659C326.645 229.659 326.645 224.221 326.645 223.17C326.645 222.12 326.645 220 329.158 220C331.671 220 340.603 220.411 344.817 224.032C349.031 227.653 330.897 228.305 330.897 228.305L326.645 229.659Z" fill="url(#paint37_linear_22_2868)"/>
<path fill-rule="evenodd" clip-rule="evenodd" d="M323.927 231.769C323.927 231.769 327.3 228.465 328.497 226.97C329.694 225.475 333.965 221.755 338.454 222.149C342.944 222.542 343.829 223.095 345.823 224.561C347.817 226.026 347.267 228.149 350.71 229.959C354.153 231.769 353.373 233.68 352.973 234.147C352.572 234.614 349.132 239.95 342.484 241.56C335.836 243.169 330.844 241.453 326.736 236.611C325.188 234.859 324.257 234.451 323.802 233.292C323.347 232.133 323.927 231.769 323.927 231.769Z" fill="url(#paint38_linear_22_2868)"/>
<mask id="mask9_22_2868" style="mask-type:luminance" maskUnits="userSpaceOnUse" x="323" y="222" width="31" height="21">
<path fill-rule="evenodd" clip-rule="evenodd" d="M323.927 231.769C323.927 231.769 327.3 228.465 328.497 226.97C329.694 225.475 333.965 221.755 338.454 222.149C342.944 222.542 343.829 223.095 345.823 224.561C347.817 226.026 347.267 228.149 350.71 229.959C354.153 231.769 353.373 233.68 352.973 234.147C352.572 234.614 349.132 239.95 342.484 241.56C335.836 243.169 330.844 241.453 326.736 236.611C325.188 234.859 324.257 234.451 323.802 233.292C323.347 232.133 323.927 231.769 323.927 231.769Z" fill="white"/>
</mask>
<g mask="url(#mask9_22_2868)">
<path opacity="0.7" d="M332.128 241.29C332.128 241.29 336.492 235.83 336.128 232.133C335.765 228.436 334.911 224.512 332.128 220.851" stroke="url(#paint39_linear_22_2868)" stroke-width="2.30233"/>
<path opacity="0.8" d="M326.372 241.29C326.372 241.29 330.736 235.83 330.372 232.133C330.009 228.436 329.155 224.512 326.372 220.851" stroke="url(#paint40_linear_22_2868)" stroke-width="2.30233"/>
<path opacity="0.5" d="M336.349 244C336.349 244 342.376 235.83 342.013 232.133C341.649 228.436 340.796 224.512 338.013 220.851" stroke="url(#paint41_linear_22_2868)" stroke-width="2.30233"/>
<path opacity="0.3" d="M341.721 244C341.721 244 347.748 235.83 347.385 232.133C347.021 228.436 346.168 224.512 343.385 220.851" stroke="url(#paint42_linear_22_2868)" stroke-width="2.30233"/>
</g>
<path fill-rule="evenodd" clip-rule="evenodd" d="M325.46 231.121C325.46 231.121 323.253 228.297 322.333 227.924C321.413 227.552 321.001 227.241 321.001 229.144C321.001 231.047 321.001 236.974 321.001 236.974C321.001 236.974 320.966 238.628 322.333 237.645C323.701 236.662 325.46 235.024 325.46 234.668C325.46 234.312 325.46 231.121 325.46 231.121Z" fill="url(#paint43_linear_22_2868)"/>
<ellipse cx="346.326" cy="230.064" rx="0.767442" ry="0.774194" fill="#C26D20"/>
<path fill-rule="evenodd" clip-rule="evenodd" d="M365.74 141.359L366.066 148.427C366.066 148.427 366.204 153.433 372.812 153.433C379.42 153.433 390.089 151.307 391.716 149.587C393.344 147.866 365.74 141.359 365.74 141.359Z" fill="url(#paint44_linear_22_2868)"/>
<path fill-rule="evenodd" clip-rule="evenodd" d="M366.066 131.293C366.066 131.293 366.066 122.683 366.066 121.02C366.066 119.356 368.023 116 373.451 116C378.879 116 388.484 116.651 395.251 122.384C402.019 128.117 372.896 129.149 372.896 129.149L366.066 131.293Z" fill="url(#paint45_linear_22_2868)"/>
<path fill-rule="evenodd" clip-rule="evenodd" d="M361.702 134.635C361.702 134.635 367.117 129.403 369.04 127.036C370.963 124.669 377.822 118.779 385.033 119.402C392.243 120.024 393.665 120.901 396.867 123.221C400.069 125.541 399.187 128.903 404.717 131.769C410.246 134.635 408.993 137.661 408.35 138.4C407.707 139.139 402.181 147.587 391.504 150.136C380.827 152.685 372.811 149.967 366.212 142.301C363.727 139.527 362.23 138.881 361.5 137.046C360.77 135.211 361.702 134.635 361.702 134.635Z" fill="url(#paint46_linear_22_2868)"/>
<mask id="mask10_22_2868" style="mask-type:luminance" maskUnits="userSpaceOnUse" x="361" y="119" width="48" height="33">
<path fill-rule="evenodd" clip-rule="evenodd" d="M361.702 134.635C361.702 134.635 367.117 129.403 369.04 127.036C370.963 124.669 377.822 118.779 385.033 119.402C392.243 120.024 393.665 120.901 396.867 123.221C400.069 125.541 399.187 128.903 404.717 131.769C410.246 134.635 408.993 137.661 408.35 138.4C407.707 139.139 402.181 147.587 391.504 150.136C380.827 152.685 372.811 149.967 366.212 142.301C363.727 139.527 362.23 138.881 361.5 137.046C360.77 135.211 361.702 134.635 361.702 134.635Z" fill="white"/>
</mask>
<g mask="url(#mask10_22_2868)">
<path opacity="0.7" d="M374.872 149.71C374.872 149.71 381.88 141.064 381.297 135.211C380.713 129.357 379.342 123.144 374.872 117.348" stroke="url(#paint47_linear_22_2868)" stroke-width="3.69767"/>
<path opacity="0.8" d="M365.628 149.71C365.628 149.71 372.636 141.064 372.052 135.211C371.469 129.357 370.098 123.144 365.628 117.348" stroke="url(#paint48_linear_22_2868)" stroke-width="3.69767"/>
</g>
<path fill-rule="evenodd" clip-rule="evenodd" d="M364.163 133.608C364.163 133.608 360.619 129.137 359.141 128.547C357.664 127.957 357.001 127.465 357.001 130.478C357.001 133.49 357.001 142.876 357.001 142.876C357.001 142.876 356.945 145.495 359.141 143.938C361.338 142.382 364.163 139.788 364.163 139.225C364.163 138.661 364.163 133.608 364.163 133.608Z" fill="url(#paint49_linear_22_2868)"/>
</g>
<defs>
<linearGradient id="paint0_linear_22_2868" x1="319.635" y1="455.707" x2="339.398" y2="315.089" gradientUnits="userSpaceOnUse">
<stop stop-color="#4395FF"/>
<stop offset="1" stop-color="#53C5FF"/>
</linearGradient>
<linearGradient id="paint1_linear_22_2868" x1="28.7759" y1="361.414" x2="25.4207" y2="425.435" gradientUnits="userSpaceOnUse">
<stop stop-color="#C6426E"/>
<stop offset="1" stop-color="#642B73"/>
</linearGradient>
<linearGradient id="paint2_linear_22_2868" x1="29.3099" y1="360.823" x2="29.3099" y2="368.366" gradientUnits="userSpaceOnUse">
<stop stop-color="#C6426E"/>
<stop offset="1" stop-color="#642B73"/>
</linearGradient>
<linearGradient id="paint3_linear_22_2868" x1="60.1331" y1="390.966" x2="41.4876" y2="421.997" gradientUnits="userSpaceOnUse">
<stop stop-color="#C6426E"/>
<stop offset="1" stop-color="#642B73"/>
</linearGradient>
<linearGradient id="paint4_linear_22_2868" x1="2.335" y1="0" x2="2.335" y2="8.29632" gradientUnits="userSpaceOnUse">
<stop stop-color="#C6426E"/>
<stop offset="1" stop-color="#642B73"/>
</linearGradient>
<linearGradient id="paint5_linear_22_2868" x1="67.3949" y1="376.472" x2="34.3769" y2="431.423" gradientUnits="userSpaceOnUse">
<stop stop-color="#C6426E"/>
<stop offset="1" stop-color="#642B73"/>
</linearGradient>
<linearGradient id="paint6_linear_22_2868" x1="64.9578" y1="378.98" x2="64.9578" y2="386.522" gradientUnits="userSpaceOnUse">
<stop stop-color="#C6426E"/>
<stop offset="1" stop-color="#642B73"/>
</linearGradient>
<linearGradient id="paint7_linear_22_2868" x1="67.4703" y1="400.254" x2="41.4287" y2="425.402" gradientUnits="userSpaceOnUse">
<stop stop-color="#C6426E"/>
<stop offset="1" stop-color="#642B73"/>
</linearGradient>
<linearGradient id="paint8_linear_22_2868" x1="65.7259" y1="405.406" x2="65.7259" y2="413.702" gradientUnits="userSpaceOnUse">
<stop stop-color="#C6426E"/>
<stop offset="1" stop-color="#642B73"/>
</linearGradient>
<linearGradient id="paint9_linear_22_2868" x1="75.8795" y1="422.242" x2="49.4122" y2="456.118" gradientUnits="userSpaceOnUse">
<stop stop-color="#C6426E"/>
<stop offset="1" stop-color="#642B73"/>
</linearGradient>
<linearGradient id="paint10_linear_22_2868" x1="2.335" y1="0" x2="2.335" y2="9.80474" gradientUnits="userSpaceOnUse">
<stop stop-color="#C6426E"/>
<stop offset="1" stop-color="#642B73"/>
</linearGradient>
<linearGradient id="paint11_linear_22_2868" x1="35.0054" y1="404.8" x2="33.1107" y2="440.952" gradientUnits="userSpaceOnUse">
<stop stop-color="#C6426E"/>
<stop offset="1" stop-color="#642B73"/>
</linearGradient>
<linearGradient id="paint12_linear_22_2868" x1="39.0692" y1="403.393" x2="39.0692" y2="411.69" gradientUnits="userSpaceOnUse">
<stop stop-color="#C6426E"/>
<stop offset="1" stop-color="#642B73"/>
</linearGradient>
<linearGradient id="paint13_linear_22_2868" x1="4.44964" y1="500.435" x2="85.7901" y2="474.94" gradientUnits="userSpaceOnUse">
<stop stop-color="#FFEB3F"/>
<stop offset="1" stop-color="#F18C35"/>
</linearGradient>
<linearGradient id="paint14_linear_22_2868" x1="252.606" y1="321.097" x2="252.606" y2="818.805" gradientUnits="userSpaceOnUse">
<stop stop-color="#295185"/>
<stop offset="1" stop-color="#416184"/>
</linearGradient>
<linearGradient id="paint15_linear_22_2868" x1="300.832" y1="484.6" x2="302.284" y2="507.849" gradientUnits="userSpaceOnUse">
<stop stop-color="#4FDCFF"/>
<stop offset="1" stop-color="#2285FF"/>
</linearGradient>
<linearGradient id="paint16_linear_22_2868" x1="135.46" y1="104.988" x2="134.851" y2="109.278" gradientUnits="userSpaceOnUse">
<stop stop-color="#2285FF"/>
<stop offset="1" stop-color="#4FDCFF"/>
</linearGradient>
<linearGradient id="paint17_linear_22_2868" x1="135.46" y1="89.8967" x2="134.851" y2="85.6065" gradientUnits="userSpaceOnUse">
<stop stop-color="#2285FF"/>
<stop offset="1" stop-color="#4FDCFF"/>
</linearGradient>
<linearGradient id="paint18_linear_22_2868" x1="132.456" y1="86.9565" x2="133.444" y2="108.571" gradientUnits="userSpaceOnUse">
<stop stop-color="#4FDCFF"/>
<stop offset="1" stop-color="#2285FF"/>
</linearGradient>
<linearGradient id="paint19_linear_22_2868" x1="126.75" y1="109.092" x2="132.83" y2="109.092" gradientUnits="userSpaceOnUse">
<stop stop-color="#4FDCFF"/>
<stop offset="1" stop-color="#2285FF"/>
</linearGradient>
<linearGradient id="paint20_linear_22_2868" x1="154.578" y1="158.395" x2="153.969" y2="162.685" gradientUnits="userSpaceOnUse">
<stop stop-color="#2285FF"/>
<stop offset="1" stop-color="#4FDCFF"/>
</linearGradient>
<linearGradient id="paint21_linear_22_2868" x1="154.578" y1="143.304" x2="153.969" y2="139.014" gradientUnits="userSpaceOnUse">
<stop stop-color="#2285FF"/>
<stop offset="1" stop-color="#4FDCFF"/>
</linearGradient>
<linearGradient id="paint22_linear_22_2868" x1="151.573" y1="140.364" x2="152.562" y2="161.979" gradientUnits="userSpaceOnUse">
<stop stop-color="#4FDCFF"/>
<stop offset="1" stop-color="#2285FF"/>
</linearGradient>
<linearGradient id="paint23_linear_22_2868" x1="145.868" y1="162.5" x2="151.948" y2="162.5" gradientUnits="userSpaceOnUse">
<stop stop-color="#4FDCFF"/>
<stop offset="1" stop-color="#2285FF"/>
</linearGradient>
<linearGradient id="paint24_linear_22_2868" x1="88.5919" y1="145.428" x2="87.8651" y2="150.574" gradientUnits="userSpaceOnUse">
<stop stop-color="#EE0909"/>
<stop offset="1" stop-color="#FF6A00"/>
</linearGradient>
<linearGradient id="paint25_linear_22_2868" x1="88.5919" y1="127.322" x2="87.8651" y2="122.177" gradientUnits="userSpaceOnUse">
<stop stop-color="#EE0909"/>
<stop offset="1" stop-color="#FF6A00"/>
</linearGradient>
<linearGradient id="paint26_linear_22_2868" x1="84.9362" y1="123.792" x2="86.1072" y2="149.732" gradientUnits="userSpaceOnUse">
<stop stop-color="#FF6A00"/>
<stop offset="1" stop-color="#EE0979"/>
</linearGradient>
<linearGradient id="paint27_linear_22_2868" x1="78" y1="150.355" x2="85.3915" y2="150.355" gradientUnits="userSpaceOnUse">
<stop stop-color="#FF6A00"/>
<stop offset="1" stop-color="#EE0909"/>
</linearGradient>
<linearGradient id="paint28_linear_22_2868" x1="333.69" y1="202.015" x2="334.954" y2="191.751" gradientUnits="userSpaceOnUse">
<stop stop-color="#FAD961"/>
<stop offset="1" stop-color="#F76B1C"/>
</linearGradient>
<linearGradient id="paint29_linear_22_2868" x1="315.758" y1="168.091" x2="316.93" y2="175.958" gradientUnits="userSpaceOnUse">
<stop stop-color="#FAD961"/>
<stop offset="1" stop-color="#F76B1C"/>
</linearGradient>
<linearGradient id="paint30_linear_22_2868" x1="318.927" y1="175.344" x2="321.9" y2="197.062" gradientUnits="userSpaceOnUse">
<stop stop-color="#FAD961"/>
<stop offset="1" stop-color="#F76B1C"/>
</linearGradient>
<linearGradient id="paint31_linear_22_2868" x1="328.5" y1="168.1" x2="328.5" y2="194.5" gradientUnits="userSpaceOnUse">
<stop stop-color="#FCB653"/>
<stop offset="1" stop-color="#DB6512"/>
</linearGradient>
<linearGradient id="paint32_linear_22_2868" x1="321" y1="168.1" x2="321" y2="194.5" gradientUnits="userSpaceOnUse">
<stop stop-color="#FCB653"/>
<stop offset="1" stop-color="#DB6512"/>
</linearGradient>
<linearGradient id="paint33_linear_22_2868" x1="334" y1="168.1" x2="334" y2="198" gradientUnits="userSpaceOnUse">
<stop stop-color="#FCB653"/>
<stop offset="1" stop-color="#DB6512"/>
</linearGradient>
<linearGradient id="paint34_linear_22_2868" x1="341" y1="168.1" x2="341" y2="198" gradientUnits="userSpaceOnUse">
<stop stop-color="#FCB653"/>
<stop offset="1" stop-color="#DB6512"/>
</linearGradient>
<linearGradient id="paint35_linear_22_2868" x1="319.811" y1="176.874" x2="314" y2="176.874" gradientUnits="userSpaceOnUse">
<stop stop-color="#FAD961"/>
<stop offset="1" stop-color="#F76B1C"/>
</linearGradient>
<linearGradient id="paint36_linear_22_2868" x1="336.111" y1="247.109" x2="337.098" y2="239.164" gradientUnits="userSpaceOnUse">
<stop stop-color="#FAD961"/>
<stop offset="1" stop-color="#F76B1C"/>
</linearGradient>
<linearGradient id="paint37_linear_22_2868" x1="322.35" y1="220.845" x2="323.264" y2="226.933" gradientUnits="userSpaceOnUse">
<stop stop-color="#FAD961"/>
<stop offset="1" stop-color="#F76B1C"/>
</linearGradient>
<linearGradient id="paint38_linear_22_2868" x1="324.781" y1="226.46" x2="327.103" y2="243.268" gradientUnits="userSpaceOnUse">
<stop stop-color="#FAD961"/>
<stop offset="1" stop-color="#F76B1C"/>
</linearGradient>
<linearGradient id="paint39_linear_22_2868" x1="332.128" y1="220.851" x2="332.128" y2="241.29" gradientUnits="userSpaceOnUse">
<stop stop-color="#FCB653"/>
<stop offset="1" stop-color="#DB6512"/>
</linearGradient>
<linearGradient id="paint40_linear_22_2868" x1="326.372" y1="220.851" x2="326.372" y2="241.29" gradientUnits="userSpaceOnUse">
<stop stop-color="#FCB653"/>
<stop offset="1" stop-color="#DB6512"/>
</linearGradient>
<linearGradient id="paint41_linear_22_2868" x1="336.349" y1="220.851" x2="336.349" y2="244" gradientUnits="userSpaceOnUse">
<stop stop-color="#FCB653"/>
<stop offset="1" stop-color="#DB6512"/>
</linearGradient>
<linearGradient id="paint42_linear_22_2868" x1="341.721" y1="220.851" x2="341.721" y2="244" gradientUnits="userSpaceOnUse">
<stop stop-color="#FCB653"/>
<stop offset="1" stop-color="#DB6512"/>
</linearGradient>
<linearGradient id="paint43_linear_22_2868" x1="325.46" y1="227.644" x2="321" y2="227.644" gradientUnits="userSpaceOnUse">
<stop stop-color="#FAD961"/>
<stop offset="1" stop-color="#F76B1C"/>
</linearGradient>
<linearGradient id="paint44_linear_22_2868" x1="381.27" y1="158.922" x2="382.811" y2="146.338" gradientUnits="userSpaceOnUse">
<stop stop-color="#FAD961"/>
<stop offset="1" stop-color="#F76B1C"/>
</linearGradient>
<linearGradient id="paint45_linear_22_2868" x1="359.167" y1="117.338" x2="360.596" y2="126.983" gradientUnits="userSpaceOnUse">
<stop stop-color="#FAD961"/>
<stop offset="1" stop-color="#F76B1C"/>
</linearGradient>
<linearGradient id="paint46_linear_22_2868" x1="363.073" y1="126.228" x2="366.698" y2="152.856" gradientUnits="userSpaceOnUse">
<stop stop-color="#FAD961"/>
<stop offset="1" stop-color="#F76B1C"/>
</linearGradient>
<linearGradient id="paint47_linear_22_2868" x1="374.872" y1="117.348" x2="374.872" y2="149.71" gradientUnits="userSpaceOnUse">
<stop stop-color="#FCB653"/>
<stop offset="1" stop-color="#DB6512"/>
</linearGradient>
<linearGradient id="paint48_linear_22_2868" x1="365.628" y1="117.348" x2="365.628" y2="149.71" gradientUnits="userSpaceOnUse">
<stop stop-color="#FCB653"/>
<stop offset="1" stop-color="#DB6512"/>
</linearGradient>
<linearGradient id="paint49_linear_22_2868" x1="364.163" y1="128.104" x2="357" y2="128.104" gradientUnits="userSpaceOnUse">
<stop stop-color="#FAD961"/>
<stop offset="1" stop-color="#F76B1C"/>
</linearGradient>
<clipPath id="clip0_22_2868">
<rect width="375" height="812" fill="white"/>
</clipPath>
</defs>
</svg>
