<svg width="375" height="812" viewBox="0 0 375 812" fill="none" xmlns="http://www.w3.org/2000/svg">
<g clip-path="url(#clip0_22_2618)">
<rect width="375" height="812" fill="#E2EBF1"/>
<path fill-rule="evenodd" clip-rule="evenodd" d="M11.7065 326.527C11.7065 326.527 24.401 318.334 28.1347 318.334C31.8683 318.334 51.6568 313.679 53.1503 309.258C54.6438 304.836 57.0751 298.236 58.2864 296.649C59.4976 295.063 63.6046 286.918 64.3513 282.962C65.0981 279.006 69.2051 273.117 69.9519 274.432C70.6986 275.748 71.8187 278.308 71.4453 280.169C71.072 282.031 66.2182 295.063 65.8448 298.321C65.4714 301.579 63.2312 306.278 65.4714 306.72C67.7116 307.164 68.085 312.981 68.085 314.145C68.085 315.308 72.2219 324.576 75.9257 325.082C79.6296 325.588 83.3931 320.195 83.3931 319.032C83.3931 317.868 77.75 314.524 76.9316 312.258C76.1124 309.991 76.4156 306.271 78.2242 304.506C80.0328 302.742 81.2642 304.81 80.8355 305.986C80.4062 307.164 79.419 310.401 80.2859 311.225C81.1529 312.05 86.7534 312.516 87.1268 310.654C87.5002 308.793 88.6203 305.069 88.2469 302.509C87.8735 299.95 86.3801 297.39 85.6333 294.597C84.8866 291.805 86.3801 285.289 87.8735 283.893C89.367 282.496 91.2338 280.075 91.2338 278.726C91.2338 277.377 94.2208 276.213 94.5941 278.308C94.9675 280.402 91.9806 282.031 91.9806 282.031C91.9806 282.031 89.9293 286.003 91.2338 287.15C92.5384 288.297 94.2208 292.736 96.461 292.736C98.7012 292.736 100.195 289.71 99.8213 288.547C99.4479 287.383 98.7012 278.773 101.688 276.213C104.675 273.653 105.422 272.024 105.048 269.697C104.675 267.37 103.928 261.785 104.675 260.622C105.422 259.458 108.782 256.898 109.155 258.527C109.529 260.156 106.542 265.741 108.035 266.672C109.529 267.603 109.902 270.395 109.902 272.257C109.902 274.119 106.915 278.075 106.915 280.402C106.915 282.729 108.409 287.81 109.529 288.294C110.649 288.779 111.17 292.717 111.097 294.122C111.022 295.528 109.434 300.798 109.482 301.887C109.529 302.975 111.775 307.789 114.012 309.57C116.249 311.352 122.597 309.414 123.343 307.358C124.09 305.302 125.584 301.767 123.343 299.345C121.103 296.924 120.73 293.201 121.85 291.572C122.97 289.943 125.957 286.452 125.957 286.452C125.957 286.452 128.197 286.685 127.077 289.478C125.957 292.27 124.7 294.304 125.515 295.032C126.33 295.761 133.424 297.855 134.918 296.226C136.411 294.597 137.158 289.943 136.038 287.616C134.918 285.289 134.545 280.308 137.905 278.726C141.265 277.144 143.879 272.955 144.252 274.817C144.625 276.679 137.531 282.075 139.772 285.776C142.012 289.478 141.873 293.202 141.942 294.714C142.012 296.226 135.665 302.277 137.905 303.44C140.145 304.604 145.88 302.044 147.12 300.415C148.359 298.786 148.359 299.484 148.359 296.226C148.359 292.968 151.346 289.012 152.466 288.547C153.586 288.081 155.08 285.754 155.08 284.591C155.08 283.427 159.187 281.565 158.067 285.289C156.947 289.012 152.84 292.27 153.213 294.132C153.586 295.993 151.719 301.346 154.706 301.811C157.693 302.277 161.427 303.906 164.787 302.509C168.148 301.113 168.521 299.757 168.148 297.759C167.774 295.761 170.014 293.899 171.135 294.132C172.255 294.364 173.001 294.365 171.881 296.692C170.761 299.019 169.641 300.415 170.761 301.346C171.881 302.277 171.508 305.347 173.748 306.72C175.988 308.094 178.229 309.025 178.975 311.12C179.722 313.214 163.294 350.68 163.294 350.68L136.961 387.71L22.3368 404L-15 384.22L9.26892 343.552L11.3331 327.215L11.7065 326.527Z" fill="#CAE3FF"/>
<path fill-rule="evenodd" clip-rule="evenodd" d="M391.243 244.048C390.897 242.314 389.858 238.845 390.204 236.461C390.55 234.076 391.936 231.692 392.629 229.091C393.322 226.489 391.936 220.42 390.55 219.119C389.165 217.818 387.433 215.563 387.433 214.306C387.433 213.05 384.661 211.966 384.315 213.917C383.968 215.868 386.74 217.385 386.74 217.385C386.74 217.385 388.643 221.085 387.433 222.154C386.222 223.222 384.661 227.356 382.583 227.356C380.504 227.356 379.118 224.538 379.465 223.455C379.811 222.371 380.504 214.35 377.733 211.966C374.961 209.581 374.268 208.064 374.615 205.896C374.961 203.728 375.654 198.526 374.961 197.442C374.268 196.358 371.151 193.974 370.804 195.491C370.458 197.008 373.229 202.211 371.843 203.078C370.458 203.945 370.111 206.546 370.111 208.281C370.111 210.015 372.883 213.7 372.883 215.868C372.883 218.035 371.497 222.768 370.458 223.22C369.419 223.671 368.935 227.339 369.003 228.648C369.072 229.958 370.546 234.867 370.501 235.881C370.458 236.894 368.374 241.379 366.298 243.038C364.222 244.698 358.333 242.892 357.64 240.977C356.947 239.062 355.562 235.769 357.64 233.514C359.719 231.258 360.065 227.79 359.026 226.273C357.987 224.755 355.215 221.504 355.215 221.504C355.215 221.504 353.137 221.72 354.176 224.322C355.215 226.923 356.382 228.817 355.625 229.495C354.869 230.174 348.287 232.125 346.901 230.608C345.515 229.091 344.822 224.755 345.862 222.587C346.901 220.42 347.247 215.78 344.13 214.306C341.012 212.833 338.587 208.931 338.24 210.665C337.894 212.399 344.476 217.426 342.397 220.874C340.319 224.322 340.448 227.791 340.383 229.199C340.319 230.608 346.208 236.244 344.13 237.328C342.051 238.412 336.73 236.027 335.58 234.51C334.43 232.992 334.43 233.643 334.43 230.608C334.43 227.573 331.658 223.888 330.619 223.455C329.58 223.021 328.194 220.853 328.194 219.769C328.194 218.686 324.383 216.951 325.423 220.42C326.462 223.888 330.273 226.923 329.926 228.657C329.58 230.391 331.312 235.377 328.541 235.81C325.769 236.244 320.573 281.332 320.573 281.332L345.006 315.826C345.006 315.826 391.59 245.782 391.243 244.048Z" fill="#CAE3FF"/>
<path d="M-897.496 416.317C-890.757 399.54 -827.034 356.933 -786.632 402.308C-716.518 481.052 -667.69 446.346 -641.805 399.447C-615.921 352.548 -573.374 349.471 -492.987 391.792C-459.606 409.366 -552.966 322.171 -422.937 381.099C-363.569 408.005 -286.99 293.44 -240.375 357.476C-193.759 421.513 -125.287 394.994 -113.439 368.51C-89.1984 314.328 -98.1351 257.727 -7 267.386C84.1351 277.045 58.9216 406.364 143 321.746C144.123 320.616 231.56 209.386 326.245 236C546.188 297.822 430.81 552.304 430.81 552.304L-873.417 618.348C-873.417 618.348 -904.236 433.094 -897.496 416.317Z" fill="#D1E5FC"/>
<path fill-rule="evenodd" clip-rule="evenodd" d="M23.6575 464.714C34.723 463.94 44.8758 454.468 50.1766 444.829C55.4774 435.191 57.1417 423.997 57.9262 413.019C58.7107 402.042 58.7118 390.936 61.0515 380.188C62.8747 371.814 66.1096 363.656 66.3024 355.082C66.4929 346.508 62.6271 336.975 54.5327 333.91C45.5119 330.495 35.3816 336.645 30.2378 344.694C25.0963 352.742 23.3132 362.415 19.7596 371.276C15.7552 381.26 9.52218 390.163 4.00216 399.402C-1.51665 408.638 -6.44133 418.579 -7.37981 429.302C-8.31889 440.026 -4.56206 451.726 4.34695 457.937" fill="url(#paint0_linear_22_2618)"/>
<path d="M48.2131 346.946C47.8601 383.258 34.5728 414.494 12.9791 442.794" stroke="white" stroke-width="0.6"/>
<path fill-rule="evenodd" clip-rule="evenodd" d="M371.813 339.445C371.813 339.445 339.402 310.795 326.725 296.953C314.047 283.111 303.815 279.016 306.31 274.339C308.805 269.662 311.88 263.695 320.25 261.461C328.619 259.228 377.648 335.054 377.648 335.054" fill="url(#paint1_linear_22_2618)"/>
<mask id="mask0_22_2618" style="mask-type:luminance" maskUnits="userSpaceOnUse" x="305" y="261" width="73" height="79">
<path fill-rule="evenodd" clip-rule="evenodd" d="M371.813 339.445C371.813 339.445 339.402 310.795 326.725 296.953C314.047 283.111 303.815 279.016 306.31 274.339C308.805 269.662 311.88 263.695 320.25 261.461C328.619 259.228 377.648 335.054 377.648 335.054" fill="white"/>
</mask>
<g mask="url(#mask0_22_2618)">
<path d="M315.675 288.163C315.675 288.163 335.261 281.007 333.692 268.001" stroke="#F89033" stroke-width="3.37037"/>
<path d="M324.089 298.769C324.089 298.769 343.675 291.613 342.106 278.607" stroke="#F89033" stroke-width="3.37037"/>
<path d="M332.502 309.374C332.502 309.374 352.089 302.218 350.52 289.213" stroke="#F89033" stroke-width="3.37037"/>
</g>
<ellipse cx="314.737" cy="269.625" rx="10.6728" ry="5.60185" transform="rotate(-45 314.737 269.625)" fill="#F8A635" stroke="url(#paint2_linear_22_2618)" stroke-width="2.24691"/>
<path fill-rule="evenodd" clip-rule="evenodd" d="M370.554 312.903C370.554 312.903 353.589 273.252 353.041 271.46C352.493 269.668 326.298 272.765 332.447 283.654C338.597 294.542 364.76 321.531 368.616 320.352C372.471 319.174 370.554 312.903 370.554 312.903Z" fill="url(#paint3_linear_22_2618)"/>
<ellipse cx="10.6728" cy="6.16204" rx="10.6728" ry="6.16204" transform="matrix(-0.956305 0.292372 0.292372 0.956305 350.721 267.245)" fill="#F8A635" stroke="url(#paint4_linear_22_2618)" stroke-width="2.24691"/>
<path fill-rule="evenodd" clip-rule="evenodd" d="M374.235 341.958C374.235 341.958 359.069 301.446 354.374 283.272C349.678 265.099 342.566 256.679 346.965 253.721C351.365 250.763 356.88 246.938 365.319 248.895C373.758 250.852 381.449 340.821 381.449 340.821" fill="url(#paint5_linear_22_2618)"/>
<mask id="mask1_22_2618" style="mask-type:luminance" maskUnits="userSpaceOnUse" x="345" y="248" width="37" height="94">
<path fill-rule="evenodd" clip-rule="evenodd" d="M374.235 341.958C374.235 341.958 359.069 301.446 354.374 283.272C349.678 265.099 342.566 256.679 346.965 253.721C351.365 250.763 356.88 246.938 365.319 248.895C373.758 250.852 381.449 340.821 381.449 340.821" fill="white"/>
</mask>
<g mask="url(#mask1_22_2618)">
<path d="M347.833 267.947C347.833 267.947 361.534 273.241 372.172 260.783" stroke="#F89A39" stroke-width="3.37037"/>
<path d="M350.587 279.002C350.587 279.002 364.289 284.295 374.927 271.837" stroke="#F89A39" stroke-width="3.37037"/>
</g>
<ellipse cx="356.619" cy="253.515" rx="10.6728" ry="5.60185" transform="rotate(-17 356.619 253.515)" fill="#F8A635" stroke="url(#paint6_linear_22_2618)" stroke-width="2.24691"/>
<path fill-rule="evenodd" clip-rule="evenodd" d="M364.862 316.891C364.862 316.891 367.994 273.877 367.928 272.004C367.863 270.131 393.639 264.531 391.37 276.829C389.1 289.127 373.15 323.163 369.12 323.304C365.091 323.444 364.862 316.891 364.862 316.891Z" fill="url(#paint7_linear_22_2618)"/>
<mask id="mask2_22_2618" style="mask-type:luminance" maskUnits="userSpaceOnUse" x="364" y="269" width="28" height="55">
<path fill-rule="evenodd" clip-rule="evenodd" d="M364.862 316.891C364.862 316.891 367.994 273.877 367.928 272.004C367.863 270.131 393.639 264.531 391.37 276.829C389.1 289.127 373.15 323.163 369.12 323.304C365.091 323.444 364.862 316.891 364.862 316.891Z" fill="white"/>
</mask>
<g mask="url(#mask2_22_2618)">
<path d="M365.484 283.069C365.484 283.069 375.842 293.777 393.898 290.843" stroke="#F89939" stroke-width="3.37037"/>
</g>
<ellipse cx="379.631" cy="273.05" rx="10.6728" ry="6.16204" transform="rotate(-2 379.631 273.05)" fill="#F8A635" stroke="url(#paint8_linear_22_2618)" stroke-width="2.24691"/>
<path fill-rule="evenodd" clip-rule="evenodd" d="M381.627 344.804C381.627 344.804 398.168 327.441 397.482 303.313C396.796 279.186 394.783 283.091 383.362 281.118C378.872 280.342 374.219 282.557 373.183 285.851C371.101 292.472 374.787 306.017 376.527 315.883C379.132 330.659 377.917 343.821 379.144 345.242C380.372 346.662 381.627 344.804 381.627 344.804Z" fill="url(#paint9_linear_22_2618)"/>
<mask id="mask3_22_2618" style="mask-type:luminance" maskUnits="userSpaceOnUse" x="372" y="280" width="26" height="66">
<path fill-rule="evenodd" clip-rule="evenodd" d="M381.627 344.804C381.627 344.804 398.168 327.441 397.482 303.313C396.796 279.186 394.783 283.091 383.362 281.118C378.872 280.342 374.219 282.557 373.183 285.851C371.101 292.472 374.787 306.017 376.527 315.883C379.132 330.659 377.917 343.821 379.144 345.242C380.372 346.662 381.627 344.804 381.627 344.804Z" fill="white"/>
</mask>
<g mask="url(#mask3_22_2618)">
<path d="M371.201 297.653C371.201 297.653 384.712 312.314 399.217 301.267" stroke="#F77925" stroke-width="3.37037"/>
<path d="M374.023 309.894C374.023 309.894 386.974 324.295 400.759 313.553" stroke="#F7822A" stroke-width="3.37037"/>
</g>
<ellipse cx="10.6728" cy="7.28241" rx="10.6728" ry="7.28241" transform="matrix(-0.984808 0.173648 0.173648 0.984808 393.476 278.687)" fill="#F8A635" stroke="url(#paint10_linear_22_2618)" stroke-width="2.24691"/>
<path fill-rule="evenodd" clip-rule="evenodd" d="M377.038 335.898C377.038 335.898 349.992 302.303 348.667 300.978C347.342 299.653 362.375 277.978 369.102 288.52C375.829 299.062 387.376 334.833 384.525 337.684C381.674 340.534 377.038 335.898 377.038 335.898Z" fill="url(#paint11_linear_22_2618)"/>
<mask id="mask4_22_2618" style="mask-type:luminance" maskUnits="userSpaceOnUse" x="348" y="285" width="37" height="54">
<path fill-rule="evenodd" clip-rule="evenodd" d="M377.038 335.898C377.038 335.898 349.992 302.303 348.667 300.978C347.342 299.653 362.375 277.978 369.102 288.52C375.829 299.062 387.376 334.833 384.525 337.684C381.674 340.534 377.038 335.898 377.038 335.898Z" fill="white"/>
</mask>
<g mask="url(#mask4_22_2618)">
<path d="M355.643 311.857C355.643 311.857 372.914 306.279 374.625 295.16" stroke="#F7822A" stroke-width="3.37037"/>
<path d="M363.2 319.806C363.2 319.806 379.408 315.129 380.388 305.475" stroke="#F7822A" stroke-width="3.37037"/>
<path d="M366.988 330.415C366.988 330.415 383.196 325.739 384.176 316.085" stroke="#F7822A" stroke-width="3.37037"/>
</g>
<ellipse cx="357.939" cy="293.762" rx="10.6728" ry="6.16204" transform="rotate(-45 357.939 293.762)" fill="#F8A635" stroke="url(#paint12_linear_22_2618)" stroke-width="2.24691"/>
<path fill-rule="evenodd" clip-rule="evenodd" d="M372.859 340.288C372.859 340.288 349.148 343.878 329.778 329.477C310.407 315.076 314.76 315.668 319.694 305.181C321.634 301.057 326.118 298.516 329.411 299.557C336.028 301.649 345.009 312.438 352.093 319.522C362.702 330.131 374.182 336.685 374.641 338.505C375.101 340.326 372.859 340.288 372.859 340.288Z" fill="url(#paint13_linear_22_2618)"/>
<mask id="mask5_22_2618" style="mask-type:luminance" maskUnits="userSpaceOnUse" x="315" y="299" width="60" height="42">
<path fill-rule="evenodd" clip-rule="evenodd" d="M372.859 340.288C372.859 340.288 349.148 343.878 329.778 329.477C310.407 315.076 314.76 315.668 319.694 305.181C321.634 301.057 326.118 298.516 329.411 299.557C336.028 301.649 345.009 312.438 352.093 319.522C362.702 330.131 374.182 336.685 374.641 338.505C375.101 340.326 372.859 340.288 372.859 340.288Z" fill="white"/>
</mask>
<g mask="url(#mask5_22_2618)">
<path d="M326.951 329.503C326.951 329.503 341.992 324.507 342.713 308.682" stroke="#F87B26" stroke-width="3.37037"/>
<path d="M337.85 335.843C337.85 335.843 352.891 330.847 353.612 315.022" stroke="#F87B26" stroke-width="3.37037"/>
<path d="M350.899 341.82C350.899 341.82 365.94 336.824 366.661 320.999" stroke="#F87B26" stroke-width="3.37037"/>
</g>
<ellipse cx="324.598" cy="309.674" rx="10.6728" ry="7.28241" transform="rotate(-45 324.598 309.674)" fill="#F8A635" stroke="url(#paint14_linear_22_2618)" stroke-width="2.24691"/>
<path fill-rule="evenodd" clip-rule="evenodd" d="M-473.347 499.505C-448.197 489.462 -424.894 473.843 -399.931 463.17C-281.538 412.541 -149.108 479.477 -24.7383 455.889C74.3269 437.106 161.102 362.163 260.481 345.813C312.34 337.279 441.373 323.383 493.7 321.11C546.029 318.84 484.907 635.004 484.513 818.805C394.299 807.896 27.6934 818.805 -66.0001 818.805C-440.601 818.805 -403.84 818.805 -754.33 818.805C-761.628 818.805 -749.521 721.57 -754.33 715.426C-759.01 709.448 -759.397 700.524 -759.41 692.4C-759.539 613.966 -759.892 643.714 -759.41 569C-759.01 507 -759.01 479.477 -759.41 454.063C-759.657 438.353 -752.702 455.708 -718.177 470.541C-639.579 504.306 -552.576 531.152 -473.347 499.505Z" fill="url(#paint15_linear_22_2618)"/>
<g clip-path="url(#clip1_22_2618)">
<path d="M267.541 471.733C263.921 469.19 257.417 466.903 255.917 466.222C253.665 465.194 250.471 464.11 249.349 461.691C248.652 460.193 248.78 458.185 248.728 456.559C248.644 453.925 248.438 451.794 247.996 448.658C247.037 441.896 241.281 449.722 236.984 453.607C233.463 456.79 229.887 460.627 225.025 461.297C222.754 461.608 220.442 461.428 218.163 461.656C215.414 461.93 212.673 462.293 209.928 462.608C208.503 462.771 205.277 462.516 204.275 463.807C203.618 464.648 204.302 465.847 204.839 466.525C205.802 467.724 207.171 468.605 208.42 469.465C209.761 470.386 210.998 471.314 212.215 472.398C213.775 473.785 216.46 475.665 215.971 477.968C215.497 480.192 213.87 482.088 212.653 483.933C210.6 487.037 207.294 493.799 206.419 496.361C205.114 500.19 211.006 498.999 213.647 498.015C216.731 496.863 219.814 495.712 222.897 494.556C224.21 494.062 225.586 493.648 226.955 493.209C229.298 493.098 231.367 493.389 233.495 494.441C235.528 495.445 237.306 496.935 239.021 498.413C240.66 499.828 242.295 501.226 243.986 502.581C245.74 503.988 247.745 505.773 250.005 506.263C251.298 506.92 253.617 507.63 253.904 506.044C254.516 502.625 253.645 492.986 253.144 489.524C252.921 487.994 252.551 485.894 252.893 484.141C253.776 482.758 256.016 482.16 257.389 481.686C259.768 480.865 262.127 479.953 264.482 479.068C266.352 478.367 269.129 477.49 269.908 475.41C270.35 474.227 269.28 472.956 267.553 471.74L267.541 471.733Z" fill="url(#paint16_radial_22_2618)"/>
<path style="mix-blend-mode:multiply" opacity="0.3" d="M208.416 469.465C209.757 470.386 210.994 471.314 212.211 472.398C213.771 473.785 216.456 475.665 215.967 477.968C215.493 480.192 213.866 482.088 212.649 483.933C210.596 487.037 207.29 493.799 206.415 496.361C206.28 496.76 206.224 497.098 206.232 497.393C207 494.911 209.16 491.221 210.413 488.922C212.541 485.013 213.902 482.224 216.687 479.534C220.673 475.677 226.414 474.88 231.856 472.633C227.993 472.968 222.658 475.088 218.767 474.912C214.718 474.729 212.943 471.302 209.562 469.258C208.102 468.378 204.529 465.871 204.362 463.704C204.33 463.739 204.29 463.771 204.263 463.811C203.606 464.652 204.29 465.851 204.827 466.529C205.79 467.728 207.159 468.609 208.408 469.469L208.416 469.465Z" fill="url(#paint17_radial_22_2618)"/>
<path style="mix-blend-mode:multiply" opacity="0.3" d="M267.542 471.733C263.921 469.19 257.417 466.903 255.917 466.222C253.665 465.194 250.471 464.11 249.349 461.691C248.653 460.193 248.78 458.185 248.728 456.559C248.645 453.925 248.438 451.794 247.996 448.658C247.037 441.896 241.281 449.722 236.984 453.607C234.156 456.161 231.287 459.137 227.751 460.56C229.895 461.986 231.526 466.373 232.994 468.84C234.112 470.716 233.575 470.617 230.937 469.784C224.138 468.338 219.428 466.903 212.561 465.815C210.899 465.552 209.22 465.357 207.565 465.034C206.725 464.871 205.89 464.779 205.21 464.194C204.943 463.967 204.736 463.731 204.593 463.5C204.47 463.592 204.354 463.692 204.267 463.807C203.61 464.648 204.295 465.847 204.832 466.525C205.794 467.724 207.163 468.605 208.412 469.465C209.753 470.386 210.99 471.314 212.207 472.398C213.767 473.785 216.452 475.665 215.963 477.968C215.939 478.076 215.903 478.184 215.875 478.291C218.139 476.263 221.461 475.685 224.313 474.94C227.436 474.127 229.286 473.609 231.972 472.537C233.392 471.972 234.203 472.597 229.978 475.498C228.908 476.231 220.283 483.12 217.896 486.264C215.665 489.213 213.015 492.285 210.962 495.365C210.266 496.413 208.217 499.525 206.538 498.21C206.491 498.17 206.447 498.13 206.403 498.087C207.318 499.724 211.519 498.804 213.636 498.015C216.719 496.863 219.802 495.712 222.885 494.556C224.198 494.062 225.574 493.648 226.943 493.209C229.286 493.098 231.355 493.389 233.483 494.441C235.099 495.238 236.555 496.345 237.943 497.505C236.94 496.497 235.894 495.54 234.864 494.676C233.408 493.453 230.818 491.803 230.675 489.639C230.484 486.758 231.832 484.033 232.437 481.276C233.002 478.698 233.265 476.076 234.207 473.597C234.239 473.51 234.295 473.458 234.351 473.418C235.17 472.059 235.206 472.585 235.97 473.888C238.086 477.502 241.444 482.387 243.282 486.153C245.943 491.596 248.72 497.059 251.656 502.35C252.352 503.605 253.968 505.331 253.108 506.924C253.108 506.924 253.108 506.928 253.104 506.932C253.506 506.817 253.801 506.546 253.892 506.044C254.505 502.625 253.633 492.986 253.132 489.524C252.909 487.994 252.539 485.894 252.882 484.141C253.765 482.758 256.004 482.16 257.377 481.686C259.756 480.865 262.115 479.953 264.47 479.068C266.34 478.367 269.117 477.49 269.897 475.41C270.338 474.227 269.268 472.956 267.542 471.74V471.733Z" fill="url(#paint18_radial_22_2618)"/>
<path style="mix-blend-mode:multiply" opacity="0.3" d="M247.483 448.57C247.523 451.487 247.65 454.061 247.805 456.99C247.908 458.906 247.531 461.221 246.5 462.962C245.84 464.074 244.531 464.696 243.481 465.341C240.429 467.214 237.354 469.453 234.621 471.896C237.736 470.374 240.871 468.868 243.998 467.401C247.399 465.807 250.661 465.118 254.258 466.521C257.818 467.911 261.55 468.979 265.039 470.541C266.304 471.107 267.422 471.748 268.484 472.47C268.198 472.227 267.884 471.98 267.541 471.736C263.921 469.194 257.417 466.907 255.917 466.226C253.665 465.198 250.471 464.114 249.349 461.695C248.652 460.197 248.78 458.189 248.728 456.563C248.644 453.929 248.438 451.798 247.996 448.662C247.793 447.231 247.371 446.458 246.799 446.159C247.276 446.737 247.475 447.658 247.487 448.578L247.483 448.57Z" fill="url(#paint19_radial_22_2618)"/>
<path style="mix-blend-mode:multiply" opacity="0.3" d="M234.868 494.672C233.412 493.449 230.822 491.799 230.678 489.635C230.487 486.754 231.836 484.029 232.441 481.272C233.006 478.694 233.268 476.072 234.211 473.593C234.219 473.569 234.235 473.554 234.247 473.538C234.231 473.438 234.211 473.334 234.195 473.235C233.614 474.303 233.507 475.745 233.121 476.845C232.385 478.941 231.828 481.096 231.088 483.188C229.966 486.34 228.379 489.309 225.638 491.305C222.587 493.528 219.006 494.588 215.517 495.871C213.783 496.513 212.167 497.457 210.441 498.083C209.494 498.425 208.73 498.509 207.934 498.437C207.469 498.593 207 498.561 206.554 498.21C206.55 498.21 206.546 498.202 206.542 498.198C206.526 498.198 206.506 498.19 206.49 498.186C207.525 499.676 211.579 498.788 213.651 498.015C216.734 496.863 219.818 495.712 222.901 494.556C224.214 494.062 225.59 493.648 226.959 493.209C229.302 493.098 231.371 493.389 233.499 494.441C235.114 495.238 236.57 496.345 237.959 497.505C236.956 496.497 235.91 495.54 234.88 494.676L234.868 494.672Z" fill="url(#paint20_radial_22_2618)"/>
<path style="mix-blend-mode:multiply" opacity="0.3" d="M267.541 471.732C266.666 471.119 265.62 470.517 264.518 469.955C265.469 470.685 266.376 471.175 267.251 471.995C267.82 472.525 268.433 473.514 268.83 474.207C269.439 475.259 269.073 475.984 268.11 476.618C266.093 477.952 263.114 478.698 260.79 479.231C258.22 479.821 255.491 480.236 252.865 479.761C250.013 479.247 247.363 478.116 244.766 476.853C242.999 475.992 241.245 475.115 239.427 474.374C239.2 474.283 238.213 473.86 237.243 473.49C240.513 475.586 243.509 477.897 246.572 480.375C248.115 481.622 249.846 482.658 250.805 484.459C251.433 485.639 251.573 487.085 251.74 488.392C252.297 492.707 252.933 496.999 253.661 501.286C253.84 502.33 254.019 503.462 254.059 504.585C254.314 500.425 253.582 492.576 253.14 489.52C252.917 487.99 252.547 485.89 252.889 484.136C253.773 482.754 256.012 482.156 257.385 481.682C259.764 480.861 262.123 479.949 264.478 479.064C266.348 478.363 269.125 477.486 269.905 475.406C270.346 474.223 269.276 472.952 267.549 471.736L267.541 471.732Z" fill="url(#paint21_radial_22_2618)"/>
<path style="mix-blend-mode:multiply" opacity="0.4" d="M242.414 467.242C244.475 465.827 246.85 464.967 249.269 464.429C250.28 464.206 251.203 464.277 252.125 464.429C250.94 463.735 249.898 462.875 249.353 461.695C248.656 460.197 248.784 458.189 248.732 456.563C248.648 453.929 248.442 451.798 248 448.662C247.753 446.932 247.196 446.163 246.425 446.028C244.877 447.347 243.978 450.224 243.23 451.853C242.231 454.033 241.129 456.165 240.151 458.352C239.061 460.795 238.094 463.285 237.187 465.803C236.582 467.481 235.544 469.402 235.242 471.175C235.086 472.091 240.473 468.577 242.418 467.246L242.414 467.242Z" fill="url(#paint22_linear_22_2618)"/>
<path style="mix-blend-mode:multiply" opacity="0.4" d="M269.698 473.844C269.586 474 269.419 474.151 269.18 474.287C268.417 474.729 267.514 474.952 266.626 474.856C264.701 474.645 262.763 474.593 260.842 474.314C256.939 473.745 253.036 473.203 249.11 472.832C247.033 472.637 244.98 472.258 242.912 472.015C241.551 471.856 238.301 471.928 237.613 471.892C234.287 471.713 236.312 472.956 237.418 473.653C238.4 474.267 241.058 475.283 242.009 475.94C244.034 477.347 246.078 478.741 248.072 480.192C249.953 481.566 251.612 483.041 252.786 484.874C252.81 484.623 252.838 484.376 252.885 484.136C253.768 482.754 256.008 482.156 257.381 481.682C259.76 480.861 262.119 479.949 264.474 479.064C266.344 478.363 269.121 477.486 269.901 475.406C270.091 474.9 270 474.378 269.702 473.848L269.698 473.844Z" fill="url(#paint23_linear_22_2618)"/>
<path d="M241.229 456.045C240.342 458.149 237.835 462.783 236.956 464.891C236.153 466.815 234.426 470.489 233.849 470.437C232.123 470.282 230.114 469.517 228.737 469.031C226.521 468.246 224.301 467.744 222.01 467.238C217.976 466.349 213.934 465.652 209.836 465.154C209.773 465.146 209.753 465.242 209.816 465.254C213.874 465.819 217.952 466.652 221.906 467.744C223.148 468.087 234.271 471.661 234.74 471.342C235.962 469.513 236.511 467.644 237.255 465.596C238.102 463.273 241.233 456.013 241.221 456.045H241.229Z" fill="#FFBD21"/>
<path opacity="0.7" d="M211.738 494.281C211.738 494.281 218.517 483.467 224.795 478.203C231.072 472.936 234.378 471.772 234.378 471.772C234.378 471.772 226.692 477.805 223.152 481.407C219.611 485.009 211.738 494.281 211.738 494.281Z" fill="#FFBD21"/>
<path opacity="0.4" d="M235.226 472.589C235.226 472.589 242.462 482.925 244.252 486.974C246.043 491.022 252.201 503.111 252.201 503.111C252.201 503.111 243.683 488.424 241.655 484.726C239.626 481.033 235.23 472.585 235.23 472.585L235.226 472.589Z" fill="#FFBD21"/>
<path style="mix-blend-mode:multiply" opacity="0.4" d="M228.797 461.078C228.876 461.249 228.817 461.448 228.666 461.52C228.514 461.592 228.323 461.512 228.244 461.345C228.164 461.173 228.224 460.974 228.375 460.902C228.53 460.831 228.717 460.906 228.797 461.078Z" fill="url(#paint24_linear_22_2618)"/>
<path style="mix-blend-mode:multiply" opacity="0.4" d="M230.038 462.692C230.122 462.859 230.066 463.058 229.915 463.134C229.764 463.21 229.573 463.134 229.489 462.966C229.406 462.795 229.461 462.596 229.612 462.52C229.764 462.444 229.955 462.52 230.038 462.692Z" fill="url(#paint25_linear_22_2618)"/>
<path style="mix-blend-mode:multiply" opacity="0.4" d="M230.945 464.246C231.021 464.417 230.953 464.616 230.802 464.684C230.647 464.752 230.46 464.668 230.384 464.493C230.309 464.317 230.372 464.122 230.527 464.054C230.682 463.983 230.869 464.07 230.945 464.246Z" fill="url(#paint26_linear_22_2618)"/>
<path style="mix-blend-mode:multiply" opacity="0.4" d="M231.777 465.911C231.84 466.086 231.761 466.282 231.601 466.337C231.442 466.393 231.263 466.294 231.2 466.118C231.136 465.939 231.216 465.748 231.379 465.692C231.538 465.636 231.717 465.736 231.78 465.915L231.777 465.911Z" fill="url(#paint27_linear_22_2618)"/>
<path style="mix-blend-mode:multiply" opacity="0.4" d="M232.823 467.848C232.886 468.023 232.807 468.218 232.648 468.274C232.489 468.33 232.306 468.23 232.246 468.051C232.182 467.872 232.262 467.68 232.421 467.624C232.58 467.569 232.759 467.668 232.823 467.848Z" fill="url(#paint28_linear_22_2618)"/>
<path style="mix-blend-mode:multiply" opacity="0.4" d="M233.833 469.784C233.897 469.959 233.817 470.155 233.658 470.21C233.499 470.266 233.32 470.167 233.256 469.987C233.193 469.808 233.276 469.617 233.435 469.561C233.595 469.505 233.774 469.605 233.833 469.784Z" fill="url(#paint29_linear_22_2618)"/>
<path style="mix-blend-mode:multiply" opacity="0.4" d="M248.879 464.269C248.712 464.353 248.517 464.297 248.442 464.146C248.366 463.991 248.442 463.799 248.609 463.716C248.776 463.632 248.975 463.688 249.05 463.839C249.126 463.994 249.05 464.186 248.883 464.269H248.879Z" fill="url(#paint30_linear_22_2618)"/>
<path style="mix-blend-mode:multiply" opacity="0.4" d="M245.88 465.831C245.716 465.919 245.518 465.867 245.438 465.716C245.362 465.564 245.43 465.369 245.597 465.282C245.764 465.194 245.959 465.246 246.039 465.397C246.118 465.549 246.047 465.744 245.88 465.831Z" fill="url(#paint31_linear_22_2618)"/>
<path style="mix-blend-mode:multiply" opacity="0.4" d="M243.373 467.186C243.206 467.266 243.007 467.202 242.94 467.047C242.868 466.891 242.948 466.7 243.119 466.62C243.29 466.541 243.485 466.604 243.552 466.76C243.624 466.915 243.544 467.106 243.373 467.186Z" fill="url(#paint32_linear_22_2618)"/>
<path style="mix-blend-mode:multiply" opacity="0.4" d="M241.002 468.78C240.827 468.848 240.636 468.768 240.58 468.609C240.521 468.445 240.616 468.262 240.791 468.198C240.966 468.13 241.157 468.21 241.217 468.37C241.277 468.529 241.181 468.716 241.006 468.78H241.002Z" fill="url(#paint33_linear_22_2618)"/>
<path style="mix-blend-mode:multiply" opacity="0.4" d="M238.778 470.127C238.607 470.195 238.416 470.115 238.357 469.955C238.297 469.796 238.392 469.609 238.567 469.545C238.742 469.477 238.933 469.553 238.989 469.716C239.049 469.88 238.953 470.063 238.778 470.127Z" fill="url(#paint34_linear_22_2618)"/>
<path style="mix-blend-mode:multiply" opacity="0.4" d="M236.63 471.322C236.455 471.39 236.264 471.31 236.204 471.151C236.145 470.987 236.24 470.804 236.415 470.74C236.59 470.673 236.781 470.752 236.841 470.912C236.901 471.071 236.805 471.258 236.63 471.322Z" fill="url(#paint35_linear_22_2618)"/>
<path style="mix-blend-mode:multiply" opacity="0.4" d="M249.508 482.073C249.353 481.953 249.313 481.738 249.42 481.594C249.528 481.451 249.743 481.431 249.902 481.551C250.061 481.67 250.101 481.885 249.993 482.029C249.886 482.172 249.667 482.192 249.512 482.073H249.508Z" fill="url(#paint36_linear_22_2618)"/>
<path style="mix-blend-mode:multiply" opacity="0.4" d="M246.647 479.921C246.488 479.805 246.444 479.586 246.548 479.443C246.655 479.295 246.87 479.271 247.029 479.391C247.188 479.51 247.232 479.726 247.129 479.869C247.021 480.016 246.807 480.036 246.647 479.921Z" fill="url(#paint37_linear_22_2618)"/>
<path style="mix-blend-mode:multiply" opacity="0.4" d="M244.213 478.144C244.061 478.02 244.026 477.801 244.141 477.662C244.252 477.518 244.467 477.506 244.622 477.634C244.778 477.757 244.809 477.976 244.698 478.116C244.587 478.255 244.372 478.267 244.217 478.144H244.213Z" fill="url(#paint38_linear_22_2618)"/>
<path style="mix-blend-mode:multiply" opacity="0.4" d="M241.758 476.514C241.615 476.379 241.595 476.159 241.718 476.028C241.842 475.896 242.056 475.9 242.2 476.036C242.343 476.171 242.359 476.391 242.239 476.526C242.116 476.658 241.901 476.654 241.758 476.514Z" fill="url(#paint39_linear_22_2618)"/>
<path style="mix-blend-mode:multiply" opacity="0.4" d="M239.315 474.932C239.172 474.797 239.156 474.578 239.276 474.442C239.399 474.311 239.614 474.315 239.757 474.454C239.9 474.589 239.916 474.809 239.797 474.944C239.673 475.076 239.459 475.072 239.315 474.932Z" fill="url(#paint40_linear_22_2618)"/>
<path style="mix-blend-mode:multiply" opacity="0.4" d="M237.02 473.585C236.877 473.45 236.861 473.231 236.984 473.099C237.107 472.968 237.322 472.972 237.465 473.107C237.609 473.247 237.625 473.462 237.505 473.593C237.382 473.725 237.167 473.721 237.024 473.581L237.02 473.585Z" fill="url(#paint41_linear_22_2618)"/>
<path style="mix-blend-mode:multiply" opacity="0.4" d="M229.612 489.731C229.676 489.528 229.875 489.408 230.058 489.468C230.241 489.528 230.336 489.743 230.273 489.946C230.209 490.149 230.01 490.269 229.827 490.209C229.644 490.149 229.549 489.934 229.612 489.731Z" fill="url(#paint42_linear_22_2618)"/>
<path style="mix-blend-mode:multiply" opacity="0.4" d="M229.262 492.524C229.326 492.321 229.525 492.205 229.708 492.261C229.891 492.321 229.986 492.536 229.923 492.739C229.859 492.943 229.656 493.062 229.477 493.002C229.294 492.943 229.198 492.727 229.262 492.524Z" fill="url(#paint43_linear_22_2618)"/>
<path style="mix-blend-mode:multiply" opacity="0.4" d="M230.376 486.248C230.436 486.045 230.635 485.922 230.818 485.977C231.005 486.033 231.1 486.244 231.04 486.452C230.981 486.659 230.782 486.778 230.599 486.723C230.416 486.667 230.316 486.456 230.376 486.248Z" fill="url(#paint44_linear_22_2618)"/>
<path style="mix-blend-mode:multiply" opacity="0.4" d="M231.275 483.113C231.343 482.913 231.55 482.798 231.729 482.866C231.912 482.929 231.999 483.148 231.928 483.352C231.86 483.555 231.653 483.666 231.474 483.603C231.295 483.539 231.204 483.32 231.275 483.117V483.113Z" fill="url(#paint45_linear_22_2618)"/>
<path style="mix-blend-mode:multiply" opacity="0.4" d="M232.015 480.013C232.099 479.817 232.313 479.722 232.485 479.797C232.664 479.877 232.735 480.1 232.652 480.295C232.564 480.491 232.353 480.586 232.178 480.511C232.003 480.431 231.928 480.208 232.015 480.013Z" fill="url(#paint46_linear_22_2618)"/>
<path style="mix-blend-mode:multiply" opacity="0.4" d="M232.711 476.936C232.795 476.741 233.01 476.646 233.185 476.721C233.36 476.801 233.431 477.024 233.348 477.219C233.264 477.419 233.053 477.51 232.874 477.434C232.699 477.355 232.628 477.132 232.711 476.936Z" fill="url(#paint47_linear_22_2618)"/>
<path style="mix-blend-mode:multiply" opacity="0.4" d="M233.229 474.099C233.312 473.904 233.527 473.805 233.702 473.884C233.877 473.964 233.949 474.187 233.865 474.382C233.778 474.578 233.571 474.673 233.392 474.594C233.217 474.518 233.145 474.291 233.229 474.095V474.099Z" fill="url(#paint48_linear_22_2618)"/>
<path style="mix-blend-mode:multiply" opacity="0.4" d="M217.391 476.713C217.594 476.665 217.797 476.777 217.84 476.968C217.884 477.159 217.753 477.351 217.546 477.399C217.339 477.45 217.136 477.335 217.097 477.144C217.053 476.952 217.184 476.761 217.391 476.713Z" fill="url(#paint49_linear_22_2618)"/>
<path style="mix-blend-mode:multiply" opacity="0.4" d="M220.729 475.606C220.932 475.554 221.138 475.665 221.182 475.853C221.23 476.044 221.099 476.239 220.896 476.291C220.689 476.343 220.486 476.231 220.438 476.044C220.391 475.857 220.522 475.661 220.729 475.606Z" fill="url(#paint50_linear_22_2618)"/>
<path style="mix-blend-mode:multiply" opacity="0.4" d="M223.844 474.785C224.051 474.741 224.249 474.864 224.285 475.052C224.321 475.243 224.186 475.43 223.975 475.474C223.768 475.518 223.569 475.394 223.533 475.203C223.494 475.012 223.633 474.825 223.844 474.781V474.785Z" fill="url(#paint51_linear_22_2618)"/>
<path style="mix-blend-mode:multiply" opacity="0.4" d="M226.847 473.848C227.054 473.82 227.245 473.956 227.269 474.151C227.293 474.346 227.142 474.522 226.931 474.55C226.72 474.578 226.529 474.438 226.509 474.247C226.485 474.052 226.636 473.876 226.847 473.848Z" fill="url(#paint52_linear_22_2618)"/>
<path style="mix-blend-mode:multiply" opacity="0.4" d="M229.807 472.884C230.014 472.86 230.209 472.992 230.229 473.187C230.249 473.378 230.098 473.557 229.887 473.585C229.676 473.613 229.489 473.478 229.465 473.282C229.441 473.091 229.592 472.912 229.803 472.888L229.807 472.884Z" fill="url(#paint53_linear_22_2618)"/>
<path style="mix-blend-mode:multiply" opacity="0.4" d="M232.477 471.888C232.683 471.86 232.874 471.996 232.898 472.191C232.922 472.386 232.767 472.561 232.56 472.589C232.349 472.613 232.162 472.482 232.138 472.286C232.115 472.095 232.266 471.916 232.477 471.888Z" fill="url(#paint54_linear_22_2618)"/>
</g>
<path fill-rule="evenodd" clip-rule="evenodd" d="M147.7 433.786C149.852 432.912 152.255 431.248 151.982 428.942C151.763 427.107 149.79 425.896 147.941 425.871C146.095 425.846 142.648 426.399 142.648 426.399C142.648 426.399 145.968 424.965 146.586 423.039C147.221 421.066 144.795 419.217 142.748 419.552C140.702 419.885 137.715 421.946 137.715 421.946C137.715 421.946 139.811 417.571 139.546 414.8C139.446 413.767 136.39 411.001 134.843 413.497C133.458 415.731 132.501 419.983 132.501 419.983C132.501 419.983 130.727 415.456 129.195 412.71C128.711 411.844 126.826 411.032 125.834 411.001C124.588 410.962 123.879 412.426 123.716 413.663C123.289 416.894 126.665 421.482 126.665 421.482C126.665 421.482 120.193 415.544 117.673 416.707C116.886 417.071 116.424 418.053 116.462 419.002C116.596 422.246 121.027 426.03 121.027 426.03C121.027 426.03 118.426 425.491 117.196 424.446C115.965 423.399 113.627 423.067 113.091 424.591C112.844 425.294 113.141 426.062 113.477 426.727C113.477 426.727 116.907 436.508 131.677 436.364C137.132 436.311 142.646 435.841 147.7 433.786Z" fill="url(#paint55_linear_22_2618)"/>
<path fill-rule="evenodd" clip-rule="evenodd" d="M259.673 412.427C256.848 410.694 254.665 407.51 255.074 404.221C255.441 401.282 257.687 398.98 259.81 396.915C262.39 394.405 265.042 391.845 268.326 390.37C273.635 387.985 280.082 388.848 285.031 391.914C286.085 392.568 287.164 393.56 288.21 394.717C293.561 400.637 293.199 410.759 286.132 414.466C285.551 414.771 284.973 415.007 284.411 415.152C279.452 416.431 274.221 415.9 269.15 415.188C265.867 414.727 262.499 414.16 259.673 412.427Z" fill="#20406A"/>
<path fill-rule="evenodd" clip-rule="evenodd" d="M315.024 399.392C316.609 400.671 318.316 402.004 320.342 402.218C322.368 402.432 324.702 400.974 324.606 398.939C324.509 396.905 322.048 395.672 320.052 396.077C318.055 396.48 316.481 397.968 315.024 399.392Z" fill="#20406A"/>
<path fill-rule="evenodd" clip-rule="evenodd" d="M312.997 410.606C311.954 409.919 310.845 410.002 309.661 410.005C309.062 410.007 308.419 410.21 307.901 410.572C307.166 410.728 306.427 410.907 305.829 411.368C305.001 412.005 304.684 413.119 305.497 413.944C306.11 414.567 306.905 414.886 307.714 415.174C308.223 415.606 308.875 415.848 309.661 415.954C310.919 416.122 311.794 416.181 312.997 415.598C315.069 414.593 314.672 411.709 312.997 410.606Z" fill="#20406A"/>
<path fill-rule="evenodd" clip-rule="evenodd" d="M316.289 413.475C314.866 412.642 313.224 412.96 312.028 414.003C311.991 414.019 311.954 414.034 311.918 414.048C310.836 414.487 310.024 415.286 310.024 416.535C310.024 417.784 310.836 418.582 311.918 419.021L312.025 419.064C312.98 419.901 314.181 420.298 315.442 419.952C316.963 419.534 318.044 418.111 318.044 416.535C318.044 415.286 317.366 414.106 316.289 413.475Z" fill="#20406A"/>
<path fill-rule="evenodd" clip-rule="evenodd" d="M229.102 420.244C227.917 419.806 226.686 419.983 225.639 420.565L225.165 420.694C223.84 421.056 223.173 422.152 223.036 423.432C222.938 424.349 223.452 425.075 224.025 425.73C224.603 426.878 225.679 427.714 226.96 428.011C229.097 428.506 231.315 427.378 231.915 425.198C232.535 422.944 231.159 421.004 229.102 420.244Z" fill="#20406A"/>
<path fill-rule="evenodd" clip-rule="evenodd" d="M216.872 412.221C216.433 411.472 215.613 411 214.744 411C213.795 411 213.156 411.504 212.615 412.221C212.522 412.345 212.429 412.468 212.336 412.592C211.872 413.206 211.97 414.214 212.336 414.839C212.726 415.504 213.479 415.96 214.259 415.942C214.42 415.938 214.582 415.935 214.744 415.931C216.597 415.887 217.835 413.866 216.872 412.221Z" fill="#20406A"/>
<path fill-rule="evenodd" clip-rule="evenodd" d="M179.371 258.482C180.84 259.558 181.688 260.879 181.285 262.798C181.675 262.41 182.071 262.027 182.455 261.632C182.894 261.181 183.311 260.707 183.76 260.266C184.368 259.67 184.764 259.761 184.878 260.606C184.999 261.499 185.043 262.426 184.95 263.32C184.828 264.525 184.553 265.716 184.324 266.908C184.178 267.663 183.884 267.811 183.164 267.525C182.297 267.18 181.444 266.795 180.562 266.496C180.246 266.388 179.864 266.478 179.513 266.538C181.558 267.214 182.266 268.879 181.198 270.756C180.175 272.556 178.527 273.542 176.507 273.828C174.222 274.152 171.92 274.36 169.626 274.621C169.178 274.672 168.73 274.732 168.28 274.849C169.429 274.833 170.565 274.815 171.438 275.726C170.881 276.002 169.686 276.137 168.875 275.804C167.469 275.225 166.022 274.968 164.519 274.864C164.081 274.834 163.633 274.633 163.235 274.422C162.525 274.045 161.825 273.637 161.165 273.178C160.109 272.442 158.963 271.963 157.692 271.752C157.452 271.712 157.23 271.557 157 271.454C157.012 271.388 157.023 271.322 157.035 271.256C157.388 271.123 157.741 270.989 158.17 270.827C157.91 270.669 157.717 270.553 157.462 270.398C157.661 270.257 157.815 270.112 157.996 270.027C159.373 269.381 159.973 268.209 160.268 266.804C160.454 265.916 160.561 264.977 160.939 264.171C161.333 263.33 161.905 262.509 162.583 261.874C164.709 259.886 167.329 258.933 170.195 258.61C172.1 258.397 174.004 258.147 175.915 258.027C177.672 257.916 179.484 258.267 179.484 258.267L179.371 258.482Z" fill="#D1E5FC"/>
<path fill-rule="evenodd" clip-rule="evenodd" d="M142.578 251.375C143.732 252.212 144.398 253.239 144.081 254.732C144.388 254.43 144.699 254.132 145 253.825C145.346 253.474 145.673 253.105 146.026 252.762C146.503 252.299 146.815 252.369 146.904 253.027C146.999 253.722 147.033 254.442 146.961 255.138C146.865 256.075 146.649 257.001 146.469 257.928C146.354 258.516 146.123 258.631 145.558 258.408C144.876 258.14 144.206 257.84 143.513 257.608C143.265 257.524 142.964 257.594 142.689 257.641C144.295 258.167 144.852 259.462 144.013 260.921C143.209 262.322 141.914 263.088 140.327 263.311C138.531 263.563 136.723 263.725 134.92 263.927C134.568 263.967 134.217 264.014 133.863 264.105C134.765 264.092 135.658 264.078 136.344 264.787C135.907 265.002 134.967 265.106 134.33 264.847C133.226 264.397 132.089 264.197 130.908 264.116C130.564 264.093 130.211 263.937 129.899 263.773C129.341 263.479 128.791 263.162 128.273 262.805C127.443 262.233 126.543 261.86 125.544 261.696C125.355 261.665 125.181 261.544 125 261.464C125.009 261.413 125.018 261.362 125.028 261.31C125.305 261.207 125.582 261.103 125.92 260.977C125.715 260.854 125.563 260.763 125.363 260.643C125.52 260.534 125.64 260.42 125.782 260.354C126.864 259.852 127.336 258.94 127.568 257.848C127.714 257.157 127.798 256.427 128.095 255.8C128.405 255.146 128.854 254.507 129.387 254.013C131.057 252.467 133.115 251.726 135.368 251.475C136.864 251.308 138.36 251.114 139.862 251.021C141.242 250.935 142.666 251.208 142.666 251.208L142.578 251.375Z" fill="#D1E5FC"/>
<path fill-rule="evenodd" clip-rule="evenodd" d="M90.5775 255.375C91.7315 256.212 92.3978 257.239 92.0809 258.732C92.3876 258.43 92.6987 258.132 93.0001 257.825C93.3456 257.474 93.6732 257.105 94.026 256.762C94.5035 256.299 94.8145 256.369 94.9043 257.027C94.9994 257.722 95.0334 258.442 94.9611 259.138C94.8645 260.075 94.6486 261.001 94.4685 261.928C94.3545 262.516 94.1235 262.631 93.5577 262.408C92.8758 262.14 92.2057 261.84 91.5127 261.608C91.2647 261.524 90.9643 261.594 90.6886 261.641C92.2954 262.167 92.8516 263.462 92.013 264.921C91.2089 266.322 89.9141 267.088 88.3273 267.311C86.5312 267.563 84.723 267.725 82.9202 267.927C82.5684 267.967 82.2165 268.014 81.8628 268.105C82.7654 268.092 83.6583 268.078 84.344 268.787C83.9068 269.002 82.9673 269.106 82.3301 268.847C81.2256 268.397 80.089 268.197 78.9079 268.116C78.5638 268.093 78.2115 267.937 77.899 267.773C77.3409 267.479 76.791 267.162 76.2728 266.805C75.4429 266.233 74.5427 265.86 73.544 265.696C73.3552 265.665 73.181 265.544 73 265.464C73.0092 265.413 73.018 265.362 73.0277 265.31C73.3048 265.207 73.5823 265.103 73.9196 264.977C73.7148 264.854 73.5634 264.763 73.363 264.643C73.5197 264.534 73.6401 264.42 73.7823 264.354C74.8645 263.852 75.3357 262.94 75.5676 261.848C75.7142 261.157 75.7982 260.427 76.0951 259.8C76.4048 259.146 76.8541 258.507 77.387 258.013C79.0568 256.467 81.1154 255.726 83.3676 255.475C84.8643 255.308 86.3604 255.114 87.8619 255.021C89.242 254.935 90.6658 255.208 90.6658 255.208L90.5775 255.375Z" fill="#D1E5FC"/>
<circle cx="4" cy="4" r="4" transform="matrix(-1 0 0 1 222 6)" fill="#D3E7FF"/>
<circle cx="4" cy="4" r="4" transform="matrix(-1 0 0 1 230 31)" fill="#D3E7FF"/>
<circle cx="4" cy="4" r="4" transform="matrix(-1 0 0 1 223 54)" fill="#D3E7FF"/>
<circle cx="2" cy="2" r="2" transform="matrix(-1 0 0 1 227 17)" fill="#D3E7FF"/>
<circle cx="2" cy="2" r="2" transform="matrix(-1 0 0 1 219 25)" fill="#D3E7FF"/>
<circle cx="2" cy="2" r="2" transform="matrix(-1 0 0 1 231 67)" fill="#D3E7FF"/>
<circle cx="2" cy="2" r="2" transform="matrix(-1 0 0 1 222 45)" fill="#D3E7FF"/>
<circle cx="2" cy="2" r="2" transform="matrix(-1 0 0 1 221 72)" fill="#D3E7FF"/>
<circle cx="2" cy="2" r="2" transform="matrix(-1 0 0 1 236 91)" fill="#D3E7FF"/>
<circle cx="2" cy="2" r="2" transform="matrix(-1 0 0 1 226 82)" fill="#D3E7FF"/>
<circle cx="2" cy="2" r="2" transform="matrix(-1 0 0 1 240 111)" fill="#D3E7FF"/>
<circle cx="2" cy="2" r="2" transform="matrix(-1 0 0 1 229 103)" fill="#D3E7FF"/>
<path fill-rule="evenodd" clip-rule="evenodd" d="M268.918 91.3518L268.657 86.3768C268.657 86.3768 279.916 86.9072 282.163 97.6856C282.639 101.848 279.973 95.8521 279.973 95.8521L268.918 91.3518Z" fill="url(#paint56_linear_22_2618)"/>
<path fill-rule="evenodd" clip-rule="evenodd" d="M264.472 94.0125C264.472 94.0125 277.421 84.9077 283.039 100.084C284.934 105.967 280.067 122.185 278.905 123.958C278.701 124.401 278.39 127.235 279.555 127.174C280.72 127.113 288.751 123.283 290.743 117.966C291.002 116.956 296.164 120.329 296.884 134.064C297.153 140.423 293.747 147.363 292.739 147.416C291.731 147.468 288.426 140.741 278.84 139.101C278.325 139.154 280.432 148.795 285.859 153.885C291.285 158.976 293.543 180.628 280.136 186.918C266.73 193.207 259.517 183.476 259.254 178.475C258.992 173.474 259.119 167.281 268.171 164.595C273.639 163.089 279.667 170.261 277.464 174.662C275.261 179.062 271.568 181.033 267.877 178.023C264.186 175.013 267.106 170.633 268.484 170.561C269.861 170.489 269.857 170.768 269.857 170.768C269.857 170.768 268.739 171.161 268.156 171.683C267.572 172.205 265.638 175.833 269.24 177.223C272.842 178.613 275.962 174.695 274.746 172.069C273.53 169.442 269.661 165.452 265.139 170.736C260.617 176.021 266.315 181.879 271.609 182.27C276.902 182.661 280.368 176.869 280.216 173.964C280.064 171.059 279.111 162.676 271.681 158.223C264.25 153.77 257.943 152.127 253.774 143.208C249.605 134.29 254.467 122.432 261.812 118.204C269.157 113.977 271.946 110.391 271.921 109.915C271.896 109.438 269.759 107.73 263.678 109.631C257.597 111.532 251.523 114.435 250.329 115.942C249.135 117.449 249.062 117.964 246.636 117.412C244.21 116.861 243.852 113.386 245.073 112.133C246.294 110.88 247.401 110.828 249.256 111.102C249.772 111.228 259.755 104.516 260.089 101.837C260.423 99.1588 258.828 95.7724 262.864 94.0968C263.852 94.646 264.472 94.0125 264.472 94.0125Z" fill="url(#paint57_linear_22_2618)"/>
<mask id="mask6_22_2618" style="mask-type:luminance" maskUnits="userSpaceOnUse" x="244" y="91" width="53" height="98">
<path fill-rule="evenodd" clip-rule="evenodd" d="M264.472 94.0125C264.472 94.0125 277.421 84.9077 283.039 100.084C284.934 105.967 280.067 122.185 278.905 123.958C278.701 124.401 278.39 127.235 279.555 127.174C280.72 127.113 288.751 123.283 290.743 117.966C291.002 116.956 296.164 120.329 296.884 134.064C297.153 140.423 293.747 147.363 292.739 147.416C291.731 147.468 288.426 140.741 278.84 139.101C278.325 139.154 280.432 148.795 285.859 153.885C291.285 158.976 293.543 180.628 280.136 186.918C266.73 193.207 259.517 183.476 259.254 178.475C258.992 173.474 259.119 167.281 268.171 164.595C273.639 163.089 279.667 170.261 277.464 174.662C275.261 179.062 271.568 181.033 267.877 178.023C264.186 175.013 267.106 170.633 268.484 170.561C269.861 170.489 269.857 170.768 269.857 170.768C269.857 170.768 268.739 171.161 268.156 171.683C267.572 172.205 265.638 175.833 269.24 177.223C272.842 178.613 275.962 174.695 274.746 172.069C273.53 169.442 269.661 165.452 265.139 170.736C260.617 176.021 266.315 181.879 271.609 182.27C276.902 182.661 280.368 176.869 280.216 173.964C280.064 171.059 279.111 162.676 271.681 158.223C264.25 153.77 257.943 152.127 253.774 143.208C249.605 134.29 254.467 122.432 261.812 118.204C269.157 113.977 271.946 110.391 271.921 109.915C271.896 109.438 269.759 107.73 263.678 109.631C257.597 111.532 251.523 114.435 250.329 115.942C249.135 117.449 249.062 117.964 246.636 117.412C244.21 116.861 243.852 113.386 245.073 112.133C246.294 110.88 247.401 110.828 249.256 111.102C249.772 111.228 259.755 104.516 260.089 101.837C260.423 99.1588 258.828 95.7724 262.864 94.0968C263.852 94.646 264.472 94.0125 264.472 94.0125Z" fill="white"/>
</mask>
<g mask="url(#mask6_22_2618)">
<path fill-rule="evenodd" clip-rule="evenodd" d="M291.696 121.193C291.696 121.193 296.173 138.276 290.68 142.64C287.567 140.322 280.574 138 280.574 138C280.574 138 280.214 129.594 280.214 128.94C285.899 126.771 291.696 121.193 291.696 121.193Z" fill="#E96443"/>
<path fill-rule="evenodd" clip-rule="evenodd" d="M246.089 130.166C246.089 130.166 257.018 125.638 272.534 130.044C276.824 133.828 270.438 135.196 270.438 135.196C270.438 135.196 255.314 132.019 251.62 133.426C247.927 134.833 246.089 130.166 246.089 130.166Z" fill="#E96443"/>
<path fill-rule="evenodd" clip-rule="evenodd" d="M252.088 120.008C252.088 120.008 261.425 115.564 274.764 120.085C278.471 123.899 273.005 125.218 273.005 125.218C273.005 125.218 260.012 121.93 256.855 123.309C253.699 124.688 252.088 120.008 252.088 120.008Z" fill="#E96443"/>
<path fill-rule="evenodd" clip-rule="evenodd" d="M258.708 112.703C258.708 112.703 263.012 109.015 275.442 112.364C278.875 115.256 273.752 116.316 273.752 116.316C273.752 116.316 266.099 114.107 263.136 115.192C260.173 116.277 258.708 112.703 258.708 112.703Z" fill="#E96443"/>
<path fill-rule="evenodd" clip-rule="evenodd" d="M244.1 141.442C244.1 141.442 255.502 136.399 271.735 141.416C276.234 145.686 269.566 147.197 269.566 147.197C269.566 147.197 253.748 143.564 249.894 145.13C246.04 146.696 244.1 141.442 244.1 141.442Z" fill="#E96443"/>
<path d="M265.803 175.335C265.803 175.335 266.946 175.736 267.953 175.335" stroke="#E96443"/>
<path d="M267.679 178.781C268.263 179.071 269.953 178.301 269.953 177.075" stroke="#E96443"/>
<path d="M272.273 176.386C272.856 176.677 272.273 181.165 272.273 179.939" stroke="#E96443"/>
<path d="M265.825 171.641C266.145 171.898 267.31 172.968 268.392 172.899" stroke="#E96443"/>
</g>
<circle cx="264.372" cy="98.1572" r="2" transform="rotate(-3 264.372 98.1572)" fill="#904E95"/>
<ellipse cx="247.475" cy="114.347" rx="2.91307" ry="3.10279" transform="rotate(-3 247.475 114.347)" fill="#904E95" stroke="url(#paint58_linear_22_2618)"/>
<path fill-rule="evenodd" clip-rule="evenodd" d="M-9.25964 141.359L-8.9342 148.427C-8.9342 148.427 -8.79617 153.433 -2.18788 153.433C4.4204 153.433 15.0889 151.307 16.7164 149.587C18.3438 147.866 -9.25964 141.359 -9.25964 141.359Z" fill="url(#paint59_linear_22_2618)"/>
<path fill-rule="evenodd" clip-rule="evenodd" d="M-8.9342 131.293C-8.9342 131.293 -8.9342 122.683 -8.9342 121.02C-8.9342 119.356 -6.97672 116 -1.54885 116C3.87901 116 13.4839 116.651 20.2513 122.384C27.0186 128.117 -2.10428 129.149 -2.10428 129.149L-8.9342 131.293Z" fill="url(#paint60_linear_22_2618)"/>
<path fill-rule="evenodd" clip-rule="evenodd" d="M-13.2984 134.635C-13.2984 134.635 -7.88257 129.403 -5.95993 127.036C-4.0373 124.669 2.82227 118.779 10.0328 119.402C17.2434 120.024 18.6651 120.901 21.8672 123.221C25.0692 125.541 24.1868 128.903 29.7165 131.769C35.2462 134.635 33.9933 137.661 33.35 138.4C32.7067 139.139 27.181 147.587 16.5042 150.136C5.82727 152.685 -2.18917 149.967 -8.78803 142.301C-11.2732 139.527 -12.7698 138.881 -13.4998 137.046C-14.2298 135.211 -13.2984 134.635 -13.2984 134.635Z" fill="url(#paint61_linear_22_2618)"/>
<mask id="mask7_22_2618" style="mask-type:luminance" maskUnits="userSpaceOnUse" x="-14" y="119" width="48" height="33">
<path fill-rule="evenodd" clip-rule="evenodd" d="M-13.2984 134.635C-13.2984 134.635 -7.88257 129.403 -5.95993 127.036C-4.0373 124.669 2.82227 118.779 10.0328 119.402C17.2434 120.024 18.6651 120.901 21.8672 123.221C25.0692 125.541 24.1868 128.903 29.7165 131.769C35.2462 134.635 33.9933 137.661 33.35 138.4C32.7067 139.139 27.181 147.587 16.5042 150.136C5.82727 152.685 -2.18917 149.967 -8.78803 142.301C-11.2732 139.527 -12.7698 138.881 -13.4998 137.046C-14.2298 135.211 -13.2984 134.635 -13.2984 134.635Z" fill="white"/>
</mask>
<g mask="url(#mask7_22_2618)">
<path opacity="0.7" d="M-0.12793 149.71C-0.12793 149.71 6.88023 141.064 6.29652 135.211C5.71282 129.357 4.34193 123.144 -0.12793 117.348" stroke="url(#paint62_linear_22_2618)" stroke-width="3.69767"/>
<path opacity="0.5" d="M6.65112 154C6.65112 154 16.3314 141.064 15.7477 135.211C15.1639 129.357 13.7931 123.144 9.3232 117.348" stroke="url(#paint63_linear_22_2618)" stroke-width="3.69767"/>
<path opacity="0.3" d="M15.2791 154C15.2791 154 24.9593 141.064 24.3756 135.211C23.7919 129.357 22.421 123.144 17.9511 117.348" stroke="url(#paint64_linear_22_2618)" stroke-width="3.69767"/>
</g>
<ellipse cx="22.6745" cy="131.936" rx="1.23256" ry="1.22581" fill="#C26D20"/>
<circle cx="4" cy="4" r="4" transform="matrix(-1 0 0 1 48 117)" fill="#D3E7FF"/>
<circle cx="2" cy="2" r="2" transform="matrix(-1 0 0 1 48 129)" fill="#D3E7FF"/>
<circle cx="2" cy="2" r="2" transform="matrix(-1 0 0 1 41 133)" fill="#D3E7FF"/>
<circle cx="2" cy="2" r="2" transform="matrix(-1 0 0 1 37 111)" fill="#D3E7FF"/>
<path fill-rule="evenodd" clip-rule="evenodd" d="M15.0027 217.702L15.4496 227.374C15.4496 227.374 15.6392 234.225 24.714 234.225C33.7889 234.225 48.4395 231.315 50.6744 228.96C52.9093 226.606 15.0027 217.702 15.0027 217.702Z" fill="url(#paint65_linear_22_2618)"/>
<path fill-rule="evenodd" clip-rule="evenodd" d="M15.4497 203.927C15.4497 203.927 15.4497 192.146 15.4497 189.869C15.4497 187.592 18.1378 183 25.5917 183C33.0455 183 46.2355 183.89 55.5288 191.736C64.8222 199.582 24.8289 200.994 24.8289 200.994L15.4497 203.927Z" fill="url(#paint66_linear_22_2618)"/>
<path fill-rule="evenodd" clip-rule="evenodd" d="M9.45657 208.5C9.45657 208.5 16.8939 201.341 19.5342 198.102C22.1744 194.863 31.5944 186.803 41.4963 187.655C51.3982 188.507 53.3507 189.707 57.7479 192.882C62.1451 196.057 60.9334 200.656 68.5271 204.578C76.1208 208.5 74.4002 212.641 73.5168 213.653C72.6334 214.664 65.0452 226.224 50.3831 229.712C35.721 233.201 24.7124 229.481 15.6505 218.991C12.2377 215.194 10.1825 214.31 9.17999 211.799C8.17749 209.289 9.45657 208.5 9.45657 208.5Z" fill="url(#paint67_linear_22_2618)"/>
<mask id="mask8_22_2618" style="mask-type:luminance" maskUnits="userSpaceOnUse" x="8" y="187" width="67" height="44">
<path fill-rule="evenodd" clip-rule="evenodd" d="M9.45657 208.5C9.45657 208.5 16.8939 201.341 19.5342 198.102C22.1744 194.863 31.5944 186.803 41.4963 187.655C51.3982 188.507 53.3507 189.707 57.7479 192.882C62.1451 196.057 60.9334 200.656 68.5271 204.578C76.1208 208.5 74.4002 212.641 73.5168 213.653C72.6334 214.664 65.0452 226.224 50.3831 229.712C35.721 233.201 24.7124 229.481 15.6505 218.991C12.2377 215.194 10.1825 214.31 9.17999 211.799C8.17749 209.289 9.45657 208.5 9.45657 208.5Z" fill="white"/>
</mask>
<g mask="url(#mask8_22_2618)">
<path opacity="0.7" d="M27.543 229.129C27.543 229.129 37.167 217.299 36.3654 209.289C35.5638 201.278 33.6812 192.775 27.543 184.845" stroke="url(#paint68_linear_22_2618)" stroke-width="5.07786"/>
<path opacity="0.8" d="M14.8484 229.129C14.8484 229.129 24.4724 217.299 23.6708 209.289C22.8692 201.278 20.9867 192.775 14.8484 184.845" stroke="url(#paint69_linear_22_2618)" stroke-width="5.07786"/>
<path opacity="0.5" d="M36.8524 235C36.8524 235 50.1459 217.299 49.3443 209.289C48.5427 201.278 46.6601 192.775 40.5219 184.845" stroke="url(#paint70_linear_22_2618)" stroke-width="5.07786"/>
<path opacity="0.3" d="M48.7007 235C48.7007 235 61.9941 217.299 61.1926 209.289C60.391 201.278 58.5084 192.775 52.3701 184.845" stroke="url(#paint71_linear_22_2618)" stroke-width="5.07786"/>
</g>
<ellipse cx="58.8564" cy="204.806" rx="1.69262" ry="1.67742" fill="#C26D20"/>
<path fill-rule="evenodd" clip-rule="evenodd" d="M12.836 207.096C12.836 207.096 7.96929 200.976 5.94023 200.169C3.91117 199.362 3.00197 198.689 3.00197 202.811C3.00197 206.934 3.00197 219.777 3.00197 219.777C3.00197 219.777 2.92392 223.361 5.94023 221.231C8.95655 219.101 12.836 215.552 12.836 214.781C12.836 214.01 12.836 207.096 12.836 207.096Z" fill="url(#paint72_linear_22_2618)"/>
<circle cx="2" cy="2" r="2" transform="matrix(-1 0 0 1 82 204)" fill="#D3E7FF"/>
<circle cx="2" cy="2" r="2" transform="matrix(-1 0 0 1 83 196)" fill="#D3E7FF"/>
<circle cx="2" cy="2" r="2" transform="matrix(-1 0 0 1 78 187)" fill="#D3E7FF"/>
<path d="M244.369 239.706C244.369 239.706 242.973 234.676 239.007 229.873C235.041 225.07 232.033 225.578 230.959 225.843C229.886 226.108 227.139 225.37 223.952 226.935C222.931 228.874 221.516 230.698 220.706 232.973C220.128 234.593 219.431 235.921 218.063 236.05C214.775 236.36 215.464 236.704 211.968 237.691C208.472 238.679 221.371 247.569 222.012 247.954C222.654 248.34 232.292 257.459 238.306 251.395C244.321 245.331 244.369 239.706 244.369 239.706Z" fill="url(#paint73_linear_22_2618)"/>
<mask id="mask9_22_2618" style="mask-type:luminance" maskUnits="userSpaceOnUse" x="218" y="218" width="32" height="31">
<path fill-rule="evenodd" clip-rule="evenodd" d="M249.981 238.634L240.978 218L218.001 228.026L227.005 248.659L249.981 238.634Z" fill="white"/>
</mask>
<g mask="url(#mask9_22_2618)">
<path fill-rule="evenodd" clip-rule="evenodd" d="M228.179 234.656C228.753 234.803 228.81 234.581 229.16 234.278C229.933 233.609 230.708 232.939 231.481 232.27C232.24 231.613 233.085 230.922 234.087 230.901C234.593 230.89 235.089 231.055 235.545 231.276C237.03 231.997 238.162 233.286 239.112 234.637C240.062 235.989 240.879 237.441 241.963 238.687C242.419 239.211 242.931 239.703 243.553 240.009C244.56 240.503 245.78 240.453 246.81 240.017C247.841 239.58 248.541 239.277 249.193 238.366C248.792 238.411 247.886 237.447 247.486 237.4C247.879 237.014 242.783 227.185 240.688 225.277C239.236 223.956 238.217 222.253 235.58 223.463C235.387 223.491 235.197 223.405 235.018 223.326C233.047 222.453 231.147 222.531 228.656 223.4C225.607 224.464 223.365 227.463 221.668 230.212C221.057 231.219 220.658 231.88 220.519 232.233C220.38 232.585 220.557 234.15 221.016 234.821C221.475 235.493 222.123 235.02 222.873 234.71C223.408 234.487 224.13 234.195 224.42 233.693C224.42 233.693 227.606 234.509 228.179 234.656Z" fill="url(#paint74_linear_22_2618)"/>
</g>
<path fill-rule="evenodd" clip-rule="evenodd" d="M236.165 242.756C236.165 242.756 223.967 232.754 220.539 232.227C221.245 230.597 221.696 230.166 221.696 230.166L237.264 240.38L236.165 242.756Z" fill="#2979ED"/>
<path d="M118.618 275.168C118.618 275.168 115.888 274.301 115.881 273.349C115.875 272.398 114.73 267.799 110.388 270.178C107.338 271.903 108.055 271.961 106.616 272.749C105.178 273.537 103.207 274.617 101.333 275.138C99.4596 275.66 93.0142 273.871 87.9198 276.565C82.8254 279.259 78.886 280.916 77.4343 282.309C75.9826 283.703 76.334 285.064 76.323 287.28C76.3121 289.497 75.6985 290.414 75.6525 291.233C75.6064 292.052 75.5362 295.017 76.6913 295.44C77.8464 295.864 87.0205 296.283 88.6316 295.4C90.2427 294.518 97.009 292.26 99.4931 289.45C101.977 286.639 107.907 285.54 109.134 284.868C110.361 284.196 114.45 283.774 115.791 283.371C117.132 282.967 118.618 275.168 118.618 275.168Z" fill="url(#paint75_linear_22_2618)"/>
<path fill-rule="evenodd" clip-rule="evenodd" d="M239.16 286.145C240.171 287.91 241.473 288.663 242.753 290.952C244.032 293.24 244.967 293.564 245.266 293.234C245.566 292.905 245.891 292.555 245.144 291.476C244.397 290.397 244.815 289.952 245.621 289.861C246.428 289.77 247.074 289.934 249.299 291.954C251.523 293.975 253.318 294.255 253.61 292.575C253.902 290.896 253.366 289.058 252.362 287.323C251.358 285.588 250.887 285.16 248.393 284.748C245.898 284.337 243.126 284.358 241.917 282.47C240.707 280.582 238.148 284.379 239.16 286.145Z" fill="#1266E8"/>
<path fill-rule="evenodd" clip-rule="evenodd" d="M204.556 308.707C206.474 308.968 208.71 312.116 209.146 313.101C209.582 314.087 211.466 314.254 211.865 315.156C212.265 316.059 211.515 317.352 210.143 316.927C208.771 316.502 207.642 315.684 207.642 315.684C207.642 315.684 206.422 315.022 205.922 316.435C205.422 317.848 205.999 320.195 205.999 320.195C205.999 320.195 206.16 322.367 207.783 322.966C209.405 323.565 208.748 324.247 207.946 324.597C207.144 324.947 205.851 324.703 203.986 323.116C202.122 321.529 201.086 320.621 200.475 317.645C199.865 314.67 199.792 311.904 199.12 311.08C198.448 310.256 202.639 308.446 204.556 308.707Z" fill="#1266E8"/>
<path d="M115.331 288.997C115.331 288.997 113.283 286.991 113.645 285.51C114.008 284.029 110.927 278.847 107.071 280.71C103.216 282.573 101.361 284.68 99.3856 284.424C97.4105 284.169 95.6334 286.319 90.562 288.124C85.4905 289.929 80.3378 291.174 76.9968 292.788C73.6558 294.403 68.9767 300.54 68.2268 301.331C68.138 301.633 67.0478 303.637 67.9743 304.603C68.5087 305.16 69.6303 304.352 70.2634 304.898C70.8966 305.444 70.6289 306.401 71.3085 307.061C72.9469 308.652 74.8361 307.758 75.2696 308.358C75.8696 309.188 75.7261 309.513 76.9196 310.458C78.1131 311.404 82.6073 309.058 83.2828 308.993C83.9583 308.929 91.4334 305.054 92.5413 304.519C93.6492 303.983 101.177 300.657 101.745 298.886C102.313 297.114 105.375 293.301 106.251 293.386C107.126 293.47 109.423 298.734 110.386 298.268C111.35 297.803 115.331 288.997 115.331 288.997Z" fill="url(#paint76_linear_22_2618)"/>
<path d="M146.156 294.56C146.156 294.56 142.092 298.587 138.295 303.296C136.909 305.008 132.344 298.749 128.517 296.758C124.69 294.767 115.838 289.24 115.331 288.997C114.823 288.755 109.31 297.553 109.765 297.94C111.637 301.819 123.248 308.576 128.771 315.131C134.295 321.686 139.202 321.818 146.367 315.71C153.532 309.603 156.958 306.707 158.505 304.909C160.053 303.112 146.156 294.56 146.156 294.56Z" fill="url(#paint77_linear_22_2618)"/>
<path fill-rule="evenodd" clip-rule="evenodd" d="M110.616 299.237C110.616 299.237 110.043 298.769 109.31 297.553C109.046 297.005 111.913 293.078 111.913 293.078C111.913 293.078 115.044 288.681 115.499 288.943C115.954 289.205 116.359 289.489 116.677 289.694C116.995 289.9 110.616 299.237 110.616 299.237Z" fill="#064DD6"/>
<path d="M166.116 276.311C166.116 276.311 160.057 286.487 157.619 289.089C155.182 291.692 155.245 291.793 153.671 293.262C152.097 294.732 149.96 297.96 146.473 294.816C142.986 291.673 137.539 290.349 135.59 289.267C133.642 288.184 127.935 286.398 125.382 285.471C122.829 284.545 117.5 283.407 115.708 283.636C113.916 283.865 118.902 277.053 118.055 274.934C118.373 275.058 123.292 278.367 128.043 277.964C132.794 277.562 141.29 278.925 142.513 280.454C143.736 281.983 149.201 282.901 149.842 282.55C150.484 282.198 152.789 280.935 153.643 280.467C154.498 279.999 166.116 276.311 166.116 276.311Z" fill="url(#paint78_linear_22_2618)"/>
<path d="M209.607 256.461C209.607 256.461 222.334 271.455 222.786 272.393C223.238 273.332 229.404 279.81 229.404 279.81C229.404 279.81 239.023 288.146 239.349 287.352C239.674 286.558 244.621 282.167 241.928 281.067C239.234 279.967 238.597 278.312 234.942 274.879C231.287 271.447 229.21 267.054 227.359 264.762C225.509 262.471 219.811 253.674 219.197 253.424C218.584 253.173 218.909 250.39 218.909 250.39L209.607 256.461Z" fill="url(#paint79_linear_22_2618)"/>
<path d="M163.926 269.237C163.926 269.237 154.275 284.567 152.159 287.332C150.042 290.096 143.176 297.611 143.176 297.611C143.176 297.611 141.715 302.538 146.471 306.669C151.226 310.8 156.553 306.732 157.774 305.606C160.19 303.42 164.86 297.371 167.656 294.569C170.452 291.767 176.823 280.867 180.708 278.611C184.593 276.355 163.926 269.237 163.926 269.237Z" fill="url(#paint80_linear_22_2618)"/>
<path d="M209.876 236.254C206.123 237.567 203.491 237.821 196.7 242.347C189.909 246.873 178.183 259.881 171.771 262.532C165.36 265.183 158.259 268.678 156.359 276.472C154.459 284.265 160.174 287.278 163.121 289.011C166.068 290.745 169.666 290.745 172.245 290.745C174.824 290.745 189.116 283.825 192.547 281.745C195.979 279.665 203.542 272.425 208.79 267.979C214.037 263.533 216.955 262.087 218.903 259.205C220.852 256.323 222.251 254.473 222.251 249.989C222.251 245.504 221.375 244.086 219.934 242.347C218.493 240.608 213.628 234.941 209.876 236.254Z" fill="url(#paint81_linear_22_2618)"/>
<path d="M207.256 249.442C211.349 250.465 213.366 255.82 209.435 260.389C205.504 264.958 199.791 270.41 200.393 276.863C200.994 283.316 199.134 283.224 200.764 289.209C202.393 295.194 206.707 306.966 206.187 307.975C205.666 308.985 199.191 312.118 198.43 310.932C197.614 309.663 196.921 306.478 195.523 303.147C192.55 296.062 189.713 295.117 189.747 281.557C189.79 264.219 199.944 252.646 199.944 252.646C199.944 252.646 203.163 248.42 207.256 249.442Z" fill="url(#paint82_linear_22_2618)"/>
<path d="M241.867 249.677C241.867 249.677 245.843 245.405 244.925 240.936C244.007 236.466 241.107 237.471 240.269 237.587C239.431 237.703 237.918 239.064 237.465 240.373C237.011 241.681 234.267 250.476 236.218 250.335C238.169 250.195 239.369 251.943 239.211 252.558C239.053 253.172 240.83 252.177 240.988 251.562C241.146 250.948 241.867 249.677 241.867 249.677Z" fill="url(#paint83_linear_22_2618)" fill-opacity="0.7" stroke="url(#paint84_linear_22_2618)" stroke-width="2.63974"/>
<path fill-rule="evenodd" clip-rule="evenodd" d="M232.611 248.656C233.354 248.688 238.157 251.226 239.955 252C241.754 252.775 239.287 254.477 238.233 254.613C237.179 254.749 232.747 257.119 229.703 253.956C226.659 250.793 231.867 248.624 232.611 248.656Z" fill="#064DD6"/>
<path d="M201.653 240.75C201.653 240.75 209.897 234.392 205.775 229.189C201.653 223.985 194.758 226.389 186.731 232.892C178.704 239.396 178.185 239.785 168.189 247.532C158.192 255.28 156.921 256.352 149.1 262.166C141.28 267.979 140.217 268.881 143.263 273.695C148.373 281.367 149.1 280.731 156.808 275.633C164.516 270.536 201.653 240.75 201.653 240.75Z" fill="url(#paint85_linear_22_2618)"/>
<mask id="mask10_22_2618" style="mask-type:luminance" maskUnits="userSpaceOnUse" x="141" y="226" width="66" height="54">
<path d="M201.653 240.75C201.653 240.75 209.897 234.392 205.775 229.189C201.653 223.985 194.758 226.389 186.731 232.892C178.704 239.396 178.185 239.785 168.189 247.532C158.192 255.28 156.921 256.352 149.1 262.166C141.28 267.979 140.217 268.881 143.263 273.695C148.373 281.367 149.1 280.731 156.808 275.633C164.516 270.536 201.653 240.75 201.653 240.75Z" fill="white"/>
</mask>
<g mask="url(#mask10_22_2618)">
<path fill-rule="evenodd" clip-rule="evenodd" d="M138.112 269.699C138.112 269.699 141.747 269.699 141.927 269.699C143.727 269.699 158.661 257.697 173.304 246.89C186.853 236.892 201.908 226.868 198.767 225.378C195.627 223.889 141.927 266.323 141.927 266.323L138.112 269.699Z" fill="#B2E4FF" fill-opacity="0.5"/>
</g>
<ellipse cx="230.425" cy="193.183" rx="2.87869" ry="2.89037" fill="#D3E7FF"/>
<ellipse cx="240.675" cy="200.483" rx="2.87869" ry="2.89037" transform="rotate(-26 240.675 200.483)" fill="#D3E7FF"/>
<ellipse cx="224.968" cy="175.176" rx="3.5184" ry="3.53267" transform="rotate(78 224.968 175.176)" fill="#D3E7FF"/>
<ellipse cx="236.348" cy="179.065" rx="3.19854" ry="3.21152" transform="rotate(-83 236.348 179.065)" fill="#D3E7FF"/>
<ellipse cx="237.622" cy="186.68" rx="1.43934" ry="1.44518" fill="#D3E7FF"/>
<ellipse cx="231.985" cy="186.382" rx="1.43934" ry="1.44518" fill="#D3E7FF"/>
<ellipse cx="228.014" cy="182.403" rx="1.43934" ry="1.44518" fill="#D3E7FF"/>
<ellipse cx="239.061" cy="193.183" rx="1.43934" ry="1.44518" fill="#D3E7FF"/>
<ellipse cx="235.679" cy="204.294" rx="0.992966" ry="0.994878" fill="#D3E7FF"/>
<ellipse cx="239.277" cy="217.964" rx="0.992966" ry="0.994878" fill="#D3E7FF"/>
<ellipse cx="237.622" cy="212.693" rx="1.43934" ry="1.44518" fill="#D3E7FF"/>
<ellipse cx="235.295" cy="196.994" rx="1.43934" ry="1.44518" fill="#D3E7FF"/>
<ellipse cx="238.342" cy="207.635" rx="1.43934" ry="1.44518" fill="#D3E7FF"/>
<ellipse cx="232.584" cy="201.131" rx="1.43934" ry="1.44518" fill="#D3E7FF"/>
<ellipse cx="241.43" cy="210.472" rx="0.992966" ry="0.994878" fill="#D3E7FF"/>
<path d="M205.181 229.182C205.181 229.182 213.036 224.127 215.637 232.477C218.238 240.827 217.017 243.236 234.176 254.429" stroke="#064DD6" stroke-width="3.66412"/>
<path fill-rule="evenodd" clip-rule="evenodd" d="M117.889 283.677C117.889 283.677 115.271 283.737 115.164 283.541C115.056 283.344 116.113 280.828 116.113 280.828C116.113 280.828 118.044 274.925 118.618 275.168C119.192 275.411 120.148 275.404 120.102 275.885C120.057 276.367 117.889 283.677 117.889 283.677Z" fill="#064DD6"/>
</g>
<defs>
<linearGradient id="paint0_linear_22_2618" x1="36.1083" y1="327.203" x2="1.61631" y2="421.969" gradientUnits="userSpaceOnUse">
<stop stop-color="#4FDCFF"/>
<stop offset="1" stop-color="#2285FF"/>
</linearGradient>
<linearGradient id="paint1_linear_22_2618" x1="302.561" y1="271.038" x2="307.277" y2="340.856" gradientUnits="userSpaceOnUse">
<stop stop-color="#FAD961"/>
<stop offset="1" stop-color="#F76B1C"/>
</linearGradient>
<linearGradient id="paint2_linear_22_2618" x1="328.714" y1="280.752" x2="328.714" y2="262.999" gradientUnits="userSpaceOnUse">
<stop stop-color="#FAD961"/>
<stop offset="1" stop-color="#F76B1C"/>
</linearGradient>
<linearGradient id="paint3_linear_22_2618" x1="349.694" y1="265.591" x2="381.195" y2="282.718" gradientUnits="userSpaceOnUse">
<stop stop-color="#FAD961"/>
<stop offset="1" stop-color="#F76B1C"/>
</linearGradient>
<linearGradient id="paint4_linear_22_2618" x1="19.1906" y1="16.9611" x2="20.5513" y2="3.07909" gradientUnits="userSpaceOnUse">
<stop stop-color="#FAD961"/>
<stop offset="1" stop-color="#F76B1C"/>
</linearGradient>
<linearGradient id="paint5_linear_22_2618" x1="345.205" y1="249.047" x2="316.591" y2="312.906" gradientUnits="userSpaceOnUse">
<stop stop-color="#FAD961"/>
<stop offset="1" stop-color="#F76B1C"/>
</linearGradient>
<linearGradient id="paint6_linear_22_2618" x1="370.595" y1="264.642" x2="370.595" y2="246.889" gradientUnits="userSpaceOnUse">
<stop stop-color="#FAD961"/>
<stop offset="1" stop-color="#F76B1C"/>
</linearGradient>
<linearGradient id="paint7_linear_22_2618" x1="369.182" y1="265.365" x2="344.974" y2="291.815" gradientUnits="userSpaceOnUse">
<stop stop-color="#FAD961"/>
<stop offset="1" stop-color="#F76B1C"/>
</linearGradient>
<linearGradient id="paint8_linear_22_2618" x1="388.149" y1="283.849" x2="389.51" y2="269.967" gradientUnits="userSpaceOnUse">
<stop stop-color="#FAD961"/>
<stop offset="1" stop-color="#F76B1C"/>
</linearGradient>
<linearGradient id="paint9_linear_22_2618" x1="393.836" y1="288.456" x2="376.426" y2="321.917" gradientUnits="userSpaceOnUse">
<stop stop-color="#FAD961"/>
<stop offset="1" stop-color="#F76B1C"/>
</linearGradient>
<linearGradient id="paint10_linear_22_2618" x1="46.895" y1="12.9737" x2="28.7297" y2="-17.2611" gradientUnits="userSpaceOnUse">
<stop stop-color="#FAD961"/>
<stop offset="1" stop-color="#F76B1C"/>
</linearGradient>
<linearGradient id="paint11_linear_22_2618" x1="345.056" y1="295.268" x2="345.39" y2="331.122" gradientUnits="userSpaceOnUse">
<stop stop-color="#FAD961"/>
<stop offset="1" stop-color="#F76B1C"/>
</linearGradient>
<linearGradient id="paint12_linear_22_2618" x1="366.457" y1="304.561" x2="367.818" y2="290.679" gradientUnits="userSpaceOnUse">
<stop stop-color="#FAD961"/>
<stop offset="1" stop-color="#F76B1C"/>
</linearGradient>
<linearGradient id="paint13_linear_22_2618" x1="319.49" y1="319.677" x2="362.449" y2="325.285" gradientUnits="userSpaceOnUse">
<stop stop-color="#FAD961"/>
<stop offset="1" stop-color="#F76B1C"/>
</linearGradient>
<linearGradient id="paint14_linear_22_2618" x1="360.821" y1="315.365" x2="342.655" y2="285.13" gradientUnits="userSpaceOnUse">
<stop stop-color="#FAD961"/>
<stop offset="1" stop-color="#F76B1C"/>
</linearGradient>
<linearGradient id="paint15_linear_22_2618" x1="-122.394" y1="321.097" x2="-122.394" y2="818.805" gradientUnits="userSpaceOnUse">
<stop stop-color="#295185"/>
<stop offset="1" stop-color="#416184"/>
</linearGradient>
<radialGradient id="paint16_radial_22_2618" cx="0" cy="0" r="1" gradientUnits="userSpaceOnUse" gradientTransform="translate(231.911 469.114) rotate(-3.86608) scale(43.1867 43.6825)">
<stop offset="0.09" stop-color="#FF9721"/>
<stop offset="0.32" stop-color="#FF8123"/>
<stop offset="0.64" stop-color="#FF6627"/>
</radialGradient>
<radialGradient id="paint17_radial_22_2618" cx="0" cy="0" r="1" gradientUnits="userSpaceOnUse" gradientTransform="translate(231.911 469.114) rotate(-3.86608) scale(43.1867 43.6825)">
<stop stop-color="#E72100"/>
<stop offset="0.9" stop-color="#740B00"/>
</radialGradient>
<radialGradient id="paint18_radial_22_2618" cx="0" cy="0" r="1" gradientUnits="userSpaceOnUse" gradientTransform="translate(234.312 473.656) rotate(-3.86608) scale(31.4498 31.8109)">
<stop stop-color="#E72100"/>
<stop offset="0.9" stop-color="#740B00"/>
</radialGradient>
<radialGradient id="paint19_radial_22_2618" cx="0" cy="0" r="1" gradientUnits="userSpaceOnUse" gradientTransform="translate(234.312 473.656) rotate(-3.86608) scale(31.4498 31.8109)">
<stop stop-color="#E72100"/>
<stop offset="0.9" stop-color="#740B00"/>
</radialGradient>
<radialGradient id="paint20_radial_22_2618" cx="0" cy="0" r="1" gradientUnits="userSpaceOnUse" gradientTransform="translate(234.312 473.656) rotate(-3.86608) scale(31.4498 31.8109)">
<stop stop-color="#E72100"/>
<stop offset="0.9" stop-color="#740B00"/>
</radialGradient>
<radialGradient id="paint21_radial_22_2618" cx="0" cy="0" r="1" gradientUnits="userSpaceOnUse" gradientTransform="translate(234.312 473.656) rotate(-3.86608) scale(31.4498 31.8109)">
<stop stop-color="#E72100"/>
<stop offset="0.9" stop-color="#740B00"/>
</radialGradient>
<linearGradient id="paint22_linear_22_2618" x1="236.038" y1="457.738" x2="250.389" y2="460.486" gradientUnits="userSpaceOnUse">
<stop stop-color="#E72100"/>
<stop offset="0.9" stop-color="#740B00"/>
</linearGradient>
<linearGradient id="paint23_linear_22_2618" x1="229.53" y1="486.322" x2="262.468" y2="469.441" gradientUnits="userSpaceOnUse">
<stop stop-color="#E72100"/>
<stop offset="0.9" stop-color="#740B00"/>
</linearGradient>
<linearGradient id="paint24_linear_22_2618" x1="228.242" y1="461.349" x2="228.795" y2="461.086" gradientUnits="userSpaceOnUse">
<stop stop-color="#E72100"/>
<stop offset="0.9" stop-color="#740B00"/>
</linearGradient>
<linearGradient id="paint25_linear_22_2618" x1="229.487" y1="462.965" x2="230.039" y2="462.69" gradientUnits="userSpaceOnUse">
<stop stop-color="#E72100"/>
<stop offset="0.9" stop-color="#740B00"/>
</linearGradient>
<linearGradient id="paint26_linear_22_2618" x1="230.385" y1="464.492" x2="230.947" y2="464.247" gradientUnits="userSpaceOnUse">
<stop stop-color="#E72100"/>
<stop offset="0.9" stop-color="#740B00"/>
</linearGradient>
<linearGradient id="paint27_linear_22_2618" x1="231.201" y1="466.117" x2="231.779" y2="465.914" gradientUnits="userSpaceOnUse">
<stop stop-color="#E72100"/>
<stop offset="0.9" stop-color="#740B00"/>
</linearGradient>
<linearGradient id="paint28_linear_22_2618" x1="232.25" y1="468.052" x2="232.828" y2="467.85" gradientUnits="userSpaceOnUse">
<stop stop-color="#E72100"/>
<stop offset="0.9" stop-color="#740B00"/>
</linearGradient>
<linearGradient id="paint29_linear_22_2618" x1="233.259" y1="469.983" x2="233.838" y2="469.78" gradientUnits="userSpaceOnUse">
<stop stop-color="#E72100"/>
<stop offset="0.9" stop-color="#740B00"/>
</linearGradient>
<linearGradient id="paint30_linear_22_2618" x1="248.657" y1="463.681" x2="248.935" y2="464.237" gradientUnits="userSpaceOnUse">
<stop stop-color="#E72100"/>
<stop offset="0.9" stop-color="#740B00"/>
</linearGradient>
<linearGradient id="paint31_linear_22_2618" x1="245.651" y1="465.24" x2="245.939" y2="465.791" gradientUnits="userSpaceOnUse">
<stop stop-color="#E72100"/>
<stop offset="0.9" stop-color="#740B00"/>
</linearGradient>
<linearGradient id="paint32_linear_22_2618" x1="243.182" y1="466.592" x2="243.442" y2="467.156" gradientUnits="userSpaceOnUse">
<stop stop-color="#E72100"/>
<stop offset="0.9" stop-color="#740B00"/>
</linearGradient>
<linearGradient id="paint33_linear_22_2618" x1="240.856" y1="468.175" x2="241.073" y2="468.757" gradientUnits="userSpaceOnUse">
<stop stop-color="#E72100"/>
<stop offset="0.9" stop-color="#740B00"/>
</linearGradient>
<linearGradient id="paint34_linear_22_2618" x1="238.639" y1="469.526" x2="238.854" y2="470.104" gradientUnits="userSpaceOnUse">
<stop stop-color="#E72100"/>
<stop offset="0.9" stop-color="#740B00"/>
</linearGradient>
<linearGradient id="paint35_linear_22_2618" x1="236.488" y1="470.715" x2="236.706" y2="471.298" gradientUnits="userSpaceOnUse">
<stop stop-color="#E72100"/>
<stop offset="0.9" stop-color="#740B00"/>
</linearGradient>
<linearGradient id="paint36_linear_22_2618" x1="250.017" y1="481.644" x2="249.622" y2="482.164" gradientUnits="userSpaceOnUse">
<stop stop-color="#E72100"/>
<stop offset="0.9" stop-color="#740B00"/>
</linearGradient>
<linearGradient id="paint37_linear_22_2618" x1="247.142" y1="479.486" x2="246.757" y2="480.013" gradientUnits="userSpaceOnUse">
<stop stop-color="#E72100"/>
<stop offset="0.9" stop-color="#740B00"/>
</linearGradient>
<linearGradient id="paint38_linear_22_2618" x1="244.756" y1="477.706" x2="244.342" y2="478.216" gradientUnits="userSpaceOnUse">
<stop stop-color="#E72100"/>
<stop offset="0.9" stop-color="#740B00"/>
</linearGradient>
<linearGradient id="paint39_linear_22_2618" x1="242.334" y1="476.142" x2="241.886" y2="476.617" gradientUnits="userSpaceOnUse">
<stop stop-color="#E72100"/>
<stop offset="0.9" stop-color="#740B00"/>
</linearGradient>
<linearGradient id="paint40_linear_22_2618" x1="239.89" y1="474.563" x2="239.442" y2="475.037" gradientUnits="userSpaceOnUse">
<stop stop-color="#E72100"/>
<stop offset="0.9" stop-color="#740B00"/>
</linearGradient>
<linearGradient id="paint41_linear_22_2618" x1="237.596" y1="473.218" x2="237.148" y2="473.693" gradientUnits="userSpaceOnUse">
<stop stop-color="#E72100"/>
<stop offset="0.9" stop-color="#740B00"/>
</linearGradient>
<linearGradient id="paint42_linear_22_2618" x1="230.231" y1="490.073" x2="229.567" y2="489.862" gradientUnits="userSpaceOnUse">
<stop stop-color="#E72100"/>
<stop offset="0.9" stop-color="#740B00"/>
</linearGradient>
<linearGradient id="paint43_linear_22_2618" x1="229.878" y1="492.864" x2="229.218" y2="492.654" gradientUnits="userSpaceOnUse">
<stop stop-color="#E72100"/>
<stop offset="0.9" stop-color="#740B00"/>
</linearGradient>
<linearGradient id="paint44_linear_22_2618" x1="230.996" y1="486.606" x2="230.329" y2="486.407" gradientUnits="userSpaceOnUse">
<stop stop-color="#E72100"/>
<stop offset="0.9" stop-color="#740B00"/>
</linearGradient>
<linearGradient id="paint45_linear_22_2618" x1="231.881" y1="483.502" x2="231.224" y2="483.27" gradientUnits="userSpaceOnUse">
<stop stop-color="#E72100"/>
<stop offset="0.9" stop-color="#740B00"/>
</linearGradient>
<linearGradient id="paint46_linear_22_2618" x1="232.593" y1="480.425" x2="231.955" y2="480.145" gradientUnits="userSpaceOnUse">
<stop stop-color="#E72100"/>
<stop offset="0.9" stop-color="#740B00"/>
</linearGradient>
<linearGradient id="paint47_linear_22_2618" x1="233.287" y1="477.352" x2="232.653" y2="477.073" gradientUnits="userSpaceOnUse">
<stop stop-color="#E72100"/>
<stop offset="0.9" stop-color="#740B00"/>
</linearGradient>
<linearGradient id="paint48_linear_22_2618" x1="233.804" y1="474.515" x2="233.166" y2="474.235" gradientUnits="userSpaceOnUse">
<stop stop-color="#E72100"/>
<stop offset="0.9" stop-color="#740B00"/>
</linearGradient>
<linearGradient id="paint49_linear_22_2618" x1="217.453" y1="477.415" x2="217.293" y2="476.728" gradientUnits="userSpaceOnUse">
<stop stop-color="#E72100"/>
<stop offset="0.9" stop-color="#740B00"/>
</linearGradient>
<linearGradient id="paint50_linear_22_2618" x1="220.821" y1="476.319" x2="220.649" y2="475.635" gradientUnits="userSpaceOnUse">
<stop stop-color="#E72100"/>
<stop offset="0.9" stop-color="#740B00"/>
</linearGradient>
<linearGradient id="paint51_linear_22_2618" x1="223.894" y1="475.495" x2="223.756" y2="474.804" gradientUnits="userSpaceOnUse">
<stop stop-color="#E72100"/>
<stop offset="0.9" stop-color="#740B00"/>
</linearGradient>
<linearGradient id="paint52_linear_22_2618" x1="226.858" y1="474.546" x2="226.773" y2="473.849" gradientUnits="userSpaceOnUse">
<stop stop-color="#E72100"/>
<stop offset="0.9" stop-color="#740B00"/>
</linearGradient>
<linearGradient id="paint53_linear_22_2618" x1="229.817" y1="473.586" x2="229.731" y2="472.886" gradientUnits="userSpaceOnUse">
<stop stop-color="#E72100"/>
<stop offset="0.9" stop-color="#740B00"/>
</linearGradient>
<linearGradient id="paint54_linear_22_2618" x1="232.481" y1="472.586" x2="232.396" y2="471.889" gradientUnits="userSpaceOnUse">
<stop stop-color="#E72100"/>
<stop offset="0.9" stop-color="#740B00"/>
</linearGradient>
<linearGradient id="paint55_linear_22_2618" x1="178.177" y1="423.486" x2="150.967" y2="384.501" gradientUnits="userSpaceOnUse">
<stop stop-color="#FAD961"/>
<stop offset="1" stop-color="#F76B1C"/>
</linearGradient>
<linearGradient id="paint56_linear_22_2618" x1="271.824" y1="85.0802" x2="269.816" y2="91.9609" gradientUnits="userSpaceOnUse">
<stop stop-color="#E66346"/>
<stop offset="1" stop-color="#904E95"/>
</linearGradient>
<linearGradient id="paint57_linear_22_2618" x1="268.89" y1="90.8099" x2="274.029" y2="188.874" gradientUnits="userSpaceOnUse">
<stop stop-color="#E96443"/>
<stop offset="1" stop-color="#904E95"/>
</linearGradient>
<linearGradient id="paint58_linear_22_2618" x1="245.36" y1="111.231" x2="243.149" y2="115.63" gradientUnits="userSpaceOnUse">
<stop stop-color="#E96443"/>
<stop offset="1" stop-color="#904E95"/>
</linearGradient>
<linearGradient id="paint59_linear_22_2618" x1="6.2695" y1="158.922" x2="7.81059" y2="146.338" gradientUnits="userSpaceOnUse">
<stop stop-color="#FAD961"/>
<stop offset="1" stop-color="#F76B1C"/>
</linearGradient>
<linearGradient id="paint60_linear_22_2618" x1="-15.8326" y1="117.338" x2="-14.4038" y2="126.983" gradientUnits="userSpaceOnUse">
<stop stop-color="#FAD961"/>
<stop offset="1" stop-color="#F76B1C"/>
</linearGradient>
<linearGradient id="paint61_linear_22_2618" x1="-11.9274" y1="126.228" x2="-8.30178" y2="152.856" gradientUnits="userSpaceOnUse">
<stop stop-color="#FAD961"/>
<stop offset="1" stop-color="#F76B1C"/>
</linearGradient>
<linearGradient id="paint62_linear_22_2618" x1="-0.12793" y1="117.348" x2="-0.12793" y2="149.71" gradientUnits="userSpaceOnUse">
<stop stop-color="#FCB653"/>
<stop offset="1" stop-color="#DB6512"/>
</linearGradient>
<linearGradient id="paint63_linear_22_2618" x1="6.65112" y1="117.348" x2="6.65112" y2="154" gradientUnits="userSpaceOnUse">
<stop stop-color="#FCB653"/>
<stop offset="1" stop-color="#DB6512"/>
</linearGradient>
<linearGradient id="paint64_linear_22_2618" x1="15.2791" y1="117.348" x2="15.2791" y2="154" gradientUnits="userSpaceOnUse">
<stop stop-color="#FCB653"/>
<stop offset="1" stop-color="#DB6512"/>
</linearGradient>
<linearGradient id="paint65_linear_22_2618" x1="36.3282" y1="241.736" x2="38.4298" y2="224.514" gradientUnits="userSpaceOnUse">
<stop stop-color="#FAD961"/>
<stop offset="1" stop-color="#F76B1C"/>
</linearGradient>
<linearGradient id="paint66_linear_22_2618" x1="5.97647" y1="184.831" x2="7.92511" y2="198.031" gradientUnits="userSpaceOnUse">
<stop stop-color="#FAD961"/>
<stop offset="1" stop-color="#F76B1C"/>
</linearGradient>
<linearGradient id="paint67_linear_22_2618" x1="11.3393" y1="196.996" x2="16.2838" y2="233.439" gradientUnits="userSpaceOnUse">
<stop stop-color="#FAD961"/>
<stop offset="1" stop-color="#F76B1C"/>
</linearGradient>
<linearGradient id="paint68_linear_22_2618" x1="27.543" y1="184.845" x2="27.543" y2="229.129" gradientUnits="userSpaceOnUse">
<stop stop-color="#FCB653"/>
<stop offset="1" stop-color="#DB6512"/>
</linearGradient>
<linearGradient id="paint69_linear_22_2618" x1="14.8484" y1="184.845" x2="14.8484" y2="229.129" gradientUnits="userSpaceOnUse">
<stop stop-color="#FCB653"/>
<stop offset="1" stop-color="#DB6512"/>
</linearGradient>
<linearGradient id="paint70_linear_22_2618" x1="36.8524" y1="184.845" x2="36.8524" y2="235" gradientUnits="userSpaceOnUse">
<stop stop-color="#FCB653"/>
<stop offset="1" stop-color="#DB6512"/>
</linearGradient>
<linearGradient id="paint71_linear_22_2618" x1="48.7007" y1="184.845" x2="48.7007" y2="235" gradientUnits="userSpaceOnUse">
<stop stop-color="#FCB653"/>
<stop offset="1" stop-color="#DB6512"/>
</linearGradient>
<linearGradient id="paint72_linear_22_2618" x1="12.836" y1="199.563" x2="3" y2="199.563" gradientUnits="userSpaceOnUse">
<stop stop-color="#FAD961"/>
<stop offset="1" stop-color="#F76B1C"/>
</linearGradient>
<linearGradient id="paint73_linear_22_2618" x1="225.144" y1="229.07" x2="214.765" y2="244.162" gradientUnits="userSpaceOnUse">
<stop stop-color="#4FDCFF"/>
<stop offset="1" stop-color="#2285FF"/>
</linearGradient>
<linearGradient id="paint74_linear_22_2618" x1="246.306" y1="234.46" x2="231.859" y2="240.764" gradientUnits="userSpaceOnUse">
<stop stop-color="#2487FF"/>
<stop offset="1" stop-color="#064DD6"/>
</linearGradient>
<linearGradient id="paint75_linear_22_2618" x1="61.4185" y1="304.997" x2="90.7655" y2="316.035" gradientUnits="userSpaceOnUse">
<stop stop-color="#4FDCFF"/>
<stop offset="1" stop-color="#2285FF"/>
</linearGradient>
<linearGradient id="paint76_linear_22_2618" x1="55.9898" y1="319.042" x2="90.8668" y2="334.025" gradientUnits="userSpaceOnUse">
<stop stop-color="#4FDCFF"/>
<stop offset="1" stop-color="#2285FF"/>
</linearGradient>
<linearGradient id="paint77_linear_22_2618" x1="86.1114" y1="303.244" x2="122.648" y2="327.583" gradientUnits="userSpaceOnUse">
<stop stop-color="#4FDCFF"/>
<stop offset="1" stop-color="#2285FF"/>
</linearGradient>
<linearGradient id="paint78_linear_22_2618" x1="106.546" y1="285.026" x2="117.746" y2="294.377" gradientUnits="userSpaceOnUse">
<stop stop-color="#4FDCFF"/>
<stop offset="1" stop-color="#076BE7"/>
</linearGradient>
<linearGradient id="paint79_linear_22_2618" x1="265.667" y1="281.73" x2="248.482" y2="237.526" gradientUnits="userSpaceOnUse">
<stop stop-color="#4FB9FF"/>
<stop offset="0.67508" stop-color="#2285FF"/>
<stop offset="0.99971" stop-color="#064DD6"/>
</linearGradient>
<linearGradient id="paint80_linear_22_2618" x1="162.263" y1="311.943" x2="172.459" y2="279.149" gradientUnits="userSpaceOnUse">
<stop stop-color="#1076E9"/>
<stop offset="1" stop-color="#0D77FA"/>
</linearGradient>
<linearGradient id="paint81_linear_22_2618" x1="213.3" y1="272.548" x2="199.711" y2="245.765" gradientUnits="userSpaceOnUse">
<stop stop-color="#4FB9FF"/>
<stop offset="0.705846" stop-color="#268AFF"/>
<stop offset="1" stop-color="#064DD6"/>
</linearGradient>
<linearGradient id="paint82_linear_22_2618" x1="233.142" y1="326.727" x2="245.059" y2="261.217" gradientUnits="userSpaceOnUse">
<stop stop-color="#4FBDFF"/>
<stop offset="0.670274" stop-color="#2285FF"/>
<stop offset="0.999235" stop-color="#064DD6"/>
</linearGradient>
<linearGradient id="paint83_linear_22_2618" x1="238.352" y1="249.169" x2="242.858" y2="249.996" gradientUnits="userSpaceOnUse">
<stop stop-color="#30A0FF"/>
<stop offset="1" stop-color="#C9E5FF"/>
</linearGradient>
<linearGradient id="paint84_linear_22_2618" x1="241.883" y1="253.646" x2="250.05" y2="240.396" gradientUnits="userSpaceOnUse">
<stop stop-color="#064DD6"/>
<stop offset="0.999472" stop-color="#4499FF"/>
</linearGradient>
<linearGradient id="paint85_linear_22_2618" x1="189.363" y1="255.451" x2="180.917" y2="237.653" gradientUnits="userSpaceOnUse">
<stop stop-color="#0A74F6"/>
<stop offset="0.473101" stop-color="#31A3FF"/>
<stop offset="1" stop-color="#4FDCFF"/>
</linearGradient>
<clipPath id="clip0_22_2618">
<rect width="375" height="812" fill="white"/>
</clipPath>
<clipPath id="clip1_22_2618">
<rect width="66" height="61" fill="white" transform="translate(204 446)"/>
</clipPath>
</defs>
</svg>
