<svg width="375" height="812" viewBox="0 0 375 812" fill="none" xmlns="http://www.w3.org/2000/svg">
<g clip-path="url(#clip0_22_3076)">
<rect width="375" height="812" fill="#E2EBF1"/>
<path fill-rule="evenodd" clip-rule="evenodd" d="M231.519 470.237C231.519 470.237 214.519 452.633 209.519 452.633C204.519 452.633 178.019 442.633 176.019 433.133C174.019 423.633 170.763 409.451 169.141 406.042C167.519 402.633 162.019 385.133 161.019 376.633C160.019 368.133 154.519 355.48 153.519 358.306C152.519 361.133 151.019 366.633 151.519 370.633C152.019 374.633 158.519 402.633 159.019 409.633C159.519 416.633 162.519 426.73 159.519 427.681C156.519 428.633 156.019 441.133 156.019 443.633C156.019 446.133 150.479 466.045 145.519 467.133C140.559 468.22 135.519 456.633 135.519 454.133C135.519 451.633 143.076 444.448 144.172 439.578C145.269 434.707 144.863 426.716 142.441 422.924C140.019 419.133 138.37 423.576 138.944 426.104C139.519 428.633 140.841 435.588 139.68 437.36C138.519 439.133 131.019 440.133 130.519 436.133C130.019 432.133 128.519 424.133 129.019 418.633C129.519 413.133 131.519 407.633 132.519 401.633C133.519 395.633 131.519 381.633 129.519 378.633C127.519 375.633 125.019 370.431 125.019 367.532C125.019 364.633 121.019 362.133 120.519 366.633C120.019 371.133 124.019 374.633 124.019 374.633C124.019 374.633 126.766 383.168 125.019 385.633C123.272 388.097 121.019 397.633 118.019 397.633C115.019 397.633 113.019 391.133 113.519 388.633C114.019 386.133 115.019 367.633 111.019 362.133C107.019 356.633 106.019 353.133 106.519 348.133C107.019 343.133 108.019 331.133 107.019 328.633C106.019 326.133 101.519 320.633 101.019 324.133C100.519 327.633 104.519 339.633 102.519 341.633C100.519 343.633 100.019 349.633 100.019 353.633C100.019 357.633 104.019 366.133 104.019 371.133C104.019 376.133 102.019 387.049 100.519 388.091C99.0191 389.133 98.3211 397.593 98.4191 400.612C98.5191 403.633 100.646 414.956 100.582 417.295C100.519 419.633 97.5111 429.977 94.5151 433.804C91.5191 437.633 83.0191 433.468 82.0191 429.05C81.0191 424.633 79.0191 417.038 82.0191 411.835C85.0191 406.633 85.5191 398.633 84.0191 395.133C82.5191 391.633 78.5191 384.133 78.5191 384.133C78.5191 384.133 75.5191 384.633 77.0191 390.633C78.5191 396.633 80.2031 401.002 79.1111 402.567C78.0191 404.133 68.5191 408.633 66.5191 405.133C64.5191 401.633 63.5191 391.633 65.0191 386.633C66.5191 381.633 67.0191 370.931 62.5191 367.532C58.0191 364.133 54.5191 355.133 54.0191 359.133C53.5191 363.133 63.0191 374.727 60.0191 382.68C57.0191 390.633 57.2051 398.636 57.1121 401.884C57.0191 405.133 65.5191 418.133 62.5191 420.633C60.7614 422.098 29.8228 447.8 120.519 489.767C145.519 501.335 232.019 471.716 232.019 471.716L231.519 470.237Z" fill="#CAE3FF"/>
<path d="M-37.0126 427.45C-37.0126 427.45 20.9536 390.644 61.3557 436.019C131.469 514.762 180.297 480.057 206.182 433.158C232.067 386.259 294.676 356.208 375.063 398.529C408.444 416.103 394.262 480.057 520.122 440.852C645.981 401.647 651.992 521.566 676.233 467.384C700.473 413.201 729.834 281.132 869.947 297.386C1010.06 313.64 989.226 487.162 1087.68 412.051C1186.13 336.94 1177.8 199.604 1264.32 207.115C1350.84 214.626 1278.8 586.014 1278.8 586.014L-25.4298 652.058L-37.0126 427.45Z" fill="#D1E5FC"/>
<path d="M16.8026 418.223C16.8026 418.223 12.7107 408.051 14.7515 398.116C16.7923 388.181 16.2254 385.294 10.0191 382.76C3.81288 380.226 -0.931347 390.981 -0.634248 396.288C-0.337149 401.595 -1.77189 416.481 -4.70238 432.368C-7.63287 448.256 -0.339224 455.814 6.00831 462.317C12.3558 468.82 19.8827 433.495 19.8827 433.495L16.8026 418.223Z" fill="url(#paint0_linear_22_3076)"/>
<path d="M5.48053 447.796C5.48053 447.796 4.88418 400.247 8.76106 389.708" stroke="white" stroke-linecap="round"/>
<path d="M18.9137 470.075C18.9137 470.075 29.6475 468.133 37.5588 455.473C37.572 455.123 33.9019 449.972 36.2462 437.692C38.5906 425.411 46.3025 426.893 51.6088 407.121C54.6885 398.113 50.8392 394.133 51.3018 386.157C51.7643 378.18 58.4753 377.087 62.7447 364.711C64.3429 355.924 61.5113 355.697 58.522 348.936C55.5326 342.175 67.5956 319.254 50.1025 313.217C41.4562 310.964 37.5624 336.639 37.6378 346.9C37.7131 357.161 32.2453 362.816 27.6221 367.351C22.9989 371.887 26.9137 385.943 26.0129 391.127C25.1121 396.312 19.8617 412.807 11.662 420.128C3.46234 427.45 5.39127 438.712 5.65995 443.179C5.92862 447.646 4.01757 460.766 6.98543 462.621C9.95328 464.476 18.9137 470.075 18.9137 470.075Z" fill="url(#paint1_linear_22_3076)"/>
<path d="M31.007 463.355C34.4327 457.873 40.0829 448.149 44.4102 443.688C48.7375 439.227 63.2754 431.319 78.1168 427.673C92.9582 424.026 96.67 429.141 97.8486 432.467C99.0272 435.793 95.1241 444.478 78.0829 450.99C64.6463 450.932 62.0516 457.586 58.2281 463.705C54.4045 469.824 45.3717 481.778 32.0195 479.653C28.5027 478.023 19.0788 471.567 19.0788 471.567C19.0788 471.567 27.5813 468.837 31.007 463.355Z" fill="url(#paint2_linear_22_3076)"/>
<path d="M28.8601 475.771C28.8601 475.771 41.6459 468.838 45.6918 462.363C49.7376 455.888 56.4988 444.437 65.416 442.739C74.3333 441.04 87.6089 434.592 88.64 432.942" stroke="white" stroke-linecap="round"/>
<path d="M13.6713 462.267C13.6713 462.267 19.7854 437.453 25.4652 425.262C33.6901 407.607 40.0884 385.738 42.0316 374.422C46.4651 348.604 48.6379 321.39 48.6379 321.39" stroke="white" stroke-linecap="round"/>
<ellipse cx="315.017" cy="342.218" rx="9.98288" ry="4.59035" fill="#D1E5FC"/>
<path fill-rule="evenodd" clip-rule="evenodd" d="M305.838 342.435C305.972 342.575 305.967 342.796 305.827 342.93L302.4 346.21C302.341 346.266 302.244 346.225 302.244 346.144V338.912C302.244 338.829 302.345 338.788 302.402 338.848L305.838 342.435Z" fill="#D1E5FC"/>
<ellipse cx="336.177" cy="326.615" rx="9.98288" ry="4.59035" fill="#D1E5FC"/>
<path fill-rule="evenodd" clip-rule="evenodd" d="M326.998 326.832C327.132 326.972 327.127 327.194 326.987 327.328L323.56 330.608C323.501 330.664 323.404 330.622 323.404 330.541V323.309C323.404 323.226 323.505 323.186 323.562 323.246L326.998 326.832Z" fill="#D1E5FC"/>
<ellipse cx="350.897" cy="347.725" rx="9.98288" ry="4.59035" fill="#D1E5FC"/>
<path fill-rule="evenodd" clip-rule="evenodd" d="M341.718 347.942C341.852 348.082 341.847 348.303 341.707 348.437L338.28 351.717C338.221 351.773 338.124 351.732 338.124 351.651V344.419C338.124 344.336 338.225 344.295 338.282 344.355L341.718 347.942Z" fill="#D1E5FC"/>
<ellipse cx="306.737" cy="362.41" rx="9.98288" ry="4.59035" fill="#D1E5FC"/>
<path fill-rule="evenodd" clip-rule="evenodd" d="M297.558 362.627C297.692 362.766 297.687 362.988 297.547 363.122L294.12 366.402C294.061 366.458 293.964 366.417 293.964 366.336V359.104C293.964 359.021 294.065 358.98 294.122 359.04L297.558 362.627Z" fill="#D1E5FC"/>
<ellipse cx="378.497" cy="326.615" rx="9.98288" ry="4.59035" fill="#D1E5FC"/>
<path fill-rule="evenodd" clip-rule="evenodd" d="M369.318 326.832C369.452 326.972 369.447 327.194 369.307 327.328L365.88 330.608C365.821 330.664 365.724 330.622 365.724 330.541V323.309C365.724 323.226 365.825 323.186 365.882 323.246L369.318 326.832Z" fill="#D1E5FC"/>
<ellipse cx="292.017" cy="323.862" rx="9.98288" ry="4.59035" fill="#D1E5FC"/>
<path fill-rule="evenodd" clip-rule="evenodd" d="M282.838 324.079C282.972 324.218 282.967 324.44 282.827 324.574L279.4 327.854C279.341 327.91 279.244 327.869 279.244 327.788V320.556C279.244 320.473 279.345 320.432 279.402 320.492L282.838 324.079Z" fill="#D1E5FC"/>
<ellipse cx="359.177" cy="305.506" rx="9.98288" ry="4.59035" fill="#D1E5FC"/>
<path fill-rule="evenodd" clip-rule="evenodd" d="M349.998 305.723C350.132 305.862 350.127 306.084 349.987 306.218L346.56 309.498C346.501 309.554 346.404 309.512 346.404 309.431V302.2C346.404 302.117 346.505 302.076 346.562 302.136L349.998 305.723Z" fill="#D1E5FC"/>
<ellipse cx="384.017" cy="352.314" rx="9.98288" ry="4.59035" fill="#D1E5FC"/>
<path fill-rule="evenodd" clip-rule="evenodd" d="M374.838 352.531C374.972 352.671 374.967 352.892 374.827 353.026L371.4 356.306C371.341 356.362 371.244 356.321 371.244 356.24V349.008C371.244 348.925 371.345 348.884 371.402 348.944L374.838 352.531Z" fill="#D1E5FC"/>
<path fill-rule="evenodd" clip-rule="evenodd" d="M381.409 498.541C394.431 492.442 402.31 476.199 404.245 462.017C406.18 447.835 402.995 433.459 398.847 419.756C394.699 406.052 389.544 392.559 387.383 378.41C385.699 367.385 385.823 355.966 382.075 345.458C378.325 334.952 369.224 325.172 358.013 325.223C345.519 325.28 336.124 337.475 333.641 349.653C331.16 361.828 333.495 374.412 333.312 386.834C333.106 400.832 329.702 414.555 327.317 428.354C324.931 442.149 323.592 456.523 327.435 469.988C331.279 483.456 341.255 495.92 354.911 499.311" fill="url(#paint3_linear_22_3076)"/>
<path d="M356.423 344.008C372.856 388.29 371.291 432.436 358.319 476.888" stroke="white"/>
<path fill-rule="evenodd" clip-rule="evenodd" d="M296.689 409.786C297.59 412.508 298.491 415.23 299.393 417.952C299.807 419.203 300.226 420.493 300.135 421.808C299.89 425.375 296.236 427.549 293.997 430.343C290.472 434.74 290.646 441.664 294.384 445.87C295.676 447.323 297.365 448.532 298.046 450.351C298.873 452.559 297.967 455.047 296.697 457.037C295.427 459.027 293.777 460.805 292.893 462.992C291.579 466.238 292.131 469.907 292.839 473.332C294.03 479.098 295.867 485.187 300.491 488.841C303.952 491.576 308.557 492.539 312.973 492.374C317.388 492.209 321.693 491.013 325.95 489.824C328.979 488.979 332.008 488.133 335.037 487.288C338.642 486.281 342.324 485.239 345.4 483.107C349.233 480.448 351.873 476.101 352.342 471.47C352.811 466.84 351.061 462.013 347.651 458.842C345.822 457.14 343.588 455.93 341.677 454.322C339.764 452.714 338.111 450.505 338.108 448.008C338.106 446.646 338.594 445.335 338.849 443.997C339.903 438.449 336.342 432.406 330.972 430.63C329.569 430.165 328.071 429.962 326.744 429.309C323.725 427.823 322.233 424.333 321.767 421.007C321.3 417.68 321.605 414.268 320.973 410.968C319.595 403.785 313.367 398.221 306.325 396.748C297.236 394.846 294.046 401.807 296.689 409.786Z" fill="url(#paint4_linear_22_3076)"/>
<path d="M304.247 403.733C306.349 408.63 308.994 413.329 310.554 418.424C316.878 439.075 310.142 464.551 323.321 483.105" stroke="white"/>
<path fill-rule="evenodd" clip-rule="evenodd" d="M276.653 499.505C301.803 489.462 325.106 473.843 350.069 463.17C468.462 412.541 600.892 479.477 725.262 455.889C824.327 437.106 911.102 362.163 1010.48 345.813C1062.34 337.279 1191.37 323.383 1243.7 321.11C1296.03 318.84 1234.91 635.004 1234.51 818.805C1144.3 807.896 777.693 818.805 684 818.805C309.399 818.805 346.16 818.805 -4.32978 818.805C-11.628 818.805 0.47924 721.57 -4.32978 715.426C-9.0095 709.448 -9.39742 700.524 -9.40973 692.4C-9.53904 613.966 -9.89205 643.714 -9.40973 569C-9.0095 507 -9.0095 479.477 -9.40973 454.063C-9.65716 438.353 -2.70166 455.708 31.8235 470.541C110.421 504.306 197.424 531.152 276.653 499.505Z" fill="url(#paint5_linear_22_3076)"/>
<path fill-rule="evenodd" clip-rule="evenodd" d="M58.1057 522.298C59.5307 521.592 61.0817 520.349 60.7614 518.844C60.5055 517.646 59.0828 516.965 57.814 517.059C56.5468 517.153 54.2157 517.725 54.2157 517.725C54.2157 517.725 56.4089 516.579 56.7217 515.271C57.0426 513.931 55.2725 512.856 53.8885 513.2C52.5053 513.542 50.5766 515.082 50.5766 515.082C50.5766 515.082 51.7606 512.068 51.4189 510.256C51.2909 509.58 49.0361 507.937 48.1192 509.678C47.299 511.235 46.8887 514.099 46.8887 514.099C46.8887 514.099 45.411 511.217 44.2017 509.497C43.8201 508.954 42.4811 508.532 41.799 508.57C40.9425 508.619 40.5409 509.628 40.5005 510.454C40.3944 512.613 42.9736 515.438 42.9736 515.438C42.9736 515.438 38.1938 511.907 36.5333 512.826C36.0148 513.113 35.7545 513.789 35.8357 514.414C36.1147 516.547 39.3712 518.778 39.3712 518.778C39.3712 518.778 37.557 518.579 36.6533 517.963C35.7487 517.346 34.1267 517.267 33.8474 518.305C33.7187 518.784 33.9665 519.273 34.2355 519.692C34.2355 519.692 37.1518 525.942 47.2692 524.961C51.0061 524.599 54.7593 523.957 58.1057 522.298Z" fill="url(#paint6_linear_22_3076)"/>
<path d="M302.537 149.033C302.537 149.033 298.721 142.407 291.341 137.04C283.962 131.673 279.88 133.492 278.454 134.26C277.027 135.027 272.861 134.983 268.911 138.366C268.17 141.489 266.829 144.593 266.509 148.116C266.282 150.626 265.777 152.765 263.884 153.447C259.332 155.086 260.435 155.322 255.836 157.999C251.236 160.676 272.78 168.58 273.831 168.893C274.881 169.207 291.883 178.625 298.202 167.827C304.521 157.03 302.537 149.033 302.537 149.033Z" fill="url(#paint7_linear_22_3076)"/>
<mask id="mask0_22_3076" style="mask-type:luminance" maskUnits="userSpaceOnUse" x="260" y="119" width="51" height="50">
<path fill-rule="evenodd" clip-rule="evenodd" d="M310.107 145.463L289.805 119.477L260.867 142.085L281.17 168.071L310.107 145.463Z" fill="white"/>
</mask>
<g mask="url(#mask0_22_3076)">
<path fill-rule="evenodd" clip-rule="evenodd" d="M277.726 147.777C278.593 147.776 278.593 147.44 278.98 146.883C279.832 145.651 280.688 144.419 281.539 143.187C282.377 141.978 283.324 140.69 284.737 140.293C285.451 140.093 286.215 140.146 286.942 140.294C289.312 140.774 291.388 142.191 293.23 143.761C295.07 145.331 296.759 147.093 298.752 148.465C299.589 149.042 300.496 149.554 301.49 149.761C303.098 150.094 304.811 149.578 306.114 148.583C307.416 147.587 308.298 146.902 308.891 145.371C308.34 145.581 306.701 144.545 306.118 144.624C306.533 143.933 295.718 131.848 292.049 129.907C289.507 128.562 287.439 126.518 284.141 129.196C283.877 129.307 283.576 129.254 283.293 129.208C280.178 128.689 277.512 129.492 274.295 131.634C270.358 134.256 268.271 139.329 266.867 143.849C266.368 145.501 266.043 146.583 265.974 147.134C265.905 147.686 266.728 149.841 267.625 150.626C268.52 151.411 269.268 150.504 270.218 149.79C270.896 149.279 271.814 148.601 272.042 147.782C272.042 147.782 276.859 147.777 277.726 147.777Z" fill="url(#paint8_linear_22_3076)"/>
</g>
<path fill-rule="evenodd" clip-rule="evenodd" d="M292.011 156.354C292.011 156.354 271.056 146.615 266.001 147.12C266.407 144.549 266.891 143.774 266.891 143.774L292.703 152.582L292.011 156.354Z" fill="#2979ED"/>
<path d="M142.415 197.012C142.415 197.012 139.517 193.976 140.179 192.749C140.841 191.523 142.606 184.808 135.354 184.808C130.221 184.878 131.101 185.457 128.699 185.457C126.297 185.457 123.005 185.457 120.231 184.808C117.456 184.159 110.435 177.325 101.994 177.2C93.5535 177.075 87.326 176.432 84.4804 177.2C81.6349 177.968 81.1282 179.964 79.5542 182.804C77.9802 185.643 76.546 186.391 75.9104 187.41C75.2749 188.43 73.0981 192.189 74.2841 193.546C75.4701 194.903 86.9608 201.899 89.6518 201.899C92.3428 201.899 102.624 203.761 107.794 201.899C112.963 200.036 121.354 202.798 123.404 202.798C125.453 202.798 131.003 205.135 133.009 205.56C135.016 205.985 142.415 197.012 142.415 197.012Z" fill="url(#paint9_linear_22_3076)"/>
<path fill-rule="evenodd" clip-rule="evenodd" d="M323.652 187.358C326.578 187.924 328.659 187.198 332.422 187.966C336.185 188.734 337.438 188.006 337.359 187.358C337.28 186.711 337.202 186.015 335.29 185.813C333.379 185.611 333.285 184.721 333.954 183.739C334.623 182.757 335.423 182.197 339.793 181.659C344.162 181.121 346.188 179.397 344.604 177.467C343.019 175.537 340.466 174.376 337.581 173.832C334.695 173.287 333.77 173.401 330.929 175.776C328.087 178.151 325.461 181.247 322.209 180.785C318.957 180.323 320.726 186.793 323.652 187.358Z" fill="#1266E8"/>
<path fill-rule="evenodd" clip-rule="evenodd" d="M313.21 222.598C315.05 220.441 320.701 220.178 322.26 220.422C323.82 220.665 325.518 218.475 326.946 218.698C328.374 218.921 329.374 220.868 327.764 222.223C326.154 223.577 324.252 224.321 324.252 224.321C324.252 224.321 322.471 225.3 323.815 227.035C325.16 228.77 328.51 229.917 328.51 229.917C328.51 229.917 331.315 231.438 333.337 229.914C335.36 228.389 335.68 229.738 335.477 231.004C335.273 232.27 333.948 233.67 330.516 234.711C327.083 235.752 325.144 236.309 320.994 234.705C316.844 233.102 313.377 231.001 311.83 231.177C310.282 231.352 311.37 224.755 313.21 222.598Z" fill="#1266E8"/>
<path d="M99.8656 206.223C99.8656 206.223 98.4435 202.271 99.8656 200.549C101.288 198.827 100.528 190.028 94.2546 190.028C87.9816 190.028 84.1926 191.624 81.7505 190.028C79.3083 188.432 75.5941 190.135 67.7547 189.283C59.9154 188.432 52.3261 186.789 46.8905 186.789C41.455 186.789 31.3719 191.901 29.8785 192.467C29.5692 192.808 26.854 194.756 27.4603 196.62C27.81 197.696 29.8041 197.345 30.2911 198.469C30.7782 199.593 29.8155 200.684 30.2911 201.987C31.438 205.13 34.4994 205.155 34.6888 206.223C34.9508 207.7 34.5544 208.038 35.526 210.045C36.4976 212.053 43.9202 211.823 44.8523 212.169C45.7845 212.514 58.1129 212.169 59.9154 212.169C61.7178 212.169 73.7668 212.579 75.6451 210.605C77.5233 208.631 83.9915 205.553 85.0928 206.223C86.1941 206.893 85.8679 215.299 87.4352 215.299C89.0025 215.299 99.8656 206.223 99.8656 206.223Z" fill="url(#paint10_linear_22_3076)"/>
<path d="M136.976 233.207C136.976 233.207 129.048 235.928 121.039 239.718C118.12 241.093 116.089 229.929 112.311 224.863C108.533 219.798 100.38 206.866 99.8655 206.223C99.3508 205.579 86.4721 213.669 86.8244 214.47C86.8213 220.778 97.8283 237.092 100.935 249.258C104.042 261.424 110.43 264.725 123.773 261.237C137.116 257.748 143.48 256.113 146.667 254.728C149.853 253.344 136.976 233.207 136.976 233.207Z" fill="url(#paint11_linear_22_3076)"/>
<path fill-rule="evenodd" clip-rule="evenodd" d="M87.1212 216.723C87.1212 216.723 86.6631 215.74 86.4721 213.669C86.4721 212.779 92.7573 209.426 92.7573 209.426C92.7573 209.426 99.6888 205.623 100.122 206.258C100.556 206.894 100.908 207.526 101.197 208C101.486 208.474 87.1212 216.723 87.1212 216.723Z" fill="#064DD6"/>
<path fill-rule="evenodd" clip-rule="evenodd" d="M135.488 207.43C135.488 207.43 132.084 205.664 132.084 205.336C132.084 205.009 135.213 202.519 135.213 202.519C135.213 202.519 141.849 196.295 142.415 197.012C142.981 197.728 144.214 198.391 143.817 198.978C143.419 199.565 135.488 207.43 135.488 207.43Z" fill="#0F155B"/>
<path d="M202.63 231.911C202.63 231.911 187.683 240.719 182.72 242.346C177.757 243.974 177.767 244.149 174.711 244.928C171.654 245.708 166.637 248.351 164.37 241.859C162.103 235.366 156.036 229.832 154.295 227.07C152.554 224.308 146.479 217.996 143.852 215.009C141.224 212.022 135.179 206.809 132.716 205.842C130.253 204.875 141.452 199.633 141.855 196.315C142.177 196.699 146.167 204.411 152.554 207.238C158.942 210.065 168.896 217.796 169.391 220.621C169.886 223.446 176.26 228.472 177.332 228.472C178.403 228.472 182.254 228.472 183.681 228.472C185.108 228.472 202.63 231.911 202.63 231.911Z" fill="url(#paint12_linear_22_3076)"/>
<path d="M262.454 191.782C262.454 191.782 291.262 191.991 292.736 192.386C294.209 192.781 307.294 192.13 307.294 192.13C307.294 192.13 325.742 189.423 325.172 188.303C324.603 187.183 324.458 177.494 320.662 179.432C316.867 181.37 314.42 180.495 307.116 181.27C299.812 182.046 292.951 180.151 288.638 180.014C284.326 179.877 269.116 177.791 268.251 178.233C267.386 178.675 264.608 175.654 264.608 175.654L262.454 191.782Z" fill="url(#paint13_linear_22_3076)"/>
<path d="M176.554 211.134C176.554 211.134 154.054 225.202 149.501 227.499C144.947 229.796 131.101 235.331 131.101 235.331C131.101 235.331 126.034 240.898 129.673 249.378C133.311 257.857 142.93 255.887 145.259 255.181C149.838 253.838 159.853 248.836 165.327 246.922C170.8 245.009 186.151 234.694 192.713 234.195C199.275 233.696 176.554 211.134 176.554 211.134Z" fill="url(#paint14_linear_22_3076)"/>
<path d="M252.777 154.546C247.28 156.469 243.424 156.841 233.476 163.472C223.528 170.102 206.352 189.156 196.96 193.04C187.568 196.923 177.167 202.043 174.384 213.459C171.6 224.875 179.971 229.289 184.289 231.828C188.606 234.367 193.876 234.367 197.654 234.367C201.432 234.367 222.367 224.231 227.393 221.184C232.42 218.137 243.5 207.532 251.186 201.019C258.873 194.506 263.147 192.387 266.001 188.166C268.855 183.945 270.905 181.235 270.905 174.666C270.905 168.097 269.622 166.02 267.512 163.472C265.401 160.924 258.274 152.623 252.777 154.546Z" fill="url(#paint15_linear_22_3076)"/>
<path d="M242.312 172.341C246.813 168.107 255.01 169.862 257.528 178.324C260.046 186.786 262.241 198.145 270.67 202.513C279.099 206.881 277.512 209.102 286.178 211.833C294.845 214.563 312.768 218.57 313.6 220.01C314.431 221.45 313.165 231.911 311.101 231.911C308.892 231.911 304.417 230.243 299.205 229.327C288.12 227.381 284.709 230.129 268.025 219.35C246.692 205.567 240.47 183.889 240.47 183.889C240.47 183.889 237.812 176.575 242.312 172.341Z" fill="url(#paint16_linear_22_3076)"/>
<path d="M302.626 164.091C302.626 164.091 306.707 156.579 303.774 150.574C300.84 144.569 297.094 147.052 295.948 147.523C294.801 147.994 293.152 150.477 292.985 152.498C292.819 154.519 292.135 167.998 294.852 167.087C297.568 166.175 299.909 168.218 299.909 169.147C299.909 170.077 302.067 168.016 302.067 167.087C302.067 166.157 302.626 164.091 302.626 164.091Z" fill="url(#paint17_linear_22_3076)" fill-opacity="0.7" stroke="url(#paint18_linear_22_3076)" stroke-width="2.63974"/>
<path fill-rule="evenodd" clip-rule="evenodd" d="M289.122 166.021C290.189 165.795 297.929 167.643 300.762 168.085C303.596 168.527 300.718 171.842 299.272 172.42C297.827 172.997 292.404 177.977 286.931 174.601C281.459 171.224 288.055 166.247 289.122 166.021Z" fill="#064DD6"/>
<path d="M240.732 161.133C240.732 161.133 252.808 151.819 246.77 144.197C240.732 136.574 230.632 140.096 218.873 149.622C207.115 159.148 206.355 159.719 191.712 171.067C177.068 182.416 175.206 183.987 163.751 192.503C152.295 201.019 150.737 202.339 155.199 209.392C162.685 220.63 163.751 219.698 175.041 212.231C186.332 204.764 240.732 161.133 240.732 161.133Z" fill="url(#paint19_linear_22_3076)"/>
<mask id="mask1_22_3076" style="mask-type:luminance" maskUnits="userSpaceOnUse" x="152" y="140" width="97" height="78">
<path d="M240.732 161.133C240.732 161.133 252.808 151.819 246.77 144.197C240.732 136.574 230.632 140.096 218.873 149.622C207.115 159.148 206.355 159.719 191.712 171.067C177.068 182.416 175.206 183.987 163.751 192.503C152.295 201.019 150.737 202.339 155.199 209.392C162.685 220.63 163.751 219.698 175.041 212.231C186.332 204.764 240.732 161.133 240.732 161.133Z" fill="white"/>
</mask>
<g mask="url(#mask1_22_3076)">
<path fill-rule="evenodd" clip-rule="evenodd" d="M147.654 203.538C147.654 203.538 152.979 203.538 153.243 203.538C155.879 203.538 177.755 185.957 199.206 170.127C219.052 155.481 241.106 140.797 236.505 138.615C231.905 136.433 153.243 198.593 153.243 198.593L147.654 203.538Z" fill="#B2E4FF" fill-opacity="0.5"/>
</g>
<ellipse cx="282.879" cy="91.4536" rx="4.21684" ry="4.23395" fill="#D3E7FF"/>
<ellipse cx="297.894" cy="102.146" rx="4.21684" ry="4.23395" transform="rotate(-26 297.894 102.146)" fill="#D3E7FF"/>
<ellipse cx="274.885" cy="65.0762" rx="5.15392" ry="5.17483" transform="rotate(78 274.885 65.0762)" fill="#D3E7FF"/>
<ellipse cx="291.555" cy="70.7736" rx="4.68538" ry="4.70439" transform="rotate(-83 291.555 70.7736)" fill="#D3E7FF"/>
<ellipse cx="293.421" cy="81.9272" rx="2.10842" ry="2.11697" fill="#D3E7FF"/>
<ellipse cx="285.165" cy="81.4914" rx="2.10842" ry="2.11697" fill="#D3E7FF"/>
<ellipse cx="279.346" cy="75.662" rx="2.10842" ry="2.11697" fill="#D3E7FF"/>
<ellipse cx="295.53" cy="91.4535" rx="2.10842" ry="2.11697" fill="#D3E7FF"/>
<ellipse cx="290.575" cy="107.73" rx="1.45455" ry="1.45735" fill="#D3E7FF"/>
<ellipse cx="295.846" cy="127.754" rx="1.45455" ry="1.45735" fill="#D3E7FF"/>
<ellipse cx="293.421" cy="120.033" rx="2.10842" ry="2.11697" fill="#D3E7FF"/>
<ellipse cx="290.013" cy="97.0364" rx="2.10842" ry="2.11697" fill="#D3E7FF"/>
<ellipse cx="294.475" cy="112.623" rx="2.10842" ry="2.11697" fill="#D3E7FF"/>
<ellipse cx="286.042" cy="103.097" rx="2.10842" ry="2.11697" fill="#D3E7FF"/>
<ellipse cx="299" cy="116.78" rx="1.45455" ry="1.45735" fill="#D3E7FF"/>
<path d="M244.782 142.694C244.782 142.694 253.77 130.383 260.282 143.746C266.795 157.108 265.97 161.846 293.45 173.639" stroke="#064DD6" stroke-width="3.66412"/>
<path fill-rule="evenodd" clip-rule="evenodd" d="M135.488 207.43C135.488 207.43 132.084 205.664 132.084 205.336C132.084 205.009 135.213 202.519 135.213 202.519C135.213 202.519 141.849 196.295 142.415 197.012C142.981 197.728 144.214 198.391 143.817 198.978C143.419 199.565 135.488 207.43 135.488 207.43Z" fill="#064DD6"/>
</g>
<defs>
<linearGradient id="paint0_linear_22_3076" x1="-31.8763" y1="438.795" x2="5.21806" y2="379.432" gradientUnits="userSpaceOnUse">
<stop stop-color="#4395FF"/>
<stop offset="1" stop-color="#53C5FF"/>
</linearGradient>
<linearGradient id="paint1_linear_22_3076" x1="-33.4715" y1="437.341" x2="46.0164" y2="310.133" gradientUnits="userSpaceOnUse">
<stop stop-color="#4395FF"/>
<stop offset="1" stop-color="#53C5FF"/>
</linearGradient>
<linearGradient id="paint2_linear_22_3076" x1="17.8464" y1="471.081" x2="58.6502" y2="405.781" gradientUnits="userSpaceOnUse">
<stop stop-color="#4395FF"/>
<stop offset="1" stop-color="#53C5FF"/>
</linearGradient>
<linearGradient id="paint3_linear_22_3076" x1="402.915" y1="444.189" x2="308.24" y2="331.743" gradientUnits="userSpaceOnUse">
<stop stop-color="#FAD961"/>
<stop offset="1" stop-color="#F76B1C"/>
</linearGradient>
<linearGradient id="paint4_linear_22_3076" x1="349.879" y1="458.486" x2="274.154" y2="403.903" gradientUnits="userSpaceOnUse">
<stop stop-color="#FAD961"/>
<stop offset="1" stop-color="#F76B1C"/>
</linearGradient>
<linearGradient id="paint5_linear_22_3076" x1="627.606" y1="321.097" x2="627.606" y2="818.805" gradientUnits="userSpaceOnUse">
<stop stop-color="#295185"/>
<stop offset="1" stop-color="#416184"/>
</linearGradient>
<linearGradient id="paint6_linear_22_3076" x1="60.8385" y1="519.557" x2="53.2038" y2="501.019" gradientUnits="userSpaceOnUse">
<stop stop-color="#FAD961"/>
<stop offset="1" stop-color="#F76B1C"/>
</linearGradient>
<linearGradient id="paint7_linear_22_3076" x1="271.381" y1="140.96" x2="262.166" y2="166.158" gradientUnits="userSpaceOnUse">
<stop stop-color="#4FDCFF"/>
<stop offset="1" stop-color="#2285FF"/>
</linearGradient>
<linearGradient id="paint8_linear_22_3076" x1="303.37" y1="140.884" x2="285.175" y2="155.1" gradientUnits="userSpaceOnUse">
<stop stop-color="#2487FF"/>
<stop offset="1" stop-color="#064DD6"/>
</linearGradient>
<linearGradient id="paint9_linear_22_3076" x1="47.937" y1="195.074" x2="77.87" y2="229.909" gradientUnits="userSpaceOnUse">
<stop stop-color="#4FDCFF"/>
<stop offset="1" stop-color="#2285FF"/>
</linearGradient>
<linearGradient id="paint10_linear_22_3076" x1="2.45043" y1="208.026" x2="38.9" y2="250.017" gradientUnits="userSpaceOnUse">
<stop stop-color="#4FDCFF"/>
<stop offset="1" stop-color="#2285FF"/>
</linearGradient>
<linearGradient id="paint11_linear_22_3076" x1="52.2476" y1="206.389" x2="84.9227" y2="261.778" gradientUnits="userSpaceOnUse">
<stop stop-color="#4FDCFF"/>
<stop offset="1" stop-color="#2285FF"/>
</linearGradient>
<linearGradient id="paint12_linear_22_3076" x1="119.967" y1="201.18" x2="127.774" y2="221.075" gradientUnits="userSpaceOnUse">
<stop stop-color="#4FDCFF"/>
<stop offset="1" stop-color="#076BE7"/>
</linearGradient>
<linearGradient id="paint13_linear_22_3076" x1="344.093" y1="153.717" x2="278.602" y2="130.532" gradientUnits="userSpaceOnUse">
<stop stop-color="#4FB9FF"/>
<stop offset="0.67508" stop-color="#2285FF"/>
<stop offset="0.99971" stop-color="#064DD6"/>
</linearGradient>
<linearGradient id="paint14_linear_22_3076" x1="147.141" y1="266.399" x2="181.49" y2="229.646" gradientUnits="userSpaceOnUse">
<stop stop-color="#1076E9"/>
<stop offset="1" stop-color="#0D77FA"/>
</linearGradient>
<linearGradient id="paint15_linear_22_3076" x1="257.793" y1="207.711" x2="237.887" y2="168.478" gradientUnits="userSpaceOnUse">
<stop stop-color="#4FB9FF"/>
<stop offset="0.705846" stop-color="#268AFF"/>
<stop offset="1" stop-color="#064DD6"/>
</linearGradient>
<linearGradient id="paint16_linear_22_3076" x1="358.054" y1="201.641" x2="286.758" y2="135.079" gradientUnits="userSpaceOnUse">
<stop stop-color="#4FBDFF"/>
<stop offset="0.670274" stop-color="#2285FF"/>
<stop offset="0.999235" stop-color="#064DD6"/>
</linearGradient>
<linearGradient id="paint17_linear_22_3076" x1="297.454" y1="164.654" x2="304.148" y2="164.181" gradientUnits="userSpaceOnUse">
<stop stop-color="#30A0FF"/>
<stop offset="1" stop-color="#C9E5FF"/>
</linearGradient>
<linearGradient id="paint18_linear_22_3076" x1="304.098" y1="169.716" x2="310.848" y2="147.938" gradientUnits="userSpaceOnUse">
<stop stop-color="#064DD6"/>
<stop offset="0.999472" stop-color="#4499FF"/>
</linearGradient>
<linearGradient id="paint19_linear_22_3076" x1="222.729" y1="182.667" x2="210.357" y2="156.595" gradientUnits="userSpaceOnUse">
<stop stop-color="#0A74F6"/>
<stop offset="0.473101" stop-color="#31A3FF"/>
<stop offset="1" stop-color="#4FDCFF"/>
</linearGradient>
<clipPath id="clip0_22_3076">
<rect width="375" height="812" fill="white"/>
</clipPath>
</defs>
</svg>
