<svg width="150" height="150" viewBox="0 0 150 150" fill="none" xmlns="http://www.w3.org/2000/svg">
<circle cx="75" cy="75" r="75" fill="#D9D9D9"/>
<g clip-path="url(#clip0_62_3011)">
<path d="M75 150C116.421 150 150 116.421 150 75C150 33.5786 116.421 0 75 0C33.5786 0 0 33.5786 0 75C0 116.421 33.5786 150 75 150Z" fill="#295185"/>
<path d="M141.09 137.041C141.09 137.041 126.658 132.018 120.462 130.641C114.266 129.264 130.1 123.757 130.1 123.757L141.389 133.601L141.09 137.04V137.041Z" fill="#295185"/>
<path d="M19.1328 95.4517C19.0237 93.4065 19.5634 92.6764 21.6214 92.0706C21.4089 91.6109 21.1965 91.1524 21.0514 90.8379C21.012 90.8321 20.9772 90.8263 20.9377 90.8193C20.4142 90.7334 18.2031 90.3341 17.444 89.5832H17.4428C17.1921 88.867 16.9356 88.1787 16.7557 87.473C16.4899 86.4249 16.8323 85.7262 17.82 85.2514C18.3783 84.9833 18.9924 84.8278 19.5739 84.6247C19.3963 82.6909 20.0474 80.9998 21.1803 79.4386C21.8384 78.5321 22.8053 78.1421 23.7779 77.7173C24.8156 77.2646 25.8127 76.711 27.014 76.8514C27.173 76.87 27.44 76.7818 27.5015 76.6645C27.7092 76.2641 27.8485 75.8277 28.0122 75.4098C28.2652 75.628 28.2524 75.6246 28.1213 76.0308C28.0841 76.1434 28.1491 76.2885 28.1677 76.4196C28.3174 76.3987 28.5322 76.4324 28.6065 76.3477C28.9732 75.9263 29.304 75.4725 29.6546 75.021C30.0214 75.7696 29.0475 76.025 29.0139 76.7539C29.665 76.4046 30.2535 76.09 30.8524 75.7685C31.0788 76.5032 29.9366 76.2154 30.0411 76.8595H31.1809C31.0265 76.9814 30.9255 77.0603 30.8257 77.1404C32.2905 78.2361 32.0758 80.2941 32.005 81.63C31.9342 82.966 32.8732 83.9549 32.8732 83.9549L32.8802 83.9526C32.9904 84.1615 33.1762 84.3612 33.4512 84.5364C33.9898 84.88 34.2951 84.8022 34.7744 84.4041C36.0582 83.3386 37.5114 83.1459 39.0261 83.934C40.7695 84.8405 42.5001 85.7737 44.2365 86.6953C44.3502 86.7557 44.4977 86.8996 44.5719 86.8694C45.3461 86.5491 45.8069 87.1863 46.3838 87.4382C46.8063 87.6227 47.194 87.8862 47.5944 88.1184C47.9333 88.3145 48.1933 88.5084 48.2607 88.9819C48.2978 89.2442 48.7621 89.4485 49.0325 89.6784C50.7202 91.3869 52.6098 91.0387 52.6098 91.0387C54.0235 91.0155 55.4558 91.0782 56.8441 90.8646C58.7615 90.5698 60.6279 90.6777 62.4944 91.0747C66.074 91.8361 69.6524 92.6056 73.2239 93.4054C75.0578 93.8163 76.8128 93.6607 78.4807 92.8169C79.3513 92.377 80.2322 92.0346 81.2119 91.9429C81.5241 91.9139 81.8502 91.8175 81.9477 92.2006C82.0441 92.5848 81.6773 92.5987 81.4254 92.7008C80.895 92.9167 80.375 93.1547 79.8504 93.3833C81.1619 93.1291 82.4201 92.7693 83.6842 92.4315C84.0904 92.3224 84.6034 92.1611 84.7648 92.7252C84.9284 93.2997 84.3516 93.3206 83.9999 93.4576C83.2245 93.7594 82.4364 94.0275 81.6622 94.3305C81.4858 94.3989 81.3442 94.5533 81.1863 94.6682C81.2107 94.7332 81.2362 94.7971 81.2606 94.8621C82.6767 94.7181 84.0927 94.5835 85.5076 94.4245C85.8349 94.3873 86.1901 94.2921 86.2934 94.6961C86.3921 95.0849 86.1681 95.4064 85.7711 95.4761C84.586 95.6827 83.3963 95.8568 82.2054 96.0228C81.9129 96.0634 81.6088 96.0286 81.3105 96.0286C81.3047 96.0994 81.3001 96.1713 81.2943 96.2421C81.4603 96.2793 81.6251 96.3234 81.7934 96.3512C82.9309 96.5393 84.073 96.6971 85.2012 96.9316C85.4449 96.9815 85.7978 97.2914 85.8094 97.498C85.8326 97.9054 85.431 97.9832 85.0735 97.9658C84.0324 97.9135 82.9924 97.8056 81.9512 97.8068C81.148 97.8079 80.3413 97.9182 79.5451 98.0354C79.3652 98.0621 79.2201 98.3186 79.0588 98.4695C79.2317 98.6169 79.3826 98.8142 79.5822 98.9036C80.2415 99.1984 80.9333 99.4236 81.5798 99.7417C81.8131 99.8566 82.0058 100.13 82.1207 100.377C82.188 100.519 82.1184 100.796 82.0069 100.923C81.9373 101.003 81.6634 100.951 81.4997 100.901C80.3657 100.552 79.2224 100.228 78.1116 99.8148C77.161 99.4619 76.1767 99.1091 75.3503 98.5496C74.8361 98.2026 74.3846 97.8509 73.7613 97.7522C73.5802 97.7232 73.4108 97.6315 73.232 97.5839C71.6395 97.1602 70.0668 96.6194 68.4476 96.3501C66.6915 96.0587 64.8935 96.0135 63.1118 95.8765C62.0753 95.7964 61.0377 95.7454 60 95.6815C60.8392 96.2526 61.6772 96.7621 62.5361 97.2299C64.081 98.0726 64.7403 99.3517 64.5407 101.074C64.5047 101.383 64.4559 101.689 64.4165 101.969C64.7844 102.212 65.1408 102.453 65.5052 102.683C66.0055 102.999 66.5371 103.273 67.0095 103.625C67.5968 104.064 68.1354 104.564 68.696 105.037C68.963 105.262 69.2346 105.482 69.5038 105.704C69.7557 105.791 70.1039 105.704 70.4417 105.734C71.2495 105.805 71.9866 106.066 72.6435 106.579C72.9465 106.816 73.3667 106.915 73.7416 107.053C75.1425 107.569 76.5458 108.077 77.948 108.589C77.9979 108.607 78.0547 108.641 78.0826 108.685C78.6049 109.5 79.4929 109.635 80.3262 109.876C82.3586 110.463 84.3806 111.09 86.4269 111.625C87.4495 111.892 88.522 112.032 89.5538 111.585C90.8805 111.011 92.206 110.431 93.5246 109.836C95.6023 108.9 97.7496 108.196 100.037 108.016C102.988 107.784 105.943 107.612 108.892 107.369C110.034 107.275 111.166 107.056 112.422 106.878C112.149 106.287 111.957 105.83 111.729 105.39C111.23 104.418 111.533 103.709 112.593 103.398C113.565 103.112 114.518 103.113 115.493 103.451C116.083 103.656 116.717 103.772 117.34 103.834C119.723 104.073 122.106 104.025 124.465 103.614C127.938 103.89 131.115 99.2507 131.494 98.1561C131.815 97.2252 132.215 96.3176 132.479 95.3716C132.711 94.5417 132.762 93.6642 132.969 92.8262C133.168 92.0137 133.31 91.1281 133.75 90.4456C134.474 89.3197 135.409 88.3238 136.271 87.2861C136.712 86.7557 137.252 86.4319 137.999 86.4411C138.891 86.4516 139.103 86.6489 138.919 87.5229C138.71 88.5118 138.496 89.5008 138.262 90.4839C137.621 93.1848 136.598 95.7477 135.268 98.1817C131.198 106.85 124.931 108.058 124.262 108.281C123.112 108.665 121.993 109.105 121.217 110.123C121.059 110.331 120.73 110.432 120.46 110.532C120.149 110.646 119.82 110.717 119.494 110.787C118.046 111.1 116.604 111.454 115.144 111.699C113.973 111.897 112.76 111.87 111.597 112.097C108.126 112.778 104.746 113.783 101.448 115.052C100.714 115.335 99.9688 115.585 99.0994 115.897C99.5243 116.077 99.8052 116.217 100.098 116.318C101.044 116.644 101.984 116.989 102.944 117.269C105.597 118.045 108.261 118.783 110.915 119.555C111.382 119.691 111.726 119.571 111.991 119.215C112.399 118.669 112.788 118.11 113.17 117.547C114.027 116.284 115.363 116.254 116.269 117.5C116.516 117.842 116.668 118.248 116.901 118.601C117.081 118.872 117.277 119.164 117.537 119.347C118.823 120.251 120.196 121.045 121.421 122.023C123.998 124.079 126.672 125.947 129.82 127.061C132.797 128.115 135.507 129.679 138.177 131.327C140.425 132.715 142.701 134.059 144.97 135.412C145.544 135.755 146.149 136.044 146.721 136.385C147.684 136.961 148.03 137.996 148.562 138.889C148.629 139.001 148.642 139.201 148.586 139.317C148.521 139.455 148.356 139.638 148.231 139.642C146.91 139.672 145.648 139.626 144.413 138.911C141.577 137.267 138.684 135.71 135.757 134.227C133.144 132.904 130.454 131.729 127.798 130.489C125.552 129.438 123.326 128.345 121.048 127.364C120.438 127.101 119.676 127.125 118.983 127.118C118.396 127.112 117.786 127.444 117.264 126.907C117.22 126.861 117.126 126.852 117.053 126.846C114.726 126.649 112.549 125.873 110.409 125.038C106.796 123.627 103.015 122.98 99.2109 122.393C97.6323 122.149 96.0561 121.896 94.4787 121.649C92.6053 121.354 90.7389 121.042 88.8238 121.106C87.2452 121.158 85.662 121.094 84.0811 121.059C83.7701 121.052 83.4184 121.014 83.1595 120.864C82.4852 120.473 81.7469 120.472 81.0134 120.362C78.9671 120.054 76.9196 119.794 74.8442 119.926C74.4264 119.953 73.9447 119.751 73.622 120.218C73.5918 120.262 73.4491 120.239 73.3597 120.23C71.715 120.071 70.0633 119.965 68.429 119.732C66.9422 119.521 65.4646 119.215 64.0021 118.872C62.6325 118.552 61.2733 118.172 59.9373 117.735C59.1539 117.478 58.3414 117.168 57.6937 116.683C56.8986 116.088 56.0966 115.667 55.1076 115.519C54.3613 115.408 53.68 115.104 53.2377 114.432C53.1751 114.336 53.0439 114.253 52.9302 114.228C52.4984 114.137 52.0631 114.024 51.6255 114.012C51.2599 114.002 50.892 114.136 50.5229 114.182C50.2942 114.211 50.0597 114.216 49.8299 114.195C49.65 114.178 49.4771 114.098 49.2972 114.06C48.3048 113.848 47.3042 113.671 46.3258 113.41C46.0646 113.34 45.8557 113.033 45.6537 112.808C45.3821 112.504 45.1418 112.173 44.8853 111.857C44.782 111.731 44.6799 111.599 44.558 111.491C44.37 111.323 44.1854 111.071 43.9661 111.032C42.8146 110.823 41.6528 110.664 40.4932 110.504C40.2472 110.469 39.9906 110.499 39.7109 110.499C39.7109 110.499 37.6785 110.022 35.6136 109.019C34.591 108.496 33.5499 108.006 32.4971 107.543C31.7009 107.192 31.0695 106.683 30.669 105.915C30.0399 104.708 29.1172 103.759 28.0122 102.983C27.1834 102.402 26.3733 101.8 25.2938 101.664C24.5359 101.569 24.0066 101.043 23.865 100.289C23.7303 99.5722 23.7141 98.834 23.6468 98.1155C23.5214 98.1608 23.2823 98.2559 23.0362 98.3326C21.9649 98.6703 20.557 98.2768 19.9511 97.3761C19.9163 97.3239 19.8803 97.2786 19.8443 97.2357C19.676 96.9954 19.3441 96.4302 19.1258 95.4505L19.1328 95.4517Z" fill="#E2EBF1"/>
<path d="M103.115 33.924C103.115 34.95 102.282 35.7822 101.256 35.7822C100.23 35.7822 99.3979 34.95 99.3979 33.924C99.3979 32.8979 100.23 32.0657 101.256 32.0657C102.282 32.0657 103.115 32.8979 103.115 33.924Z" fill="#295185"/>
<path d="M87.4891 61.3896C89.1237 61.3896 90.4489 60.0644 90.4489 58.4298C90.4489 56.7951 89.1237 55.47 87.4891 55.47C85.8544 55.47 84.5293 56.7951 84.5293 58.4298C84.5293 60.0644 85.8544 61.3896 87.4891 61.3896Z" fill="#295185"/>
</g>
<defs>
<clipPath id="clip0_62_3011">
<rect width="150" height="150" fill="white"/>
</clipPath>
</defs>
</svg>
